<?xml version="1.0" standalone="no"?>
<!DOCTYPE svg PUBLIC "-//W3C//DTD SVG 20010904//EN"
 "http://www.w3.org/TR/2001/REC-SVG-20010904/DTD/svg10.dtd">
<svg version="1.0" xmlns="http://www.w3.org/2000/svg"
 width="700.000000pt" height="700.000000pt" viewBox="0 0 700.000000 700.000000"
 preserveAspectRatio="xMidYMid meet">
<metadata>
Created by potrace 1.11, written by Peter Selinger 2001-2013
</metadata>
<g transform="translate(0.000000,700.000000) scale(0.100000,-0.100000)"
fill="#000000" stroke="none">
<path d="M0 3500 l0 -3500 3489 0 3490 0 0 3500 -1 3500 -3489 0 -3489 0 0
-3500z m2100 1756 c14 -3 41 -7 60 -10 173 -26 335 -130 387 -247 37 -83 53
-175 58 -322 l3 -108 -83 2 c-251 6 -466 75 -550 178 -93 113 -121 207 -129
430 l-4 94 117 -6 c64 -3 127 -8 141 -11z m2347 -451 c68 -181 128 -341 133
-355 5 -14 22 -59 37 -100 l29 -75 44 4 c78 7 263 6 325 -2 436 -55 827 -340
1020 -742 208 -434 163 -946 -119 -1343 -144 -204 -343 -357 -601 -463 -123
-50 -291 -81 -450 -82 -146 -1 -199 6 -334 39 -437 108 -796 446 -932 875
l-33 102 -27 -89 c-86 -275 -258 -512 -498 -685 -121 -87 -328 -184 -441 -205
-14 -3 -45 -10 -70 -15 -61 -14 -158 -23 -255 -23 -149 1 -265 20 -412 69
-472 158 -817 570 -891 1065 -4 25 -7 115 -7 200 0 163 21 294 67 420 133 362
409 652 757 794 80 32 241 73 331 85 78 9 299 7 360 -4 512 -93 904 -430 1055
-908 l32 -102 17 60 c62 220 191 437 350 589 57 54 185 156 197 156 13 0 11
17 -5 53 -8 18 -30 75 -50 127 -19 52 -56 151 -83 220 l-48 125 -460 0 -460 0
-3 273 -2 272 651 -2 652 -3 124 -330z"/>
<path d="M2147 3753 c-370 -63 -649 -387 -660 -766 -11 -363 238 -696 595
-795 89 -24 309 -24 398 1 347 95 585 396 595 750 14 506 -432 895 -928 810z
m216 -254 c111 -29 200 -95 232 -173 49 -117 -63 -231 -239 -243 -278 -20
-492 178 -365 338 63 80 231 115 372 78z"/>
<path d="M4847 3747 c3 -12 14 -41 24 -64 10 -24 19 -46 19 -50 0 -5 25 -73
56 -153 30 -80 72 -192 94 -250 21 -58 50 -135 64 -172 14 -37 22 -69 18 -72
-4 -2 -45 -18 -92 -36 -47 -18 -112 -42 -145 -55 -185 -72 -258 -96 -264 -89
-6 7 -186 479 -257 674 -7 19 -17 48 -24 64 l-11 29 -50 -49 c-148 -145 -232
-365 -225 -584 4 -115 6 -125 37 -219 65 -202 214 -375 405 -470 50 -24 103
-43 194 -69 8 -2 71 -6 140 -8 156 -4 269 21 395 91 328 181 489 563 388 925
-89 317 -369 546 -704 573 -65 6 -67 5 -62 -16z"/>
</g>
</svg>
