<svg width="790" height="500" viewBox="0 0 790 500" fill="none" xmlns="http://www.w3.org/2000/svg">
<path d="M451.224 9.87631C397.72 18.8829 275.211 50.539 174.203 92.437C71.0059 135.243 61.4731 156.882 9.18988 251.054C-6.81137 279.875 -10.8116 338.618 73.1949 370.141L243.708 440.693C315.214 468.713 463.12 505.798 522.73 499.236C622.738 488.227 683.104 466.016 709.245 443.194C809.918 355.304 828.732 100.816 694.744 34.3943C594.454 -15.3221 504.729 0.869689 451.224 9.87631Z" fill="url(#paint0_linear)"/>
<g clip-path="url(#clip0)">
<path d="M289.412 362.861C266.65 362.861 248.06 381.237 248.02 403.983C248.02 404.125 248.02 404.266 248.02 404.408C248.02 409.872 252.454 414.304 257.922 414.304H695.153C700.62 414.304 705.055 409.872 705.055 404.408C705.055 381.459 686.445 362.861 663.481 362.861H289.412Z" fill="#EDFCFF"/>
<path d="M655.319 254.269V230.45H641.164V254.269H624.417V217.438H612.145V189.915H602.101V161.664H581.263V189.915H571.198V217.438H559.291V184.35H552.588V167.614H548.498V184.35H524.683V289.967H506.457V278.817H495.279V289.967H477.053V254.269H444.288V230.45H430.153V254.269H429.404V300.005H414.52V273.231H396.659V300.005H381.774V217.438H370.232V189.915H327.807V217.438H316.648V362.861H381.774H429.404H477.053H524.683H559.291H624.417H672.067V254.269H655.319Z" fill="white"/>
<path d="M339.35 225.998H323.716V234.923H339.35V225.998Z" fill="white"/>
<path d="M374.322 225.998H358.689V234.923H374.322V225.998Z" fill="white"/>
<path d="M339.35 243.483H323.716V252.408H339.35V243.483Z" fill="white"/>
<path d="M374.322 243.483H358.689V252.408H374.322V243.483Z" fill="white"/>
<path d="M339.35 260.968H323.716V269.892H339.35V260.968Z" fill="white"/>
<path d="M374.322 260.968H358.689V269.892H374.322V260.968Z" fill="white"/>
<path d="M339.35 278.432H323.716V287.357H339.35V278.432Z" fill="white"/>
<path d="M374.322 278.432H358.689V287.357H374.322V278.432Z" fill="white"/>
<path d="M339.35 295.917H323.716V304.842H339.35V295.917Z" fill="white"/>
<path d="M374.322 295.917H358.689V304.842H374.322V295.917Z" fill="white"/>
<path d="M339.35 313.402H323.716V322.326H339.35V313.402Z" fill="white"/>
<path d="M374.322 313.402H358.689V322.326H374.322V313.402Z" fill="white"/>
<path d="M339.35 330.887H323.716V339.811H339.35V330.887Z" fill="white"/>
<path d="M374.322 330.887H358.689V339.811H374.322V330.887Z" fill="white"/>
<path d="M423.815 308.93H387.343V313.402H423.815V308.93Z" fill="white"/>
<path d="M423.815 315.628H387.343V320.1H423.815V315.628Z" fill="white"/>
<path d="M423.815 322.327H387.343V326.799H423.815V322.327Z" fill="white"/>
<path d="M519.094 311.176H482.623V315.648H519.094V311.176Z" fill="white"/>
<path d="M519.094 317.854H482.623V322.326H519.094V317.854Z" fill="white"/>
<path d="M519.094 324.553H482.623V329.025H519.094V324.553Z" fill="white"/>
<path d="M423.815 329.025H387.343V333.497H423.815V329.025Z" fill="white"/>
<path d="M423.815 335.724H387.343V340.196H423.815V335.724Z" fill="white"/>
<path d="M423.815 342.402H387.343V346.874H423.815V342.402Z" fill="white"/>
<path d="M447.266 262.81H437.221V275.822H447.266V262.81Z" fill="white"/>
<path d="M469.237 262.81H459.193V275.822H469.237V262.81Z" fill="white"/>
<path d="M447.266 283.653H437.221V296.666H447.266V283.653Z" fill="white"/>
<path d="M469.237 283.653H459.193V296.666H469.237V283.653Z" fill="white"/>
<path d="M447.266 304.478H437.221V317.49H447.266V304.478Z" fill="white"/>
<path d="M469.237 304.478H459.193V317.49H469.237V304.478Z" fill="white"/>
<path d="M447.266 325.301H437.221V338.314H447.266V325.301Z" fill="white"/>
<path d="M469.237 325.301H459.193V338.314H469.237V325.301Z" fill="white"/>
<path d="M538.089 192.89H524.683V209.99H538.089V192.89Z" fill="white"/>
<path d="M538.089 217.438H524.683V234.538H538.089V217.438Z" fill="white"/>
<path d="M538.089 241.985H524.683V259.086H538.089V241.985Z" fill="white"/>
<path d="M538.089 266.533H524.683V283.634H538.089V266.533Z" fill="white"/>
<path d="M538.089 291.081H524.683V308.181H538.089V291.081Z" fill="white"/>
<path d="M538.089 315.628H524.683V332.728H538.089V315.628Z" fill="white"/>
<path d="M616.804 227.86H566.926V242.37H616.804V227.86Z" fill="white"/>
<path d="M616.986 259.106H567.108V273.616H616.986V259.106Z" fill="white"/>
<path d="M617.168 290.332H567.291V304.842H617.168V290.332Z" fill="white"/>
<path d="M617.37 321.578H567.493V336.088H617.37V321.578Z" fill="white"/>
<path d="M334.51 197.727H327.807V211.852H334.51V197.727Z" fill="white"/>
<path d="M672.068 262.81H655.32V284.382H672.068V262.81Z" fill="white"/>
<path d="M672.068 294.055H655.32V315.628H672.068V294.055Z" fill="white"/>
<path d="M672.068 325.301H655.32V346.874H672.068V325.301Z" fill="white"/>
<path d="M610.708 174.434V194.064C610.708 198.111 613.948 201.39 617.958 201.39H629.46C633.47 201.39 636.71 198.111 636.71 194.064V174.434H610.708Z" fill="#FFE837"/>
<path d="M634.684 360.676L633.489 359.542C633.267 359.32 632.963 359.198 632.659 359.198H631.221V351.852C631.221 350.112 629.925 348.695 628.244 348.493V335.865C628.244 334.448 627.353 333.234 626.098 332.769V204.708H627.738C629.723 204.708 631.322 203.11 631.322 201.126H616.135C616.135 203.11 617.734 204.708 619.719 204.708H621.359V332.789C620.104 333.254 619.213 334.469 619.213 335.885V348.513C617.532 348.716 616.236 350.132 616.236 351.873V359.219H614.798C614.494 359.219 614.19 359.34 613.968 359.563L612.773 360.696C612.53 360.919 612.388 361.242 612.388 361.586V361.688C612.388 362.355 612.935 362.902 613.603 362.902H633.894C634.563 362.902 635.109 362.355 635.109 361.688V361.586C635.069 361.222 634.927 360.898 634.684 360.676Z" fill="#50A2AE"/>
<path d="M638.714 174.434H608.683C608.683 171.722 610.829 169.516 613.523 169.415C613.826 164.052 618.261 159.823 623.709 159.823C629.156 159.823 633.591 164.073 633.895 169.415C635.211 169.476 636.385 170.022 637.256 170.872C638.168 171.803 638.714 173.058 638.714 174.434Z" fill="#6CD8FF"/>
<path d="M638.714 174.434H608.683C608.683 171.722 610.829 169.516 613.523 169.415H633.895C635.211 169.476 636.385 170.022 637.256 170.872C638.168 171.803 638.714 173.058 638.714 174.434Z" fill="#50A2AE"/>
<path d="M406.075 249.352H410.024C410.571 249.352 411.016 249.797 411.016 250.343V318.016H405.083V250.343C405.083 249.797 405.529 249.352 406.075 249.352Z" fill="#51A1B8"/>
<path d="M563.16 249.352H567.109C567.655 249.352 568.101 249.797 568.101 250.343V318.016H562.167V250.343C562.167 249.797 562.613 249.352 563.16 249.352Z" fill="#51A1B8"/>
<path d="M584.524 270.479H394.573C393.824 270.479 393.216 269.872 393.216 269.123V259.389C393.216 258.64 393.824 258.033 394.573 258.033H584.524C585.273 258.033 585.881 258.64 585.881 259.389V269.123C585.881 269.872 585.273 270.479 584.524 270.479Z" fill="#4BC1E7"/>
<path d="M584.524 287.074H394.573C393.824 287.074 393.216 286.467 393.216 285.718V275.984C393.216 275.235 393.824 274.628 394.573 274.628H584.524C585.273 274.628 585.881 275.235 585.881 275.984V285.718C585.881 286.467 585.273 287.074 584.524 287.074Z" fill="#4BC1E7"/>
<path d="M584.524 303.668H394.573C393.824 303.668 393.216 303.061 393.216 302.312V292.578C393.216 291.829 393.824 291.222 394.573 291.222H584.524C585.273 291.222 585.881 291.829 585.881 292.578V302.312C585.881 303.061 585.273 303.668 584.524 303.668Z" fill="#4BC1E7"/>
<path d="M598.882 321.133H380.236C379.669 321.133 379.203 320.667 379.203 320.101V315.952C379.203 315.385 379.669 314.92 380.236 314.92H598.882C599.449 314.92 599.914 315.385 599.914 315.952V320.101C599.914 320.667 599.449 321.133 598.882 321.133Z" fill="#4BC1E7"/>
<path d="M427.926 348.756C426.245 348.756 424.888 350.112 424.888 351.792V354.078C424.888 355.616 423.613 356.851 422.074 356.81C420.575 356.77 419.421 355.454 419.421 353.977V340.884V329.834V321.173H413.346V335.885C411.422 333.963 408.04 333.882 408.04 333.882C408.04 333.882 404.658 333.963 402.734 335.885V321.173H396.659V329.834V340.884V353.977C396.659 355.475 395.505 356.77 394.006 356.81C392.467 356.851 391.191 355.616 391.191 354.078V351.771C391.191 350.092 389.835 348.736 388.154 348.736C386.473 348.736 385.116 350.092 385.116 351.771V353.836C385.116 358.591 388.822 362.659 393.581 362.841C398.583 363.023 402.734 359.016 402.734 354.058V343.272C402.734 343.272 404.658 339.487 408.04 339.204C411.422 339.508 413.346 343.272 413.346 343.272V354.078C413.346 359.036 417.477 363.064 422.499 362.861C427.258 362.679 430.964 358.611 430.964 353.856V351.771C430.964 350.112 429.607 348.756 427.926 348.756Z" fill="#51A1B8"/>
<path d="M585.03 348.756C583.35 348.756 581.993 350.112 581.993 351.792V354.078C581.993 355.616 580.717 356.851 579.178 356.81C577.68 356.77 576.525 355.454 576.525 353.977V340.884V329.834V321.173H570.45V335.885C568.526 333.963 565.144 333.882 565.144 333.882C565.144 333.882 561.763 333.963 559.839 335.885V321.173H553.764V329.834V340.884V353.977C553.764 355.475 552.609 356.77 551.111 356.81C549.572 356.851 548.296 355.616 548.296 354.078V351.771C548.296 350.092 546.939 348.736 545.258 348.736C543.577 348.736 542.221 350.092 542.221 351.771V353.836C542.221 358.591 545.927 362.659 550.685 362.841C555.687 363.023 559.839 359.016 559.839 354.058V343.272C559.839 343.272 561.763 339.487 565.144 339.204C568.526 339.508 570.45 343.272 570.45 343.272V354.078C570.45 359.036 574.581 363.064 579.603 362.861C584.362 362.679 588.068 358.611 588.068 353.856V351.771C588.068 350.112 586.711 348.756 585.03 348.756Z" fill="#51A1B8"/>
<path d="M342.894 138.21H430.68C430.68 138.21 427.865 123.032 408.728 124.711C389.591 126.391 401.418 115.706 386.777 109.534C372.135 103.361 378.899 126.411 365.959 126.411C353.019 126.411 360.35 139.343 342.894 138.21Z" fill="#9CE5F4"/>
<path d="M535.962 62.9274H574.034C574.034 62.9274 572.819 56.3504 564.516 57.0789C556.213 57.8074 561.336 53.1731 554.998 50.5018C548.66 47.8305 551.576 57.8074 545.966 57.8074C540.357 57.8074 543.536 63.4131 535.962 62.9274Z" fill="#9CE5F4"/>
<path d="M658.236 111.416C640.658 112.003 643.291 96.0557 635.9 93.9916C628.508 91.9274 628.508 100.791 623.182 101.075C617.856 101.358 618.16 96.6426 610.769 96.2379C603.377 95.8129 605.159 104.92 597.768 105.871C590.376 106.822 587.237 111.416 587.237 111.416H658.236Z" fill="#9CE5F4"/>
<path d="M652.06 395.099C652.06 395.099 642.4 384.576 631.667 387.105C620.935 389.655 621.967 396.758 621.967 396.758C621.967 396.758 619.173 386.336 611.802 385.567C604.43 384.798 601.676 402.587 601.676 402.587C601.676 402.587 599.59 396.495 595.783 402.587C591.976 408.678 595.783 414.284 595.783 414.284H643.291L652.06 395.099Z" fill="#9FEBE1"/>
<path d="M288.015 386.256C288.015 386.256 308.67 378.727 310.716 392.448C312.741 406.169 319.363 396.01 326.997 397.528C334.632 399.045 328.516 410.743 334.632 408.456C340.727 406.169 343.177 414.304 343.177 414.304H293.908L288.015 386.256Z" fill="#51E0CE"/>
<path d="M277.585 414.304C277.585 414.304 265.172 405.157 267.237 398.661C269.303 392.165 276.532 397.042 273.596 388.481C270.639 379.921 266.812 379.031 269.748 376.966C272.685 374.902 274.183 372.98 273.15 365.897C272.118 358.814 274.851 358.672 277.221 356.385C279.59 354.099 279.651 346.267 285.422 347.825C291.194 349.383 288.014 355.131 289.189 358.166C290.363 361.202 293.259 360.008 292.733 363.994C292.206 367.981 289.391 369.378 292.794 374.842C296.196 380.306 295.912 384.353 293.685 388.34C291.457 392.326 294.94 394.836 296.418 399.855C297.897 404.873 293.543 412.483 293.907 414.324H277.585V414.304Z" fill="#30BDB4"/>
<path d="M285.504 351.61L284.329 351.448C280.623 378.808 284.835 404.59 286.8 414.304H287.994C286.091 404.874 281.798 379.031 285.504 351.61Z" fill="#9EDADA"/>
<path d="M659.593 414.304C659.593 414.304 672.007 405.157 669.941 398.661C667.876 392.165 660.646 397.042 663.582 388.481C666.539 379.921 670.366 379.031 667.43 376.966C664.494 374.902 662.995 372.98 664.028 365.897C665.061 358.814 662.327 358.672 659.958 356.385C657.588 354.099 657.527 346.267 651.756 347.825C645.985 349.383 649.164 355.131 647.989 358.166C646.815 361.202 643.919 360.008 644.446 363.994C644.972 367.981 647.787 369.378 644.385 374.842C640.983 380.306 641.266 384.353 643.494 388.34C645.701 392.326 642.238 394.836 640.76 399.855C639.282 404.873 643.636 412.483 643.271 414.324H659.593V414.304Z" fill="#30BDB4"/>
<path d="M651.675 351.61L652.849 351.448C656.555 378.808 652.343 404.59 650.379 414.304H649.184C651.108 404.874 655.401 379.031 651.675 351.61Z" fill="#9EDADA"/>
<path opacity="0.5" d="M567.493 395.1C602.935 395.1 631.667 391.521 631.667 387.106C631.667 382.691 602.935 379.112 567.493 379.112C532.051 379.112 503.319 382.691 503.319 387.106C503.319 391.521 532.051 395.1 567.493 395.1Z" fill="#9FEBE1"/>
<path d="M599.671 273.515C599.043 289.098 599.448 345.094 599.61 365.007H589.323C589.363 364.278 589.343 363.53 589.221 362.781L575.876 270.581L559.453 365.007H549.064L555.261 233.972L555.788 222.841C558.765 224.379 561.721 225.472 564.576 226.221C570.53 227.779 576.099 227.82 580.919 227.172C591.267 225.776 598.213 221.162 598.213 221.162C600.562 230.268 601.453 237.23 601.635 243.382C601.919 253.622 600.157 261.616 599.671 273.515Z" fill="url(#paint1_linear)"/>
<path d="M601.635 243.382C592.28 241.905 584.503 235.631 580.919 227.172C591.267 225.776 598.213 221.162 598.213 221.162C600.582 230.268 601.473 237.23 601.635 243.382Z" fill="#1D164D"/>
<path d="M627.82 233.223C627.82 233.223 627.05 231.24 625.491 231.017C623.911 230.794 622.089 231.017 622.089 231.017C622.089 231.017 622.676 232.595 624.154 233.688C625.613 234.801 627.233 234.579 627.678 234.275C628.083 233.992 627.82 233.223 627.82 233.223Z" fill="url(#paint2_linear)"/>
<path d="M622.068 245.567C622.068 245.567 619.861 243.058 620.165 239.031C620.469 235.004 622.96 234.538 624.175 234.842C625.39 235.125 627.03 235.813 628.407 235.348C629.784 234.882 631.364 233.87 633.044 234.923C634.725 235.975 635.13 238.484 634.907 240.67C634.685 242.856 633.085 245.567 632.113 246.296L622.068 245.567Z" fill="url(#paint3_linear)"/>
<path opacity="0.3" d="M633.044 234.923C632.234 234.417 631.445 234.376 630.695 234.538C631.526 235.206 630.371 237.149 630.716 237.635C631.121 238.221 632.052 236.866 631.789 238.201C631.546 239.537 631.303 240.083 632.052 240.124C632.801 240.144 632.417 241.358 631.465 243.605C630.736 245.284 628.772 245.831 627.82 246.013L632.093 246.316C633.065 245.608 634.664 242.876 634.887 240.69C635.13 238.485 634.725 235.975 633.044 234.923Z" fill="url(#paint4_linear)"/>
<path d="M633.044 240.69H633.024C632.902 240.67 632.821 240.569 632.821 240.447C632.943 239.233 632.821 238.1 632.477 237.371C632.416 237.27 632.477 237.128 632.578 237.068C632.679 237.007 632.821 237.068 632.882 237.169C633.267 237.978 633.408 239.193 633.267 240.488C633.267 240.609 633.165 240.69 633.044 240.69Z" fill="white"/>
<path d="M625.349 245.81C625.045 245.486 624.904 244.9 624.357 245.021C623.587 245.203 624.276 244.394 623.851 243.726C623.446 243.058 622.939 243.908 622.19 243.402C621.461 242.896 623.405 240.832 622.777 240.468C622.15 240.083 622.109 241.763 621.339 241.135C620.793 240.71 620.793 238.039 620.833 236.481C620.489 237.108 620.246 237.938 620.165 239.031C619.861 243.058 622.069 245.567 622.069 245.567L625.349 245.81Z" fill="#C7283A"/>
<path d="M632.052 236.724C632.012 236.724 631.971 236.704 631.931 236.684C631.769 236.582 631.627 236.542 631.465 236.542C631.343 236.542 631.242 236.441 631.242 236.319C631.242 236.198 631.343 236.097 631.465 236.097C631.728 236.097 631.931 236.157 632.174 236.319C632.275 236.38 632.315 236.522 632.234 236.623C632.194 236.684 632.113 236.724 632.052 236.724Z" fill="white"/>
<path d="M627.8 235.591C627.8 235.591 626.848 235.57 625.856 235.287C624.863 235.004 624.641 235.591 626.321 236.036C628.002 236.481 628.974 236.299 629.825 235.813C630.675 235.328 630.452 235.105 629.906 235.064C629.399 235.004 628.751 235.672 627.8 235.591Z" fill="#C7283A"/>
<path d="M627.982 235.874C627.982 235.874 627.8 236.076 627.658 235.874C627.658 235.874 627.516 234.761 627.719 233.587C627.84 232.94 628.043 232.494 628.205 232.211C628.326 232.029 628.569 231.989 628.731 232.11H628.752C628.914 232.231 628.954 232.454 628.833 232.636C628.65 232.879 628.407 233.263 628.225 233.85C627.881 234.903 627.982 235.874 627.982 235.874Z" fill="url(#paint5_linear)"/>
<path d="M608.075 241.54C605.219 245.911 602.364 245.081 600.217 242.714C598.071 240.346 597.079 236.987 597.808 234.882C598.537 232.777 600.744 233.02 600.744 233.02C600.946 233.83 602.506 234.153 603.903 233.688C605.3 233.222 606.414 234.376 606.758 234.012C607.103 233.647 606.596 232.878 606.596 232.878C606.596 232.878 608.601 232.959 609.695 233.708C610.808 234.477 610.91 237.169 608.075 241.54Z" fill="url(#paint6_linear)"/>
<path d="M600.238 241.844C599.489 241.237 599.063 240.751 600.218 240.387C601.372 240.043 602 239.496 601.959 239.01C601.919 238.504 601.554 239.132 600.744 238.241C600.157 237.594 599.63 239.375 598.496 236.562C597.626 234.396 600.704 233.02 600.704 233.02C600.683 233.02 598.476 232.777 597.767 234.882C597.059 236.987 598.051 240.346 600.177 242.714C600.258 242.795 600.339 242.896 600.42 242.977C600.481 242.511 600.623 242.147 600.238 241.844Z" fill="#C7283A"/>
<path opacity="0.3" d="M608.075 241.54C606.192 244.434 604.288 245.061 602.607 244.454C603.296 244.312 604.045 243.928 604.612 243.017C605.949 240.791 603.316 239.476 605.605 238.525C607.893 237.573 607.913 237.391 607.407 236.46C606.901 235.529 608.095 236.157 608.905 235.408C608.926 235.388 608.926 235.388 608.946 235.368C609.209 235.105 609.047 235.003 608.743 234.943C608.257 234.862 607.407 234.862 607.346 234.457C607.245 233.789 606.374 234.72 605.422 233.708C606.07 233.911 606.556 234.234 606.779 234.012C607.123 233.647 606.617 232.878 606.617 232.878C606.617 232.878 608.622 232.959 609.715 233.708C610.809 234.477 610.91 237.169 608.075 241.54Z" fill="url(#paint7_linear)"/>
<path d="M604.288 232.332C604.288 232.332 604.227 231.867 604.633 231.239C605.017 230.612 604.957 230.491 604.693 230.47C604.43 230.43 603.64 231.118 603.66 232.413C603.66 232.413 601.838 231.988 600.724 233.041C600.927 233.85 602.486 234.174 603.883 233.708C605.281 233.243 606.394 234.396 606.739 234.032C607.083 233.668 606.577 232.899 606.577 232.899C606.577 232.899 606.01 232.211 604.288 232.332Z" fill="url(#paint8_linear)"/>
<path d="M599.104 236.804C599.084 236.926 598.983 237.007 598.861 236.986C598.74 236.966 598.659 236.865 598.679 236.743C598.699 236.622 598.983 236.035 598.983 236.035C598.983 236.035 599.124 236.683 599.104 236.804Z" fill="#FBDA91"/>
<path d="M601.393 237.249C601.372 237.371 601.271 237.452 601.15 237.432C601.028 237.411 600.947 237.31 600.967 237.189C600.988 237.067 601.271 236.48 601.271 236.48C601.271 236.48 601.393 237.128 601.393 237.249Z" fill="#FBDA91"/>
<path d="M602.851 239.719C602.83 239.84 602.729 239.921 602.608 239.901C602.486 239.881 602.405 239.779 602.425 239.658C602.446 239.537 602.729 238.95 602.729 238.95C602.729 238.95 602.871 239.618 602.851 239.719Z" fill="#FBDA91"/>
<path d="M608.703 238.383C608.703 238.525 608.602 238.626 608.48 238.626C608.359 238.626 608.257 238.525 608.257 238.383C608.257 238.241 608.46 237.553 608.46 237.553C608.46 237.553 608.703 238.241 608.703 238.383Z" fill="#F9E2B2"/>
<path d="M605.726 239.334C605.706 239.455 605.605 239.536 605.483 239.516C605.362 239.496 605.281 239.395 605.301 239.273C605.321 239.152 605.605 238.565 605.605 238.565C605.605 238.565 605.726 239.213 605.726 239.334Z" fill="#F9E2B2"/>
<path d="M606.718 236.906C606.698 237.027 606.597 237.108 606.475 237.088C606.354 237.068 606.273 236.966 606.293 236.845C606.313 236.724 606.597 236.137 606.597 236.137C606.597 236.137 606.739 236.784 606.718 236.906Z" fill="#FBDA91"/>
<path d="M608.926 235.367C608.865 235.286 608.784 235.104 608.723 234.942C609.027 235.023 609.189 235.104 608.926 235.367Z" fill="#FBDA91"/>
<path d="M609.229 235.489C609.148 235.55 609.027 235.509 608.946 235.408C608.946 235.408 608.926 235.388 608.926 235.368C609.189 235.104 609.027 235.003 608.723 234.943C608.662 234.821 608.622 234.72 608.602 234.7C608.642 234.72 609.128 235.104 609.209 235.206C609.29 235.307 609.29 235.428 609.229 235.489Z" fill="#F9E2B2"/>
<path d="M601.534 241.54C601.514 241.661 601.412 241.742 601.291 241.722C601.169 241.702 601.088 241.601 601.109 241.479C601.129 241.358 601.412 240.771 601.412 240.771C601.412 240.771 601.534 241.419 601.534 241.54Z" fill="#FBDA91"/>
<path d="M605.402 233.729C605.402 233.729 605.28 233.385 604.166 233.263C603.032 233.142 602.263 233.466 601.959 233.182C601.777 233.02 602.04 232.656 602.324 232.353C601.797 232.413 601.21 232.595 600.744 233.041C600.947 233.85 602.506 234.174 603.903 233.708C604.45 233.526 604.956 233.587 605.402 233.729Z" fill="#6BBC61"/>
<path d="M619.578 237.128C619.578 237.128 619.659 236.218 619.882 235.874C620.105 235.55 620.044 235.388 619.902 235.044C619.841 234.882 619.72 234.72 619.639 234.599C619.538 234.457 619.315 234.437 619.193 234.558L619.072 234.68C618.869 234.882 618.788 235.145 618.829 235.428C618.869 235.793 618.869 236.319 618.505 236.724C617.897 237.391 617.026 237.978 617.006 239.698C616.986 241.419 617.877 243.523 619.214 245.203C620.55 246.883 623.709 248.886 626.099 248.927C628.488 248.967 628.974 248.643 629.359 248.259C629.744 247.874 630.007 247.631 630.27 247.631C630.27 247.631 630.756 247.287 630.615 246.943C630.473 246.62 630.23 246.417 630.007 246.336C629.784 246.255 629.602 246.215 629.298 245.972C628.995 245.729 627.091 245.405 625.775 245.001C624.479 244.596 623.223 244.09 622.595 242.592C621.968 241.095 621.218 238.889 620.672 238.12C620.145 237.412 619.578 237.128 619.578 237.128Z" fill="#FED300"/>
<path opacity="0.3" d="M621.016 240.184C621.239 242.39 621.563 243.24 622.231 243.928C622.899 244.616 622.596 243.847 622.94 243.908C623.304 243.968 622.859 244.758 623.345 245.223C623.831 245.688 623.608 244.758 624.054 244.818C624.499 244.879 626.079 246.417 626.707 246.073C627.01 245.911 627.375 245.688 627.76 245.567C627.112 245.405 626.362 245.243 625.755 245.041C624.459 244.636 623.203 244.13 622.575 242.633C621.948 241.135 621.198 238.929 620.652 238.16C620.125 237.391 619.558 237.108 619.558 237.108C619.558 237.108 620.793 237.978 621.016 240.184Z" fill="white"/>
<path d="M629.339 248.299C629.724 247.915 629.987 247.672 630.25 247.672C630.25 247.672 630.554 247.449 630.615 247.207C630.331 247.409 629.967 247.429 629.784 247.287C629.602 247.146 629.602 247.611 628.995 247.834C628.387 248.056 627.476 247.267 626.321 247.692C625.167 248.117 625.187 247.773 625.511 247.207C625.835 246.64 622.98 246.417 621.684 246.053C620.388 245.668 620.267 243.604 618.525 241.803C616.783 240.002 617.634 238.161 618.343 237.695C619.052 237.23 619.396 236.562 619.295 235.833C619.214 235.307 619.659 235.145 619.902 235.084C619.841 234.923 619.72 234.761 619.639 234.639C619.538 234.498 619.315 234.477 619.193 234.599L619.072 234.72C618.869 234.923 618.788 235.186 618.829 235.469C618.869 235.833 618.869 236.359 618.505 236.764C617.897 237.432 617.026 238.019 617.006 239.739C616.986 241.459 617.877 243.564 619.214 245.244C620.55 246.923 623.709 248.927 626.099 248.967C628.488 249.008 628.954 248.684 629.339 248.299Z" fill="#EAAD03"/>
<path d="M619.983 235.671C620.044 235.469 620.003 235.327 619.882 235.064C619.821 234.902 619.699 234.741 619.618 234.619C619.537 234.518 619.416 234.477 619.315 234.498C619.072 234.801 619.416 235.246 619.679 235.489C619.821 235.631 619.922 235.671 619.983 235.671Z" fill="#1D164D"/>
<path d="M630.594 246.984C630.554 246.883 630.493 246.781 630.432 246.721C630.23 246.923 630.209 247.186 630.209 247.186L630.23 247.672C630.25 247.672 630.736 247.328 630.594 246.984Z" fill="#1D164D"/>
<path d="M616.925 236.562C616.925 236.562 617.006 235.652 617.228 235.308C617.451 234.984 617.39 234.822 617.249 234.478C617.188 234.316 617.066 234.154 616.985 234.033C616.884 233.891 616.661 233.871 616.54 233.992L616.418 234.114C616.216 234.316 616.135 234.579 616.175 234.863C616.216 235.227 616.216 235.753 615.851 236.158C615.244 236.826 614.373 237.412 614.353 239.133C614.333 240.853 615.224 242.957 616.56 244.637C617.897 246.317 621.056 248.32 623.445 248.361C625.835 248.401 626.321 248.077 626.706 247.693C627.091 247.308 627.354 247.066 627.617 247.066C627.617 247.066 628.103 246.722 627.961 246.377C627.82 246.054 627.577 245.851 627.354 245.77C627.131 245.689 626.949 245.649 626.645 245.406C626.341 245.163 624.438 244.839 623.121 244.435C621.825 244.03 620.57 243.524 619.942 242.026C619.314 240.529 618.565 238.323 618.018 237.554C617.492 236.846 616.925 236.562 616.925 236.562Z" fill="#FED300"/>
<path opacity="0.3" d="M618.363 239.598C618.586 241.803 618.91 242.653 619.578 243.341C620.246 244.029 619.942 243.26 620.287 243.321C620.651 243.382 620.206 244.171 620.692 244.637C621.178 245.102 620.955 244.171 621.4 244.232C621.846 244.293 623.425 245.831 624.053 245.487C624.357 245.325 624.722 245.102 625.106 244.981C624.458 244.819 623.709 244.657 623.101 244.454C621.805 244.05 620.55 243.544 619.922 242.046C619.294 240.549 618.545 238.343 617.998 237.574C617.472 236.805 616.905 236.521 616.905 236.521C616.905 236.521 618.14 237.392 618.363 239.598Z" fill="white"/>
<path d="M626.686 247.712C627.07 247.328 627.334 247.085 627.597 247.085C627.597 247.085 627.901 246.862 627.961 246.62C627.678 246.822 627.313 246.842 627.131 246.701C626.949 246.559 626.949 247.024 626.341 247.247C625.734 247.47 624.822 246.68 623.668 247.105C622.514 247.53 622.534 247.186 622.858 246.62C623.182 246.053 620.327 245.83 619.031 245.466C617.735 245.082 617.613 243.017 615.872 241.216C614.13 239.415 614.981 237.574 615.689 237.108C616.398 236.643 616.742 235.975 616.641 235.246C616.56 234.72 617.006 234.558 617.249 234.498C617.188 234.336 617.066 234.174 616.985 234.052C616.884 233.911 616.661 233.89 616.54 234.012L616.418 234.133C616.216 234.336 616.135 234.599 616.175 234.882C616.216 235.246 616.216 235.772 615.851 236.177C615.244 236.845 614.373 237.432 614.353 239.152C614.333 240.872 615.224 242.977 616.56 244.657C617.897 246.336 621.056 248.34 623.445 248.38C625.815 248.421 626.301 248.097 626.686 247.712Z" fill="#EAAD03"/>
<path d="M617.33 235.085C617.39 234.882 617.35 234.741 617.228 234.477C617.168 234.316 617.046 234.154 616.965 234.032C616.884 233.931 616.763 233.891 616.661 233.911C616.418 234.214 616.763 234.66 617.026 234.902C617.168 235.064 617.269 235.085 617.33 235.085Z" fill="#1D164D"/>
<path d="M627.941 246.397C627.901 246.296 627.84 246.195 627.779 246.134C627.577 246.337 627.557 246.6 627.557 246.6L627.577 247.085C627.597 247.085 628.083 246.741 627.941 246.397Z" fill="#1D164D"/>
<path d="M613.786 235.672C613.786 235.672 613.867 234.762 614.09 234.418C614.313 234.094 614.252 233.932 614.11 233.588C614.049 233.426 613.928 233.264 613.847 233.143C613.746 233.001 613.523 232.981 613.401 233.102L613.28 233.224C613.077 233.426 612.996 233.689 613.037 233.972C613.077 234.337 613.077 234.863 612.713 235.268C612.105 235.935 611.234 236.522 611.214 238.242C611.194 239.963 612.085 242.067 613.422 243.747C614.758 245.427 617.917 247.43 620.307 247.471C622.696 247.511 623.182 247.187 623.567 246.803C623.952 246.418 624.215 246.175 624.478 246.175C624.478 246.175 624.964 245.831 624.823 245.487C624.681 245.164 624.438 244.961 624.215 244.88C623.992 244.799 623.81 244.759 623.506 244.516C623.203 244.273 621.299 243.949 619.983 243.545C618.687 243.14 617.431 242.634 616.803 241.136C616.176 239.639 615.426 237.433 614.88 236.664C614.373 235.956 613.786 235.672 613.786 235.672Z" fill="#FED300"/>
<path opacity="0.3" d="M615.244 238.707C615.467 240.913 615.791 241.763 616.459 242.451C617.127 243.139 616.824 242.37 617.168 242.431C617.533 242.492 617.087 243.281 617.573 243.746C618.059 244.212 617.836 243.281 618.282 243.342C618.727 243.402 620.307 244.94 620.935 244.596C621.238 244.434 621.603 244.212 621.988 244.09C621.34 243.929 620.59 243.767 619.983 243.564C618.687 243.16 617.431 242.654 616.803 241.156C616.176 239.659 615.426 237.453 614.88 236.684C614.353 235.915 613.786 235.631 613.786 235.631C613.786 235.631 615.021 236.522 615.244 238.707Z" fill="white"/>
<path d="M623.547 246.822C623.932 246.438 624.195 246.195 624.458 246.195C624.458 246.195 624.762 245.972 624.823 245.729C624.539 245.932 624.175 245.952 623.992 245.81C623.81 245.669 623.81 246.134 623.203 246.357C622.595 246.579 621.684 245.79 620.529 246.215C619.375 246.64 619.395 246.296 619.719 245.729C620.043 245.163 617.188 244.94 615.892 244.576C614.596 244.191 614.475 242.127 612.733 240.326C610.991 238.525 611.842 236.683 612.551 236.218C613.26 235.753 613.604 235.085 613.503 234.356C613.422 233.83 613.867 233.668 614.11 233.607C614.049 233.446 613.928 233.284 613.847 233.162C613.746 233.021 613.523 233 613.401 233.122L613.28 233.243C613.077 233.446 612.996 233.709 613.037 233.992C613.077 234.356 613.077 234.882 612.713 235.287C612.105 235.955 611.234 236.542 611.214 238.262C611.194 239.982 612.085 242.087 613.422 243.766C614.758 245.446 617.917 247.45 620.307 247.49C622.696 247.531 623.162 247.227 623.547 246.822Z" fill="#EAAD03"/>
<path d="M614.211 234.194C614.272 233.992 614.231 233.85 614.11 233.587C614.049 233.425 613.927 233.264 613.846 233.142C613.765 233.041 613.644 233 613.543 233.021C613.3 233.324 613.644 233.769 613.907 234.012C614.049 234.174 614.15 234.194 614.211 234.194Z" fill="#1D164D"/>
<path d="M624.823 245.527C624.782 245.426 624.722 245.325 624.661 245.264C624.458 245.467 624.438 245.73 624.438 245.73L624.458 246.215C624.478 246.195 624.944 245.851 624.823 245.527Z" fill="#1D164D"/>
<path d="M610.485 234.741C610.485 234.741 610.566 233.83 610.789 233.486C611.012 233.163 610.951 233.001 610.809 232.657C610.749 232.495 610.627 232.333 610.546 232.212C610.445 232.07 610.222 232.05 610.1 232.171L609.979 232.292C609.776 232.495 609.695 232.758 609.736 233.041C609.776 233.405 609.776 233.932 609.412 234.336C608.804 235.004 607.934 235.591 607.913 237.311C607.893 239.031 608.784 241.136 610.121 242.816C611.457 244.495 614.616 246.499 617.006 246.539C619.396 246.58 619.882 246.256 620.266 245.872C620.651 245.487 620.914 245.244 621.178 245.244C621.178 245.244 621.664 244.9 621.522 244.556C621.38 244.232 621.137 244.03 620.914 243.949C620.692 243.868 620.509 243.828 620.206 243.585C619.882 243.362 617.998 243.018 616.682 242.613C615.386 242.209 614.13 241.703 613.503 240.205C612.875 238.708 612.126 236.502 611.579 235.733C611.073 235.024 610.485 234.741 610.485 234.741Z" fill="#FED300"/>
<path opacity="0.3" d="M611.943 237.776C612.166 239.982 612.49 240.832 613.158 241.52C613.827 242.208 613.523 241.439 613.867 241.5C614.232 241.561 613.786 242.35 614.272 242.815C614.758 243.281 614.535 242.35 614.981 242.411C615.427 242.471 617.006 244.009 617.634 243.665C617.938 243.503 618.302 243.281 618.687 243.159C618.039 242.997 617.29 242.836 616.682 242.633C615.386 242.228 614.13 241.722 613.503 240.225C612.875 238.727 612.126 236.522 611.579 235.753C611.052 234.984 610.485 234.7 610.485 234.7C610.485 234.7 611.721 235.57 611.943 237.776Z" fill="white"/>
<path d="M620.246 245.891C620.631 245.507 620.894 245.264 621.157 245.264C621.157 245.264 621.461 245.041 621.522 244.798C621.238 245.001 620.874 245.021 620.692 244.879C620.509 244.738 620.509 245.203 619.902 245.426C619.294 245.648 618.383 244.859 617.229 245.284C616.074 245.709 616.095 245.365 616.419 244.798C616.743 244.232 613.887 244.009 612.591 243.645C611.295 243.26 611.174 241.196 609.432 239.395C607.691 237.594 608.541 235.752 609.25 235.287C609.959 234.821 610.303 234.154 610.202 233.425C610.121 232.899 610.566 232.737 610.809 232.676C610.749 232.514 610.627 232.352 610.546 232.231C610.445 232.089 610.222 232.069 610.101 232.191L609.979 232.312C609.776 232.514 609.695 232.777 609.736 233.061C609.776 233.425 609.776 233.951 609.412 234.356C608.804 235.024 607.934 235.611 607.913 237.331C607.893 239.051 608.784 241.156 610.121 242.835C611.457 244.515 614.616 246.518 617.006 246.559C619.396 246.599 619.861 246.276 620.246 245.891Z" fill="#EAAD03"/>
<path d="M610.911 233.263C610.971 233.061 610.931 232.919 610.809 232.656C610.749 232.494 610.627 232.332 610.546 232.211C610.465 232.11 610.344 232.069 610.242 232.09C609.999 232.393 610.344 232.838 610.607 233.081C610.749 233.243 610.85 233.263 610.911 233.263Z" fill="#1D164D"/>
<path d="M621.522 244.576C621.482 244.475 621.421 244.374 621.36 244.313C621.157 244.515 621.137 244.778 621.137 244.778L621.157 245.264C621.157 245.264 621.644 244.92 621.522 244.576Z" fill="#1D164D"/>
<path d="M615.73 233.83C615.325 230.916 612.814 229.358 611.032 229.135C609.25 228.913 605.301 229.257 603.903 231.928C602.506 234.599 602.445 239.517 602.445 239.517L603.539 239.578C603.559 239.072 603.681 235.348 604.754 233.264C605.928 231.017 609.229 230.734 610.728 230.916C612.226 231.098 614.332 232.414 614.677 234.862C615.001 237.129 614.737 239.8 614.677 240.205L615.73 240.266C615.73 240.266 616.135 236.744 615.73 233.83Z" fill="#EE8972"/>
<path d="M600.34 168.363C597.019 161.381 591.045 156.019 583.754 153.469L578.246 151.526L566.359 152.153C566.359 152.153 559.332 153.55 554.33 158.71C550.746 162.413 548.032 179.028 546.777 188.155C546.25 192.041 546.696 196.007 548.113 199.69L555.93 220.13L555.809 222.821C578.327 234.336 598.234 221.141 598.234 221.141L596.816 191.595L601.514 197.241L603.884 207.704C606.516 205.721 609.999 206.631 611.883 207.38L611.943 198.395C611.964 195.602 611.397 192.83 610.263 190.26C608.035 185.221 603.985 176.033 600.34 168.363Z" fill="url(#paint9_linear)"/>
<path d="M566.359 152.173C566.359 152.173 565.994 152.254 565.367 152.416C565.367 152.416 562.997 159.074 564.901 160.835C566.784 162.616 569.336 157.273 569.336 157.273C569.336 157.273 569.984 160.976 573.163 162.555C576.342 164.133 578.246 151.505 578.246 151.505L566.359 152.173Z" fill="white"/>
<path d="M560.426 385.588H522.375C522.375 385.588 521.788 383.301 524.927 381.176C526.871 379.861 535.578 376.744 541.917 374.579C546.048 373.162 548.883 369.358 549.106 365.007H559.494L558.158 372.616C563.646 375.429 560.426 385.588 560.426 385.588Z" fill="url(#paint10_linear)"/>
<path d="M601.332 385.588H563.949C563.949 385.588 563.322 383.18 570.693 380.124C574.338 378.626 579.178 376.319 583.147 374.356C586.792 372.555 589.121 368.953 589.344 365.007H599.611C599.651 369.459 599.671 372.11 599.671 372.11C604.511 376.319 601.332 385.588 601.332 385.588Z" fill="url(#paint11_linear)"/>
<path d="M611.761 231.381C611.295 232.211 610.1 232.98 608.561 232.231C607.022 231.482 607.468 231.24 608.096 230.835C608.723 230.43 608.379 229.135 608.379 229.135C608.116 229.904 606.334 230.835 605.99 230.349C605.645 229.863 606.86 229.479 607.022 228.184C607.184 226.889 608.116 226.484 608.116 226.484L601.514 197.282L603.883 207.744C606.516 205.761 609.999 206.672 611.882 207.421L611.761 226.342C611.761 226.362 612.247 230.552 611.761 231.381Z" fill="url(#paint12_linear)"/>
<path d="M554.33 158.73C554.553 158.507 554.755 158.285 554.978 158.083C554.634 158.467 554.391 158.669 554.33 158.73Z" fill="url(#paint13_linear)"/>
<path d="M566.359 152.173V147.478C566.359 147.478 561.742 148.531 560.932 142.48C560.122 136.429 560.507 127.869 560.507 127.869C560.507 127.869 565.245 132.705 573.467 127.869C573.467 127.869 572.495 132.28 576.14 134.183C576.14 134.183 577.416 131.349 579.441 132.037C581.466 132.746 580.717 136.388 578.226 137.461V151.526L569.296 157.293L566.359 152.173Z" fill="url(#paint14_linear)"/>
<path d="M585.739 151.91C585.496 152.517 585.01 153.104 584.322 153.671C581.061 156.362 573.589 158.305 570.227 156.706C570.227 156.706 570.247 156.706 570.247 156.686C570.268 156.666 570.328 156.625 570.43 156.565C570.47 156.524 570.531 156.504 570.572 156.464C571.321 155.937 573.143 154.46 574.844 151.708C576.545 148.935 578.105 144.847 578.246 139.12C578.267 138.574 578.267 138.028 578.246 137.461C580.717 136.388 581.487 132.725 579.462 132.037C577.436 131.349 576.161 134.182 576.161 134.182C572.516 132.28 573.488 127.869 573.488 127.869C565.266 132.705 560.527 127.869 560.527 127.869C560.527 127.869 560.142 136.429 560.952 142.48C561.763 148.531 566.38 147.478 566.38 147.478V152.173C566.38 152.173 559.96 153.448 555.019 158.082C556.335 156.646 559.089 152.942 558.846 147.053C558.502 139.343 555.141 123.781 560.993 117.224C566.845 110.667 577.963 113.359 579.056 121.028C579.056 121.028 583.066 118.296 585.354 124.145C587.582 129.993 587.157 148.429 585.739 151.91Z" fill="url(#paint15_linear)"/>
<path d="M585.738 151.91C585.495 152.517 585.009 153.104 584.321 153.671C581.061 156.362 573.588 158.305 570.227 156.706C570.227 156.706 570.247 156.707 570.247 156.686C570.267 156.666 570.328 156.626 570.429 156.565C570.47 156.524 570.53 156.504 570.571 156.464C571.32 155.938 573.143 154.46 574.844 151.708C576.322 149.32 577.679 145.961 578.104 141.427C578.793 139.768 579.339 138.048 579.724 136.267C580.615 135.134 580.878 133.616 580.311 132.705C580.413 131.653 580.473 130.58 580.473 129.508C580.473 126.513 580.048 123.619 579.238 120.887C580.149 120.401 583.329 119.187 585.273 124.145C587.581 129.994 587.156 148.43 585.738 151.91Z" fill="url(#paint16_linear)"/>
<path d="M569.275 152.214C567.574 152.477 567.715 150.595 570.206 149.34C572.697 148.085 574.418 143.471 574.418 143.471C570.226 147.417 566.338 147.478 566.338 147.478V152.173L569.315 157.293C568.181 154.339 570.976 151.951 569.275 152.214Z" fill="url(#paint17_linear)"/>
<path d="M552.487 211.144L553.763 214.483L557.712 208.452C559.737 197.403 556.092 190.826 556.092 183.217C556.092 175.587 559.656 168.727 559.656 168.727C559.656 168.727 555.241 176.093 553.723 183.379C552.204 190.664 557.104 196.088 555.849 202.685C554.998 207.117 553.439 209.829 552.487 211.144Z" fill="url(#paint18_linear)"/>
<path d="M557.712 208.453L553.277 213.188L555.93 220.15C555.93 220.15 557.368 213.026 557.712 208.453Z" fill="url(#paint19_linear)"/>
<path d="M533.695 377.473C529.645 378.95 526.06 380.387 524.906 381.176C521.767 383.301 522.355 385.588 522.355 385.588H560.406C560.406 385.588 563.625 375.429 558.117 372.636C558.117 372.636 550.057 379.051 540.843 380.003C532.925 380.812 531.447 379.699 533.695 377.473Z" fill="url(#paint20_linear)"/>
<path d="M599.671 372.11C598.902 376.845 587.804 381.601 580.089 381.095C575.877 380.812 574.905 379.456 574.884 378.282C573.386 378.97 571.968 379.598 570.672 380.124C563.301 383.18 563.929 385.588 563.929 385.588H601.311C601.332 385.588 604.511 376.319 599.671 372.11Z" fill="url(#paint21_linear)"/>
<path d="M589.343 363.955C589.364 364.319 589.364 364.663 589.343 365.007H589.323C589.343 364.663 589.364 364.299 589.343 363.955Z" fill="url(#paint22_linear)"/>
<path d="M575.897 270.601L570.247 235.732L571.685 294.825L575.897 270.601Z" fill="#1D164D"/>
<path d="M564.597 226.221C562.957 230.127 559.494 233.061 555.282 233.972L555.808 222.841C558.785 224.379 561.742 225.472 564.597 226.221Z" fill="#1D164D"/>
<path d="M569.113 164.457C569.817 164.457 570.389 163.886 570.389 163.182C570.389 162.478 569.817 161.907 569.113 161.907C568.408 161.907 567.837 162.478 567.837 163.182C567.837 163.886 568.408 164.457 569.113 164.457Z" fill="white"/>
<path d="M568.303 179.878C569.008 179.878 569.579 179.307 569.579 178.603C569.579 177.899 569.008 177.328 568.303 177.328C567.599 177.328 567.027 177.899 567.027 178.603C567.027 179.307 567.599 179.878 568.303 179.878Z" fill="white"/>
<path d="M568.303 197.747C569.008 197.747 569.579 197.176 569.579 196.472C569.579 195.768 569.008 195.197 568.303 195.197C567.599 195.197 567.027 195.768 567.027 196.472C567.027 197.176 567.599 197.747 568.303 197.747Z" fill="white"/>
<path d="M593.839 233.688C593.839 233.688 594.608 231.705 596.168 231.482C597.727 231.26 599.57 231.482 599.57 231.482C599.57 231.482 598.983 233.061 597.504 234.154C596.046 235.267 594.426 235.044 593.981 234.74C593.535 234.437 593.839 233.688 593.839 233.688Z" fill="url(#paint23_linear)"/>
<path d="M599.57 246.033C599.57 246.033 601.777 243.523 601.473 239.496C601.17 235.469 598.679 235.003 597.464 235.307C596.249 235.59 594.608 236.278 593.231 235.813C591.854 235.347 590.275 234.336 588.594 235.388C586.913 236.44 586.508 238.95 586.731 241.135C586.974 243.321 588.553 246.033 589.525 246.761L599.57 246.033Z" fill="url(#paint24_linear)"/>
<path opacity="0.3" d="M588.615 235.388C589.425 234.882 590.214 234.842 590.964 235.004C590.133 235.671 591.288 237.614 590.943 238.1C590.538 238.687 589.607 237.331 589.87 238.667C590.113 240.002 590.356 240.549 589.607 240.589C588.858 240.609 589.242 241.824 590.194 244.07C590.923 245.75 592.887 246.296 593.839 246.478L589.566 246.782C588.594 246.073 586.994 243.341 586.772 241.156C586.529 238.95 586.934 236.44 588.615 235.388Z" fill="url(#paint25_linear)"/>
<path d="M588.594 241.155H588.614C588.736 241.135 588.817 241.034 588.817 240.913C588.695 239.698 588.817 238.565 589.161 237.837C589.222 237.735 589.161 237.594 589.06 237.533C588.958 237.472 588.817 237.533 588.756 237.634C588.371 238.444 588.229 239.658 588.371 240.953C588.391 241.074 588.493 241.155 588.594 241.155Z" fill="white"/>
<path d="M596.31 246.276C596.613 245.952 596.755 245.365 597.302 245.486C598.071 245.669 597.383 244.859 597.808 244.191C598.233 243.523 598.719 244.373 599.469 243.867C600.198 243.361 598.254 241.297 598.881 240.933C599.509 240.549 599.55 242.228 600.319 241.601C600.866 241.176 600.866 238.505 600.825 236.946C601.17 237.574 601.413 238.403 601.494 239.496C601.797 243.523 599.59 246.033 599.59 246.033L596.31 246.276Z" fill="#6AD419"/>
<path d="M589.607 237.169C589.647 237.169 589.688 237.149 589.728 237.128C589.89 237.027 590.032 236.987 590.194 236.987C590.315 236.987 590.417 236.886 590.417 236.764C590.417 236.643 590.315 236.542 590.194 236.542C589.931 236.542 589.728 236.602 589.485 236.764C589.384 236.825 589.343 236.966 589.424 237.068C589.465 237.128 589.526 237.169 589.607 237.169Z" fill="white"/>
<path d="M593.839 236.056C593.839 236.056 594.79 236.036 595.783 235.752C596.775 235.489 596.998 236.056 595.317 236.501C593.636 236.946 592.664 236.764 591.814 236.279C590.943 235.773 591.186 235.57 591.733 235.53C592.259 235.469 592.907 236.137 593.839 236.056Z" fill="#6AD419"/>
<path d="M593.657 236.319C593.657 236.319 593.839 236.521 593.981 236.319C593.981 236.319 594.122 235.206 593.92 234.032C593.798 233.384 593.596 232.939 593.434 232.656C593.312 232.474 593.069 232.433 592.907 232.555H592.887C592.725 232.676 592.684 232.899 592.806 233.081C592.988 233.324 593.231 233.708 593.414 234.295C593.758 235.368 593.657 236.319 593.657 236.319Z" fill="url(#paint26_linear)"/>
<path d="M568.303 215.576C569.008 215.576 569.579 215.005 569.579 214.301C569.579 213.597 569.008 213.026 568.303 213.026C567.599 213.026 567.027 213.597 567.027 214.301C567.027 215.005 567.599 215.576 568.303 215.576Z" fill="white"/>
<path d="M568.85 163.142C567.554 173.523 567.979 221.04 568.04 226.949C568.202 226.969 568.384 227.01 568.546 227.03C568.485 221.546 568.04 173.624 569.356 163.202L568.85 163.142Z" fill="white"/>
<path opacity="0.5" d="M598.091 218.268C576.079 229.762 555.93 220.15 555.93 220.15L555.808 222.841C578.327 234.356 598.233 221.161 598.233 221.161L598.091 218.268Z" fill="white"/>
<path d="M591.126 195.622C589.506 203.373 598.538 204.142 593.576 211.124C588.939 217.66 596.108 221.87 581.588 227.071C591.571 225.573 598.234 221.161 598.234 221.161L596.816 191.615L585.436 178.583C585.436 178.603 592.746 187.871 591.126 195.622Z" fill="url(#paint27_linear)"/>
<path d="M630.634 279.161C610.688 283.006 594.528 279.808 588.837 278.372C587.521 278.028 586.549 276.914 586.407 275.559C585.597 267.767 582.863 241.864 582.661 240.285C582.397 238.424 583.43 236.946 589.08 237.857C594.73 238.788 602.466 239.516 602.466 239.516L603.559 239.577C603.559 239.577 615.669 240.225 625.653 239.658C635.636 239.091 638.431 236.825 639.707 240.265C640.8 243.22 634.988 269.143 633.247 276.672C632.902 277.947 631.89 278.918 630.634 279.161Z" fill="url(#paint28_linear)"/>
<path opacity="0.5" d="M447.164 394.249C482.606 394.249 511.338 390.671 511.338 386.256C511.338 381.841 482.606 378.262 447.164 378.262C411.721 378.262 382.99 381.841 382.99 386.256C382.99 390.671 411.721 394.249 447.164 394.249Z" fill="#9FEBE1"/>
<path d="M491.918 67.8656C491.918 67.8656 491.27 61.8754 496.515 60.904C501.76 59.9326 503.643 65.5181 503.116 69.4238C502.59 73.3296 501.841 77.0937 505.364 77.6401C505.364 77.6401 503.116 79.34 499.471 78.8341C495.826 78.3282 494.976 74.989 494.976 74.989L489.933 72.8237L491.918 67.8656Z" fill="url(#paint29_linear)"/>
<path d="M498.519 60.8635C497.912 60.7623 497.243 60.7623 496.514 60.9039C491.249 61.8753 491.917 67.8655 491.917 67.8655L489.953 72.8033L494.996 74.9687C494.996 74.9687 495.846 78.3078 499.491 78.8138C500.261 78.915 500.969 78.9352 501.618 78.8745C494.591 70.8808 497.041 63.7169 498.519 60.8635Z" fill="url(#paint30_linear)"/>
<path d="M472.72 67.1777C472.72 67.1777 470.776 72.0548 466.301 72.5C461.826 72.9452 460.206 69.0597 460.206 69.0597C460.206 69.0597 464.661 69.4037 465.511 65.7813C466.362 62.1589 464.802 57.7269 470.27 56.6139C475.738 55.5009 475.799 61.7541 475.11 63.1707C474.401 64.5873 472.72 67.1777 472.72 67.1777Z" fill="url(#paint31_linear)"/>
<path d="M471.768 56.4922C474.988 67.6226 465.531 72.3378 465.167 72.4997C465.531 72.52 465.896 72.52 466.301 72.4795C470.776 72.0343 472.72 67.1571 472.72 67.1571C472.72 67.1571 474.401 64.5668 475.089 63.1502C475.717 61.9157 475.737 56.735 471.768 56.4922Z" fill="url(#paint32_linear)"/>
<path d="M476.406 64.5263L475.11 63.1704C475.11 63.1704 472.032 64.3846 470.938 66.7726L472.559 68.3916L476.406 64.5263Z" fill="url(#paint33_linear)"/>
<path d="M490.784 68.4121L491.898 67.8657C491.898 67.8657 495.158 70.6382 495.867 73.1071L494.753 74.3821L490.764 73.8357V68.4121H490.784Z" fill="url(#paint34_linear)"/>
<path d="M474.38 78.9151C474.38 78.9151 469.986 73.8963 472.011 68.5537C474.036 63.2111 481.792 61.8148 487.199 64.4861C492.606 67.1574 492.1 72.8642 492.1 72.8642C492.1 72.8642 495.745 72.4797 495.866 77.4378C495.988 82.3959 489.345 86.2005 488.92 89.4182L474.38 78.9151Z" fill="url(#paint35_linear)"/>
<path d="M495.867 77.4577C495.988 82.4158 489.346 86.2203 488.921 89.438L478.37 81.8087C484.486 80.8575 489.164 75.5756 489.164 69.1807C489.164 67.8248 488.941 66.5297 488.556 65.3154C492.505 68.1689 492.08 72.8639 492.08 72.8639C492.08 72.8639 495.745 72.4996 495.867 77.4577Z" fill="#C2272D"/>
<path d="M479.889 95.9139V91.907C479.889 91.907 475.312 92.676 474.745 87.4953C474.178 82.3146 474.421 73.3091 474.421 73.3091C474.421 73.3091 478.431 76.7899 486.066 73.3091C486.066 73.3091 485.782 75.434 487.443 77.1137C489.103 78.8136 488.597 79.5219 488.597 79.5219C488.597 79.5219 490.46 77.397 492.08 78.7124C493.7 80.0278 491.999 82.9419 490.136 84.0145L489.994 96.3389L489.123 99.3745C489.123 99.3745 483.271 104.575 479.646 102.612C476.021 100.649 477.155 96.602 479.889 95.9139Z" fill="url(#paint36_linear)"/>
<path d="M509.131 218.045C507.531 221.607 503.825 223.772 500.058 223.772C497.932 223.772 495.765 223.084 493.963 221.526C493.396 221.04 492.849 220.473 492.363 219.806L492.505 225.978C492.505 225.978 462.008 233.972 441.635 224.258L443.964 196.088C443.964 196.088 433.11 211.63 425.86 215.697C418.61 219.765 410.085 210.355 418.104 197.282C421.506 191.716 427.379 183.581 433.029 176.033C434.143 174.535 435.256 173.058 436.35 171.641C437.504 170.123 438.638 168.646 439.691 167.27C440.906 165.692 442.04 164.234 443.033 162.939C444.41 161.158 445.564 159.681 446.394 158.629C447.326 157.435 447.852 156.767 447.852 156.767L450.444 155.431L459.496 150.797L473.49 150.736L482.906 154.541L487.625 156.443L492.343 158.345L494.206 159.094C495.178 159.479 496.089 159.964 496.96 160.491C498.479 161.442 499.836 162.595 500.99 163.931C502.286 165.408 503.319 167.108 504.068 168.95C504.655 170.407 505.06 171.945 505.243 173.544L509.92 212.824C510.123 214.767 509.819 216.527 509.131 218.045Z" fill="url(#paint37_linear)"/>
<path d="M473.469 150.716L478.167 152.619C477.803 153.509 477.195 154.298 476.385 154.865L466.442 161.847C465.571 162.454 464.559 162.778 463.506 162.778C463.141 162.778 462.777 162.737 462.432 162.656C461.035 162.353 459.84 161.482 459.132 160.248L455.081 153.327C455.041 153.246 455 153.165 454.96 153.084L459.476 150.757L473.469 150.716Z" fill="white"/>
<path opacity="0.5" d="M482.906 154.521C482.177 156.342 480.942 157.901 479.342 159.014L469.399 165.995C467.678 167.21 465.653 167.837 463.547 167.837C462.818 167.837 462.089 167.756 461.38 167.614C458.606 167.007 456.196 165.247 454.758 162.798L450.708 155.877C450.607 155.715 450.546 155.573 450.465 155.411C450.465 155.391 450.445 155.391 450.445 155.391L447.853 156.727C447.853 156.727 447.326 157.395 446.394 158.589L450.364 165.368C452.51 169.051 456.135 171.682 460.286 172.593C461.339 172.815 462.453 172.937 463.526 172.937C466.686 172.937 469.723 171.986 472.295 170.164L482.238 163.182C484.628 161.503 486.491 159.176 487.584 156.444L482.906 154.521ZM482.906 154.521C482.177 156.342 480.942 157.901 479.342 159.014L469.399 165.995C467.678 167.21 465.653 167.837 463.547 167.837C462.818 167.837 462.089 167.756 461.38 167.614C458.606 167.007 456.196 165.247 454.758 162.798L450.708 155.877C450.607 155.715 450.546 155.573 450.465 155.411C450.465 155.391 450.445 155.391 450.445 155.391L447.853 156.727C447.853 156.727 447.326 157.395 446.394 158.589L450.364 165.368C452.51 169.051 456.135 171.682 460.286 172.593C461.339 172.815 462.453 172.937 463.526 172.937C466.686 172.937 469.723 171.986 472.295 170.164L482.238 163.182C484.628 161.503 486.491 159.176 487.584 156.444L482.906 154.521ZM494.186 159.095L492.323 158.346C490.845 161.988 488.374 165.085 485.174 167.331L475.231 174.313C471.789 176.741 467.739 178.016 463.526 178.016C462.068 178.016 460.61 177.854 459.193 177.551C453.644 176.337 448.825 172.836 445.969 167.938L443.033 162.919C442.02 164.215 440.907 165.692 439.692 167.25L441.575 170.488C445.159 176.62 451.174 181.011 458.12 182.509C459.902 182.893 461.724 183.096 463.547 183.096C468.812 183.096 473.875 181.497 478.188 178.461L488.131 171.48C492.06 168.727 495.117 164.923 496.96 160.491C496.069 159.965 495.158 159.479 494.186 159.095ZM460.286 172.593C461.339 172.815 462.453 172.937 463.526 172.937C466.686 172.937 469.723 171.986 472.295 170.164L482.238 163.182C484.628 161.503 486.491 159.176 487.584 156.444L482.866 154.541C482.137 156.363 480.901 157.921 479.302 159.034L469.359 166.016C467.637 167.23 465.612 167.857 463.506 167.857C462.777 167.857 462.048 167.776 461.339 167.635C458.565 167.028 456.155 165.267 454.717 162.818L450.667 155.897C450.566 155.735 450.505 155.594 450.424 155.432C450.424 155.411 450.404 155.411 450.404 155.411L447.812 156.747C447.812 156.747 447.285 157.415 446.354 158.609L450.323 165.388C452.49 169.051 456.115 171.682 460.286 172.593ZM494.186 159.095L492.323 158.346C490.845 161.988 488.374 165.085 485.174 167.331L475.231 174.313C471.789 176.741 467.739 178.016 463.526 178.016C462.068 178.016 460.61 177.854 459.193 177.551C453.644 176.337 448.825 172.836 445.969 167.938L443.033 162.919C442.02 164.215 440.907 165.692 439.692 167.25L441.575 170.488C445.159 176.62 451.174 181.011 458.12 182.509C459.902 182.893 461.724 183.096 463.547 183.096C468.812 183.096 473.875 181.497 478.188 178.461L488.131 171.48C492.06 168.727 495.117 164.923 496.96 160.491C496.069 159.965 495.158 159.479 494.186 159.095ZM460.286 172.593C461.339 172.815 462.453 172.937 463.526 172.937C466.686 172.937 469.723 171.986 472.295 170.164L482.238 163.182C484.628 161.503 486.491 159.176 487.584 156.444L482.866 154.541C482.137 156.363 480.901 157.921 479.302 159.034L469.359 166.016C467.637 167.23 465.612 167.857 463.506 167.857C462.777 167.857 462.048 167.776 461.339 167.635C458.565 167.028 456.155 165.267 454.717 162.818L450.667 155.897C450.566 155.735 450.505 155.594 450.424 155.432C450.424 155.411 450.404 155.411 450.404 155.411L447.812 156.747C447.812 156.747 447.285 157.415 446.354 158.609L450.323 165.388C452.49 169.051 456.115 171.682 460.286 172.593ZM500.97 163.931C498.722 168.626 495.32 172.633 491.047 175.649L481.104 182.63C475.94 186.273 469.865 188.175 463.547 188.175C461.36 188.175 459.173 187.932 457.046 187.487C448.723 185.666 441.474 180.404 437.201 173.058L436.37 171.642C435.297 173.058 434.183 174.535 433.049 176.033C438.092 184.391 446.415 190.361 455.973 192.445C458.464 192.992 461.015 193.255 463.567 193.255C470.938 193.255 478.026 191.008 484.04 186.779L493.983 179.797C498.094 176.903 501.517 173.22 504.068 168.93C503.299 167.108 502.246 165.429 500.97 163.931ZM458.099 182.529C459.881 182.914 461.704 183.116 463.526 183.116C468.792 183.116 473.854 181.517 478.168 178.482L488.111 171.5C492.039 168.748 495.097 164.943 496.94 160.511C496.069 159.965 495.158 159.499 494.186 159.115L492.323 158.366C490.845 162.009 488.374 165.105 485.174 167.351L475.231 174.333C471.789 176.762 467.739 178.037 463.526 178.037C462.068 178.037 460.61 177.875 459.193 177.571C453.644 176.357 448.825 172.856 445.969 167.958L443.033 162.94C442.02 164.235 440.907 165.712 439.692 167.27L441.575 170.508C445.139 176.62 451.174 181.011 458.099 182.529ZM460.286 172.593C461.339 172.815 462.453 172.937 463.526 172.937C466.686 172.937 469.723 171.986 472.295 170.164L482.238 163.182C484.628 161.503 486.491 159.176 487.584 156.444L482.866 154.541C482.137 156.363 480.901 157.921 479.302 159.034L469.359 166.016C467.637 167.23 465.612 167.857 463.506 167.857C462.777 167.857 462.048 167.776 461.339 167.635C458.565 167.028 456.155 165.267 454.717 162.818L450.667 155.897C450.566 155.735 450.505 155.594 450.424 155.432C450.424 155.411 450.404 155.411 450.404 155.411L447.812 156.747C447.812 156.747 447.285 157.415 446.354 158.609L450.323 165.388C452.49 169.051 456.115 171.682 460.286 172.593ZM482.906 154.521C482.177 156.342 480.942 157.901 479.342 159.014L469.399 165.995C467.678 167.21 465.653 167.837 463.547 167.837C462.818 167.837 462.089 167.756 461.38 167.614C458.606 167.007 456.196 165.247 454.758 162.798L450.708 155.877C450.607 155.715 450.546 155.573 450.465 155.411C450.465 155.391 450.445 155.391 450.445 155.391L447.853 156.727C447.853 156.727 447.326 157.395 446.394 158.589L450.364 165.368C452.51 169.051 456.135 171.682 460.286 172.593C461.339 172.815 462.453 172.937 463.526 172.937C466.686 172.937 469.723 171.986 472.295 170.164L482.238 163.182C484.628 161.503 486.491 159.176 487.584 156.444L482.906 154.521ZM482.906 154.521C482.177 156.342 480.942 157.901 479.342 159.014L469.399 165.995C467.678 167.21 465.653 167.837 463.547 167.837C462.818 167.837 462.089 167.756 461.38 167.614C458.606 167.007 456.196 165.247 454.758 162.798L450.708 155.877C450.607 155.715 450.546 155.573 450.465 155.411C450.465 155.391 450.445 155.391 450.445 155.391L447.853 156.727C447.853 156.727 447.326 157.395 446.394 158.589L450.364 165.368C452.51 169.051 456.135 171.682 460.286 172.593C461.339 172.815 462.453 172.937 463.526 172.937C466.686 172.937 469.723 171.986 472.295 170.164L482.238 163.182C484.628 161.503 486.491 159.176 487.584 156.444L482.906 154.521Z" fill="white"/>
<path d="M473.469 150.716L478.167 152.619C477.803 153.509 477.195 154.298 476.385 154.865L466.442 161.847C465.571 162.454 464.559 162.778 463.506 162.778C463.141 162.778 462.777 162.737 462.432 162.656C461.035 162.353 459.84 161.482 459.132 160.248L455.081 153.327C455.041 153.246 455 153.165 454.96 153.084L459.476 150.757L473.469 150.716Z" fill="white"/>
<path d="M473.469 150.716L478.167 152.619C477.803 153.509 477.195 154.298 476.385 154.865L466.442 161.847C465.571 162.454 464.559 162.778 463.506 162.778C463.141 162.778 462.777 162.737 462.432 162.656C461.035 162.353 459.84 161.482 459.132 160.248L455.081 153.327C455.041 153.246 455 153.165 454.96 153.084L459.476 150.757L473.469 150.716Z" fill="white"/>
<path d="M473.469 150.716L478.167 152.619C477.803 153.509 477.195 154.298 476.385 154.865L466.442 161.847C465.571 162.454 464.559 162.778 463.506 162.778C463.141 162.778 462.777 162.737 462.432 162.656C461.035 162.353 459.84 161.482 459.132 160.248L455.081 153.327C455.041 153.246 455 153.165 454.96 153.084L459.476 150.757L473.469 150.716Z" fill="white"/>
<path d="M473.469 150.716L478.167 152.619C477.803 153.509 477.195 154.298 476.385 154.865L466.442 161.847C465.571 162.454 464.559 162.778 463.506 162.778C463.141 162.778 462.777 162.737 462.432 162.656C461.035 162.353 459.84 161.482 459.132 160.248L455.081 153.327C455.041 153.246 455 153.165 454.96 153.084L459.476 150.757L473.469 150.716Z" fill="white"/>
<path d="M478.188 152.618C477.823 153.509 477.216 154.298 476.406 154.865L466.463 161.846C465.592 162.454 464.579 162.777 463.526 162.777C463.162 162.777 462.797 162.737 462.453 162.656C461.056 162.352 459.861 161.482 459.152 160.248L455.102 153.327C455.061 153.246 455.021 153.165 454.98 153.084L459.496 150.757L473.49 150.696L478.188 152.618Z" fill="white"/>
<path d="M478.188 152.618C477.823 153.509 477.216 154.298 476.406 154.865L466.463 161.846C465.592 162.454 464.579 162.777 463.526 162.777C463.162 162.777 462.797 162.737 462.453 162.656C461.056 162.352 459.861 161.482 459.152 160.248L455.102 153.327C455.061 153.246 455.021 153.165 454.98 153.084L459.496 150.757L473.49 150.696L478.188 152.618Z" fill="white"/>
<path d="M481.286 100.953C479.383 99.3343 483.696 98.545 482.299 97.5736C480.901 96.6023 480.314 95.7118 482.926 94.3559C485.559 93.0001 487.503 88.7705 487.503 88.7705C484.587 91.887 479.869 91.9073 479.869 91.9073V95.9142C477.358 96.5416 476.203 100.002 478.836 102.087C480.679 102.026 482.258 101.763 481.286 100.953Z" fill="url(#paint38_linear)"/>
<path d="M454.758 86.7265C454.758 86.7265 454.272 87.9812 453.057 89.5395C451.842 91.0977 449.918 92.9596 447.002 94.1738C446.212 93.2631 445.544 92.2513 445.078 91.118L435.054 68.1893C435.054 68.1893 431.733 62.786 432.28 59.6493C432.826 56.5125 436.208 55.0757 437.018 58.1315C437.808 61.1873 439.469 62.7456 439.469 62.7456C439.469 62.7456 440.198 60.4588 441.048 60.3374C441.919 60.2159 441.048 61.5921 441.635 62.867C442.223 64.1419 441.575 66.1656 440.704 66.6716L454.272 86.5849L454.758 86.7265Z" fill="url(#paint39_linear)"/>
<path d="M440.988 184.148C440.38 188.033 441.453 189.571 440.34 191.676C440.198 191.939 440.016 192.222 439.793 192.526C437.484 195.582 442.79 195.825 437.444 202.26C436.391 203.555 435.844 205.073 435.641 206.712C433.515 209.161 431.227 211.569 429.06 213.411L440.4 184.552L440.603 184.047L441.575 181.578C441.271 182.549 441.089 183.399 440.988 184.148Z" fill="url(#paint40_linear)"/>
<path d="M498.074 139.464C498.074 139.545 498.074 139.626 498.074 139.687C497.811 151.526 497.102 155.35 489.893 158.73C482.683 162.11 476.021 165.125 476.021 165.125L468.022 199.305L464.539 198.637L464.782 162.13C464.843 159.357 466.118 156.747 468.245 154.986L473.449 150.716L461.501 149.643L459.476 150.797L451.639 171.358L448.055 180.768L443.458 192.85L440.319 191.716L439.772 191.514L440.38 184.593L441.555 181.618C441.251 181.598 440.947 181.537 440.663 181.436L441.575 171.014L442.729 157.92C442.932 155.715 443.944 153.671 445.564 152.173L455.993 142.601L459.051 134.162C460.367 137.056 461.218 138.877 461.218 138.877C461.218 138.877 473.287 144.908 476.527 141.225C476.527 141.225 477.904 143.087 479.95 142.601C481.975 142.115 482.177 141.286 482.177 141.286C482.177 141.286 484.304 143.552 487.098 142.561C489.893 141.569 489.852 140.598 489.852 140.598C489.852 140.598 491.796 142.075 493.72 141.407C495.624 140.739 495.664 139.505 495.664 139.505C495.664 139.505 496.96 139.95 498.074 139.464Z" fill="url(#paint41_linear)"/>
<path d="M547.04 83.4278C545.359 85.836 540.297 88.0621 540.297 88.0621L520.066 107.712C518.851 108.886 517.353 109.675 515.733 109.999C514.619 107.53 512.837 102.815 512.594 97.8771L515.895 98.0997L535.862 85.2086C535.862 85.2086 534.849 83.5492 536.348 81.91C537.846 80.2505 537.117 78.5911 537.765 78.0649C538.393 77.5388 539.487 79.2994 539.426 81.5457C539.426 81.5457 543.233 78.753 545.744 78.2471C548.215 77.7007 548.721 81.0196 547.04 83.4278Z" fill="url(#paint42_linear)"/>
<path d="M515.733 109.999C515.165 110.12 514.598 110.181 514.011 110.181H499.127C499.127 110.181 498.762 118.155 498.459 126.978C498.418 128.091 498.378 129.224 498.337 130.357C498.337 130.519 498.317 130.681 498.317 130.843C498.276 131.754 498.256 132.644 498.236 133.535C498.175 135.599 498.114 137.602 498.074 139.464C496.94 139.97 495.644 139.464 495.644 139.464C495.644 139.464 495.603 140.699 493.7 141.366C491.796 142.034 489.832 140.557 489.832 140.557C489.832 140.557 489.872 141.528 487.078 142.52C484.283 143.491 482.157 141.245 482.157 141.245C482.157 141.245 481.954 142.075 479.929 142.56C477.904 143.046 476.507 141.184 476.507 141.184C473.267 144.867 461.198 138.837 461.198 138.837C461.198 138.837 460.327 137.015 459.031 134.122L465.916 115.2L465.146 105.162L450.161 96.7437C450.019 96.6627 449.857 96.5615 449.716 96.4806C448.703 95.8532 447.771 95.064 447.002 94.1533C449.898 92.9391 451.842 91.0773 453.057 89.519C454.272 87.9608 454.758 86.7061 454.758 86.7061L457.877 87.8596L479.909 95.9139C479.909 95.9139 477.236 98.6257 479.909 100.447C482.582 102.268 488.718 99.0507 489.994 96.3389L509.799 97.6746L512.594 97.8567C512.816 102.815 514.619 107.53 515.733 109.999Z" fill="url(#paint43_linear)"/>
<g opacity="0.5">
<path opacity="0.5" d="M475.798 119.531C475.312 118.539 474.765 117.588 474.36 116.576C474.097 115.928 473.976 115.2 473.935 114.512C473.814 112.771 474.705 111.638 476.406 111.335C477.945 111.072 479.484 111.193 480.962 111.739C482.785 112.407 483.473 113.682 483.028 115.605C482.744 116.839 482.299 118.053 481.934 119.288C481.873 119.51 481.813 119.713 481.813 119.976C482.096 119.632 482.359 119.288 482.643 118.984C483.696 117.851 484.85 116.859 486.369 116.455C487.564 116.131 488.637 116.353 489.346 117.406C490.541 119.187 491.006 121.19 490.642 123.315C490.439 124.529 489.589 125.258 488.414 125.46C487.382 125.642 486.308 125.662 485.275 125.723C484.587 125.764 483.898 125.723 483.21 125.723C484.141 126.189 485.073 126.614 485.944 127.12C486.956 127.727 487.827 128.496 488.293 129.609C488.637 130.438 488.637 131.309 488.07 132.017C487.584 132.644 486.977 133.211 486.329 133.697C485.437 134.385 484.425 134.891 483.291 135.133C481.853 135.437 480.739 135.012 480.031 133.717C479.565 132.847 479.241 131.895 478.876 130.965C478.613 130.277 478.411 129.568 478.127 128.9C478.046 129.629 478.005 130.357 477.884 131.066C477.681 132.26 477.317 133.413 476.547 134.385C475.656 135.518 474.543 135.882 473.226 135.316C471.444 134.547 470.027 133.312 469.116 131.592C468.508 130.438 468.67 129.285 469.581 128.374C470.472 127.504 471.485 126.755 472.457 125.966C472.842 125.662 473.247 125.379 473.753 124.995C472.943 125.177 472.275 125.359 471.586 125.46C470.371 125.642 469.156 125.683 467.961 125.258C466.402 124.711 465.734 123.517 466.017 121.898C466.341 120.138 466.989 118.539 468.285 117.264C469.095 116.455 470.067 116.272 471.161 116.616C472.234 116.961 473.105 117.628 473.996 118.276C474.603 118.681 475.211 119.106 475.798 119.531ZM481.934 123.558C481.934 121.595 480.355 120.016 478.411 120.016C476.446 120.016 474.846 121.615 474.846 123.578C474.846 125.521 476.487 127.16 478.431 127.14C480.375 127.12 481.934 125.501 481.934 123.558Z" fill="white"/>
</g>
<g opacity="0.5">
<path opacity="0.5" d="M498.155 130.358C498.216 130.358 498.277 130.358 498.337 130.338C498.378 129.204 498.418 128.071 498.459 126.958C497.953 127.12 497.548 127.464 497.183 127.869C497.061 127.99 496.98 128.111 496.879 128.233C496.879 128.132 496.899 128.051 496.92 127.97C497.061 127.525 497.223 127.059 497.325 126.614C497.487 125.906 497.224 125.42 496.555 125.177C496.008 124.975 495.441 124.934 494.874 125.015C494.247 125.137 493.923 125.541 493.963 126.189C493.983 126.452 494.024 126.715 494.125 126.958C494.267 127.322 494.469 127.686 494.652 128.051C494.429 127.889 494.206 127.727 493.983 127.585C493.639 127.342 493.335 127.1 492.93 126.978C492.525 126.837 492.161 126.917 491.857 127.221C491.391 127.686 491.148 128.294 491.027 128.941C490.926 129.548 491.169 129.973 491.736 130.196C492.181 130.358 492.627 130.338 493.072 130.277C493.335 130.236 493.578 130.176 493.862 130.095C493.68 130.236 493.518 130.338 493.376 130.459C493.011 130.742 492.647 131.026 492.323 131.349C491.979 131.673 491.918 132.118 492.141 132.543C492.485 133.171 493.011 133.636 493.659 133.919C494.145 134.142 494.55 134 494.895 133.575C495.178 133.211 495.32 132.786 495.381 132.341C495.441 132.078 495.441 131.815 495.482 131.552C495.583 131.795 495.664 132.058 495.765 132.321C495.907 132.665 496.008 133.009 496.191 133.333C496.454 133.818 496.859 133.96 497.406 133.859C497.689 133.798 497.973 133.677 498.216 133.535C498.236 132.645 498.277 131.754 498.297 130.843C497.993 130.661 497.669 130.52 497.365 130.378C497.649 130.358 497.912 130.378 498.155 130.358ZM495.624 130.904C494.915 130.904 494.287 130.317 494.287 129.589C494.287 128.86 494.874 128.273 495.603 128.273C496.332 128.273 496.899 128.86 496.899 129.589C496.92 130.297 496.332 130.884 495.624 130.904Z" fill="white"/>
</g>
<path d="M489.974 96.3394L512.573 97.8774L489.974 96.3394Z" fill="url(#paint44_linear)"/>
<path d="M495.826 373.81H484.81L465.39 264.874L440.724 376.178H429.02L441.615 224.258C461.988 233.951 492.485 225.978 492.485 225.978L495.826 373.81Z" fill="url(#paint45_linear)"/>
<path d="M452.186 130.014C452.186 130.014 445.584 125.865 442.607 116.293C439.631 106.721 443.782 101.722 450.303 105.527C456.844 109.331 460.651 110.525 467.09 109.513C473.53 108.502 476.831 112.488 475.474 118.236C475.474 118.236 481.914 118.742 480.638 126.614C479.362 134.486 472.254 135.518 471.323 141.346C470.391 147.175 457.087 128.901 457.087 128.901L452.186 130.014Z" fill="url(#paint46_linear)"/>
<path d="M470.108 109.413C470.452 109.453 470.796 109.514 471.1 109.595C470.776 109.514 470.452 109.453 470.108 109.413Z" fill="url(#paint47_linear)"/>
<path d="M480.658 126.634C479.383 134.506 472.275 135.538 471.343 141.366C470.513 146.547 459.942 132.725 457.573 129.548C464.701 125.359 469.824 118.094 471.12 109.594C474.846 110.464 476.548 113.844 475.495 118.235C475.495 118.235 481.934 118.762 480.658 126.634Z" fill="#1D164D"/>
<path d="M450.525 121.676C450.525 121.676 460.448 128.475 468.386 121.676C468.386 121.676 466.28 126.877 470.958 129.852C470.958 129.852 471.505 125.541 474.725 126.33C477.944 127.12 476.466 132.543 473.469 134.324V150.716L463.526 157.698L459.476 150.777V147.478C459.476 147.478 453.745 148.753 452.044 144.685C450.343 140.597 450.019 126.431 450.525 121.676Z" fill="url(#paint48_linear)"/>
<path d="M464.478 152.841C464.215 151.222 461.258 151.404 463.709 149.967C466.159 148.53 468.63 142.561 468.63 142.561C465.329 146.203 459.497 147.478 459.497 147.478V150.777L463.547 157.698C462.433 155.047 464.721 154.46 464.478 152.841Z" fill="url(#paint49_linear)"/>
<path d="M444.45 381.581C444.45 381.804 444.43 382.026 444.389 382.229C444.045 384.131 442.385 385.588 440.38 385.588H402.936C401.377 385.588 400.263 384.455 400.041 383.139C399.899 382.35 400.081 381.48 400.689 380.772C402.025 379.193 404.253 377.695 408.04 377.088C417.456 375.571 424.949 373.142 426.144 369.257C427.338 365.371 429.951 365.007 429.951 365.007C429.951 365.007 431.915 371.806 436.309 373.061C440.724 374.336 442.081 370.026 442.081 370.026C442.081 370.026 444.106 369.661 444.369 372.717C444.531 374.478 444.511 378.485 444.45 381.581Z" fill="url(#paint50_linear)"/>
<path d="M497.73 381.581C497.73 381.804 497.71 382.026 497.669 382.229C497.325 384.131 495.664 385.588 493.639 385.588H456.216C454.313 385.588 453.057 383.888 453.3 382.229C453.381 381.723 453.584 381.217 453.968 380.772C455.305 379.193 457.532 377.695 461.34 377.088C470.756 375.571 478.249 373.142 479.444 369.257C480.638 365.371 483.251 365.007 483.251 365.007C483.251 365.007 485.195 371.806 489.609 373.061C494.024 374.336 495.745 370.026 495.745 370.026C495.745 370.026 497.406 369.661 497.649 372.717C497.811 374.478 497.791 378.485 497.73 381.581Z" fill="url(#paint51_linear)"/>
<path d="M400.041 382.229H444.39C444.046 384.131 442.385 385.588 440.38 385.588H402.937C401.378 385.588 400.264 384.455 400.041 383.139V382.229Z" fill="white"/>
<path d="M497.669 382.229C497.325 384.131 495.664 385.588 493.639 385.588H456.216C454.313 385.588 453.057 383.888 453.3 382.229H497.669Z" fill="white"/>
<path d="M465.41 264.874L460.063 235.57V288.956L465.41 264.874Z" fill="#1D164D"/>
<g opacity="0.5">
<path opacity="0.5" d="M492.444 366.869C492.181 366.869 491.958 366.646 491.938 366.383L486.166 235.59C486.146 235.307 486.369 235.064 486.652 235.064C486.936 235.044 487.179 235.267 487.179 235.55L492.95 366.342C492.971 366.626 492.748 366.869 492.464 366.869H492.444Z" fill="white"/>
</g>
<path d="M474.381 78.915L478.37 81.8089L474.381 78.915Z" fill="url(#paint52_linear)"/>
<path d="M488.576 65.3155C488.515 65.275 488.434 65.2143 488.374 65.1738C488.455 65.2345 488.515 65.275 488.576 65.3155Z" fill="url(#paint53_linear)"/>
<path d="M479.889 100.447C477.216 98.6257 479.889 95.914 479.889 95.914L478.695 95.4688C478.371 96.1568 474.584 104.171 477.176 104.899C479.241 105.486 480.375 102.693 480.801 101.338C479.768 105.709 483.048 108.259 485.317 106.7C487.686 105.041 491.007 96.3997 491.007 96.3997L489.994 96.3389C488.719 99.0507 482.562 102.268 479.889 100.447Z" fill="white"/>
<path d="M457.877 87.8596C456.783 90.1868 454.353 94.1331 449.716 96.4806C448.703 95.8532 447.771 95.064 447.002 94.1533C449.898 92.9391 451.842 91.0773 453.057 89.519C454.272 87.9608 454.758 86.7061 454.758 86.7061L457.877 87.8596Z" fill="white"/>
<path d="M515.733 109.999C515.165 110.12 514.598 110.181 514.011 110.181H511.804C509.617 106.721 509.617 100.872 509.799 97.6948L512.594 97.877C512.816 102.815 514.619 107.53 515.733 109.999Z" fill="white"/>
<path d="M480.537 187.244C480.537 187.244 478.249 191.393 474.3 192.87C474.3 192.87 473.612 192.04 472.64 191.008C471.404 189.672 469.724 187.993 468.508 187.284C466.342 186.01 464.499 187.163 464.276 188.094C464.276 188.094 461.563 189.146 461.218 185.342C460.874 181.537 463.081 178.603 468.346 178.178C471.931 177.894 476.305 182.225 478.735 184.998C479.829 186.293 480.537 187.244 480.537 187.244Z" fill="url(#paint54_linear)"/>
<path d="M451.518 178.886C450.242 181.841 448.075 180.748 448.075 180.748C448.075 180.748 448.136 179.432 446.293 178.846C446.233 178.825 446.152 178.805 446.071 178.785C444.005 178.238 441.555 181.578 441.555 181.578C441.251 181.557 440.947 181.497 440.664 181.395C438.011 180.545 436.411 176.802 436.411 176.802C436.411 176.802 437.16 175.486 438.315 174.049C439.206 172.916 440.36 171.682 441.575 170.953C441.838 170.791 442.122 170.65 442.385 170.548C445.463 169.314 449.534 169.375 451.518 171.176C451.579 171.216 451.619 171.277 451.66 171.317C453.442 173.159 452.753 176.012 451.518 178.886Z" fill="url(#paint55_linear)"/>
<path d="M492.485 225.978C492.465 225.978 489.144 226.727 484.385 227.597C479.606 228.366 473.125 229.115 466.2 229.074C470.452 227.051 476.649 224.015 474.928 221.303C470.473 214.321 484.972 214.443 479.383 209.485C474.381 205.053 477.722 204.547 475.393 196.189C475.11 195.197 474.766 194.105 474.3 192.87L476.366 195.946L492.363 219.806L492.485 225.978Z" fill="url(#paint56_linear)"/>
<path d="M486.329 182.63L499.978 204.02L490.055 195.44L486.329 182.63Z" fill="url(#paint57_linear)"/>
<path d="M482.501 188.924C482.501 188.924 482.197 194.165 476.365 195.946L474.299 192.87C478.248 191.393 480.536 187.244 480.536 187.244H480.557L482.501 188.924Z" fill="white"/>
<path d="M436.411 176.822L434.791 178.967L415.026 205.215C415.391 202.807 416.343 200.135 418.084 197.282C419.887 194.348 422.377 190.685 425.172 186.759L434.528 178.482L436.411 176.822Z" fill="url(#paint58_linear)"/>
<path d="M441.555 181.578L440.583 184.047C437.565 183.176 435.601 180.343 434.791 178.947L436.411 176.802C436.411 176.802 438.011 180.525 440.664 181.396C440.947 181.517 441.251 181.557 441.555 181.578Z" fill="white"/>
<path d="M439.894 190.219C439.894 190.219 440.684 191.353 442.081 191.535C443.479 191.717 444.086 191.251 444.086 191.251C444.086 191.251 444.592 191.555 444.086 192.951C443.58 194.348 443.438 195.562 442.102 195.501C440.765 195.44 434.548 193.275 433.677 191.939C432.807 190.604 434.062 189.046 436.188 190.057C438.315 191.089 439.894 190.219 439.894 190.219Z" fill="url(#paint59_linear)"/>
<path d="M468.245 198.415C468.245 198.415 466.139 199.569 464.559 197.363C464.559 197.363 463.263 198.597 461.178 198.031C459.092 197.484 457.694 197.525 457.654 198.698C457.613 199.892 464.681 202.928 466.382 203.232C468.083 203.535 468.326 200.945 468.488 200.054C468.65 199.184 468.691 198.557 468.245 198.415Z" fill="url(#paint60_linear)"/>
<path d="M509.131 218.045C507.531 221.606 503.825 223.772 500.058 223.772C497.932 223.772 495.765 223.084 493.963 221.526C495.441 218.105 498.864 215.697 502.833 215.697C505.242 215.718 507.45 216.588 509.131 218.045Z" fill="#7485F7"/>
<path d="M417.841 208.432C416.808 208.432 415.836 208.675 414.985 209.1C415.714 214.503 419.886 217.539 424.118 216.406C424.24 215.92 424.301 215.414 424.301 214.868C424.301 211.326 421.405 208.432 417.841 208.432Z" fill="#7485F7"/>
<path d="M490.055 195.44L482.501 188.924L480.557 187.244C480.638 187.284 481.468 187.709 482.4 188.074C483.898 188.661 485.64 189.126 484.992 187.75C483.919 185.463 486.551 186.394 486.349 182.63L490.055 195.44Z" fill="url(#paint61_linear)"/>
<g opacity="0.5">
<path opacity="0.5" d="M433.859 365.493C433.839 365.493 433.839 365.493 433.819 365.493C433.535 365.472 433.333 365.229 433.353 364.946L444.066 235.024C444.086 234.741 444.329 234.538 444.612 234.559C444.896 234.579 445.098 234.822 445.078 235.105L434.365 365.027C434.345 365.29 434.122 365.493 433.859 365.493Z" fill="white"/>
</g>
<path opacity="0.5" d="M345.971 384.718C363.687 384.718 378.048 383.205 378.048 381.338C378.048 379.472 363.687 377.958 345.971 377.958C328.256 377.958 313.895 379.472 313.895 381.338C313.895 383.205 328.256 384.718 345.971 384.718Z" fill="#9FEBE1"/>
<path d="M371.244 302.575C370.576 301.604 370.049 300.531 369.685 299.438C345.141 309.092 329.568 300.572 329.568 300.572L329.184 334.509C329.163 335.804 329.346 337.1 329.69 338.354C335.745 334.894 347.186 336.816 347.186 336.816L353.788 318.239L371.629 335.764C371.69 335.825 371.75 335.865 371.831 335.926C374.201 330.502 381.957 322.63 381.957 322.63L371.244 302.575Z" fill="url(#paint62_linear)"/>
<path d="M308.832 246.62C307.394 245.608 306.3 244.171 305.713 242.512L297.815 220.372C297.815 220.372 294.413 215.576 293.543 212.115C292.652 208.635 293.381 205.721 296.378 205.882C299.294 206.044 302.25 212.399 302.433 212.803C301.987 211.771 302.919 209.1 303.708 209.222C304.518 209.343 303.587 210.78 304.68 213.411C305.774 216.041 303.324 218.106 303.324 218.106L314.725 237.877L317.013 238.666C317.013 238.666 317.56 244.414 311.748 248.664L308.832 246.62Z" fill="url(#paint63_linear)"/>
<path d="M373.168 241.925L389.004 221.688C386.838 219.846 388.174 216.77 388.822 215.455C389.45 214.16 388.923 212.561 389.895 212.986C390.888 213.391 390.827 216.73 390.827 216.73C393.176 214.443 393.642 209.566 396.011 209.1C398.38 208.635 400.163 210.76 399.454 215.495C398.745 220.251 394.837 223.975 394.837 223.975L383.253 249.372C382.605 250.789 381.532 251.962 380.195 252.731C380.195 252.731 374.789 250.728 373.168 241.925Z" fill="url(#paint64_linear)"/>
<path d="M329.204 335.602C329.245 336.229 329.326 336.836 329.467 337.444C329.326 336.836 329.245 336.229 329.204 335.602Z" fill="url(#paint65_linear)"/>
<path d="M329.447 337.444C329.508 337.747 329.589 338.051 329.67 338.334C329.589 338.051 329.528 337.747 329.447 337.444Z" fill="url(#paint66_linear)"/>
<path d="M347.044 337.181L356.623 369.419L350.345 371.786L331.289 341.997C330.56 340.864 330.034 339.63 329.669 338.355C335.724 334.914 347.166 336.817 347.166 336.817L347.044 337.181Z" fill="url(#paint67_linear)"/>
<path d="M415.451 337.181L380.337 337.99C377.319 338.638 374.18 337.889 371.811 335.926C374.18 330.503 381.936 322.63 381.936 322.63L382.382 323.48L414.175 331.454L415.451 337.181Z" fill="url(#paint68_linear)"/>
<path d="M341.718 247.125L317.013 238.687C317.013 238.687 317.559 244.434 311.748 248.684L329.852 261.453L329.406 300.592C329.406 300.592 344.979 309.112 369.523 299.459C369.158 298.426 368.935 297.354 368.834 296.241L365.594 261.089L380.195 252.751C380.195 252.751 374.788 250.748 373.188 241.945L354.152 245.972L341.718 247.125Z" fill="url(#paint69_linear)"/>
<g opacity="0.5">
<path opacity="0.5" d="M346.396 300.187C339.815 300.187 334.854 298.973 331.856 297.961L332.18 296.99C335.097 297.982 339.936 299.155 346.396 299.155C352.735 299.155 359.357 298.022 366.08 295.796L366.404 296.767C359.58 299.034 352.856 300.187 346.396 300.187Z" fill="white"/>
</g>
<path d="M368.875 296.646C368.936 297.192 369.037 297.718 369.179 298.244C369.037 297.738 368.936 297.192 368.875 296.646Z" fill="#FDD365"/>
<path d="M347.874 238.363C355.838 238.363 362.293 231.912 362.293 223.954C362.293 215.996 355.838 209.545 347.874 209.545C339.911 209.545 333.456 215.996 333.456 223.954C333.456 231.912 339.911 238.363 347.874 238.363Z" fill="url(#paint70_linear)"/>
<path d="M362.293 223.954C362.293 231.907 355.833 238.363 347.875 238.363C342.002 238.363 336.939 234.842 334.712 229.823C336.838 231.057 339.309 231.766 341.941 231.766C349.9 231.766 356.36 225.33 356.36 217.357C356.36 215.272 355.914 213.289 355.104 211.508C359.397 213.997 362.293 218.632 362.293 223.954Z" fill="#1D164D"/>
<path d="M346.781 252.893C353.322 252.63 356.238 247.389 356.36 247.166L356.663 246.599V245.405L354.112 245.952L341.698 247.146L339.147 246.275V247.105C339.126 247.652 339.228 249.372 340.625 250.869C341.901 252.225 343.764 252.913 346.194 252.913C346.417 252.893 346.599 252.893 346.781 252.893Z" fill="white"/>
<path d="M337.871 223.954C337.871 223.954 337.75 233.87 338.074 236.967C338.418 240.063 340.099 241.378 341.719 241.277V247.126C341.719 247.126 341.517 250.566 346.68 250.343C351.844 250.121 354.133 245.932 354.133 245.932V232.595C354.133 232.595 356.624 232.211 356.624 230.045C356.624 227.88 353.869 226.666 352.897 229.742C352.897 229.742 349.131 228.224 349.252 224.541C349.273 224.561 342.529 228.244 337.871 223.954Z" fill="url(#paint71_linear)"/>
<path d="M345.405 244.879C344.757 244.798 344.534 244.151 345.607 243.685C346.681 243.22 347.207 241.844 347.207 241.844C346.093 243.139 344.291 243.078 344.291 243.078V245.203C344.291 245.203 344.21 246.458 346.093 246.377C346.235 246.377 346.357 246.357 346.478 246.336C345.223 246.438 346.033 244.96 345.405 244.879Z" fill="url(#paint72_linear)"/>
<g opacity="0.5">
<path opacity="0.5" d="M345.971 260.604C340.564 260.604 336.19 265.622 336.19 271.815C336.19 278.007 340.564 283.026 345.971 283.026C351.378 283.026 355.752 278.007 355.752 271.815C355.752 265.622 351.378 260.604 345.971 260.604ZM345.971 281.569C341.394 281.569 337.668 277.198 337.668 271.815C337.668 266.432 341.394 262.061 345.971 262.061C350.548 262.061 354.274 266.432 354.274 271.815C354.274 277.198 350.548 281.569 345.971 281.569Z" fill="white"/>
<g opacity="0.5">
<path opacity="0.5" d="M345.586 277.562C343.541 277.562 341.678 276.085 340.949 273.859C340.888 273.656 340.989 273.434 341.192 273.373C341.394 273.312 341.617 273.413 341.678 273.616C342.305 275.518 343.885 276.793 345.586 276.793C347.287 276.793 348.867 275.518 349.494 273.616C349.555 273.413 349.778 273.312 349.98 273.373C350.183 273.434 350.284 273.656 350.223 273.859C349.494 276.085 347.631 277.562 345.586 277.562Z" fill="white"/>
</g>
<g opacity="0.5">
<path opacity="0.5" d="M343.582 269.305C343.48 269.305 343.399 269.265 343.318 269.204L342.488 268.395C342.184 268.091 341.698 268.091 341.394 268.395L340.564 269.204C340.422 269.346 340.179 269.346 340.017 269.204C339.876 269.063 339.876 268.82 340.017 268.658L340.848 267.848C341.455 267.261 342.387 267.261 342.994 267.848L343.825 268.658C343.966 268.799 343.987 269.042 343.825 269.204C343.784 269.265 343.683 269.305 343.582 269.305Z" fill="white"/>
</g>
<g opacity="0.5">
<path opacity="0.5" d="M350.933 269.305C350.831 269.305 350.75 269.265 350.669 269.204L349.839 268.395C349.535 268.091 349.049 268.091 348.746 268.395L347.915 269.204C347.774 269.346 347.531 269.346 347.369 269.204C347.227 269.063 347.227 268.82 347.369 268.658L348.199 267.848C348.806 267.261 349.738 267.261 350.345 267.848L351.176 268.658C351.317 268.799 351.338 269.042 351.176 269.204C351.135 269.265 351.034 269.305 350.933 269.305Z" fill="white"/>
</g>
</g>
<path d="M319.605 239.557L317.033 238.667C317.033 238.667 317.58 244.414 311.768 248.664L314.38 250.505C318.593 247.692 319.504 242.795 319.605 239.557Z" fill="white"/>
<path d="M373.168 241.925L370.231 242.552C370.292 245.669 371.122 251.962 376.61 254.775L380.174 252.731C380.195 252.731 374.788 250.728 373.168 241.925Z" fill="white"/>
<path d="M329.852 251.416C329.852 251.416 329.507 255.807 328.333 256.435C327.158 257.062 327.3 255.382 325.802 255.423C324.303 255.463 325.073 258.094 321.751 255.747L329.852 261.454V251.416Z" fill="url(#paint73_linear)"/>
<path d="M364.197 267.403C363.184 271.491 365.918 270.337 367.052 276.955L365.594 261.069L360.815 263.74C360.815 263.74 365.371 262.647 364.197 267.403Z" fill="url(#paint74_linear)"/>
<path d="M343.359 309.739L351.5 324.634L353.788 318.239V318.259V318.239L343.359 309.739Z" fill="#1D164D"/>
<path d="M354.639 363.205C354.639 363.205 355.995 361.89 357.211 364.44C358.426 366.99 359.762 369.6 359.499 371.786C359.236 373.972 344.432 382.35 339.734 382.228C335.036 382.107 334.894 379.759 338.398 377.149C341.901 374.538 344.878 371.3 344.939 368.447C344.999 365.593 346.498 365.877 347.146 366.99C347.794 368.103 349.657 370.39 352.371 368.406C355.084 366.403 354.639 363.205 354.639 363.205Z" fill="url(#paint75_linear)"/>
<path d="M409.862 330.401C409.862 330.401 409.011 328.823 411.421 328.459C413.831 328.074 416.342 327.609 418.084 328.357C419.825 329.106 423.167 343.454 421.911 347.319C420.656 351.185 418.671 350.719 417.355 347.178C416.038 343.636 414.094 340.358 411.725 339.609C409.356 338.86 409.983 337.687 411.057 337.424C412.15 337.16 414.499 336.169 413.507 333.437C412.535 330.705 409.862 330.401 409.862 330.401Z" fill="url(#paint76_linear)"/>
<path d="M380.195 250.728C379.648 251.213 379.162 251.598 378.757 251.881C379.506 252.407 380.053 252.65 380.174 252.711C380.195 252.711 380.195 252.711 380.195 252.711C381.551 251.942 382.604 250.768 383.252 249.352L394.836 223.954C394.046 224.703 393.418 225.593 392.973 226.565C390.563 231.725 382.544 248.643 380.195 250.728Z" fill="url(#paint77_linear)"/>
<path d="M308.832 246.62L311.748 248.684C312.194 248.36 312.619 248.016 312.983 247.652C311.89 246.984 310.452 245.871 308.791 244.13C305.734 240.872 300.792 226.605 299.355 222.295C299.091 221.485 298.524 220.797 297.795 220.372L305.693 242.511C306.301 244.151 307.394 245.608 308.832 246.62Z" fill="url(#paint78_linear)"/>
</g>
<defs>
<linearGradient id="paint0_linear" x1="681" y1="-9.49999" x2="166.5" y2="445.5" gradientUnits="userSpaceOnUse">
<stop stop-color="#C6F8FF"/>
<stop offset="1" stop-color="#F0FAFF"/>
</linearGradient>
<linearGradient id="paint1_linear" x1="610.88" y1="348.036" x2="534.152" y2="234.647" gradientUnits="userSpaceOnUse">
<stop stop-color="#1D164D"/>
<stop offset="1" stop-color="#4A4975"/>
</linearGradient>
<linearGradient id="paint2_linear" x1="624.776" y1="231.758" x2="627.367" y2="237.357" gradientUnits="userSpaceOnUse">
<stop stop-color="#6BBC61"/>
<stop offset="1" stop-color="#A7DF63"/>
</linearGradient>
<linearGradient id="paint3_linear" x1="625.423" y1="250.489" x2="628.338" y2="235.639" gradientUnits="userSpaceOnUse">
<stop stop-color="#C7283A"/>
<stop offset="1" stop-color="#EF4B4B"/>
</linearGradient>
<linearGradient id="paint4_linear" x1="628.388" y1="238.834" x2="640.941" y2="248.742" gradientUnits="userSpaceOnUse">
<stop stop-color="white"/>
<stop offset="1" stop-color="white" stop-opacity="0"/>
</linearGradient>
<linearGradient id="paint5_linear" x1="628.725" y1="235.482" x2="628.107" y2="233.508" gradientUnits="userSpaceOnUse">
<stop stop-color="#8F5138"/>
<stop offset="1" stop-color="#BA6D4D"/>
</linearGradient>
<linearGradient id="paint6_linear" x1="591.917" y1="250.95" x2="606.797" y2="233.633" gradientUnits="userSpaceOnUse">
<stop stop-color="#C7283A"/>
<stop offset="1" stop-color="#EF4B4B"/>
</linearGradient>
<linearGradient id="paint7_linear" x1="599.793" y1="238.588" x2="625.236" y2="239.556" gradientUnits="userSpaceOnUse">
<stop stop-color="white"/>
<stop offset="1" stop-color="white" stop-opacity="0"/>
</linearGradient>
<linearGradient id="paint8_linear" x1="603.344" y1="235.325" x2="604.067" y2="232.33" gradientUnits="userSpaceOnUse">
<stop stop-color="#6BBC61"/>
<stop offset="1" stop-color="#A7DF63"/>
</linearGradient>
<linearGradient id="paint9_linear" x1="560.642" y1="164.165" x2="603.32" y2="241.105" gradientUnits="userSpaceOnUse">
<stop stop-color="#FF59AF"/>
<stop offset="1" stop-color="#DD1D80"/>
</linearGradient>
<linearGradient id="paint10_linear" x1="550.076" y1="391.156" x2="539.469" y2="372.78" gradientUnits="userSpaceOnUse">
<stop stop-color="#FFC0AC"/>
<stop offset="1" stop-color="#FFD6C7"/>
</linearGradient>
<linearGradient id="paint11_linear" x1="590.945" y1="391.17" x2="580.195" y2="372.547" gradientUnits="userSpaceOnUse">
<stop stop-color="#FFC0AC"/>
<stop offset="1" stop-color="#FFD6C7"/>
</linearGradient>
<linearGradient id="paint12_linear" x1="614.956" y1="229.296" x2="599.168" y2="201.943" gradientUnits="userSpaceOnUse">
<stop stop-color="#FFC0AC"/>
<stop offset="1" stop-color="#FFD6C7"/>
</linearGradient>
<linearGradient id="paint13_linear" x1="554.718" y1="158.501" x2="554.614" y2="158.321" gradientUnits="userSpaceOnUse">
<stop stop-color="#FFC0AC"/>
<stop offset="1" stop-color="#FFD6C7"/>
</linearGradient>
<linearGradient id="paint14_linear" x1="578.328" y1="151.586" x2="564.828" y2="128.197" gradientUnits="userSpaceOnUse">
<stop stop-color="#FFC0AC"/>
<stop offset="1" stop-color="#FFD6C7"/>
</linearGradient>
<linearGradient id="paint15_linear" x1="579.261" y1="156.757" x2="557.292" y2="118.696" gradientUnits="userSpaceOnUse">
<stop stop-color="#C2272D"/>
<stop offset="1" stop-color="#EE6F00"/>
</linearGradient>
<linearGradient id="paint16_linear" x1="589.239" y1="140.871" x2="556.181" y2="135.4" gradientUnits="userSpaceOnUse">
<stop stop-color="#C2272D"/>
<stop offset="1" stop-color="#C2272D" stop-opacity="0"/>
</linearGradient>
<linearGradient id="paint17_linear" x1="569.064" y1="145.088" x2="574.843" y2="156.971" gradientUnits="userSpaceOnUse">
<stop stop-color="#FF9C85"/>
<stop offset="1" stop-color="#FF9C85" stop-opacity="0"/>
</linearGradient>
<linearGradient id="paint18_linear" x1="586.645" y1="204.356" x2="526.388" y2="178.659" gradientUnits="userSpaceOnUse">
<stop stop-color="#DD1D80"/>
<stop offset="1" stop-color="#DD1D80" stop-opacity="0"/>
</linearGradient>
<linearGradient id="paint19_linear" x1="555.064" y1="211.143" x2="560.262" y2="220.514" gradientUnits="userSpaceOnUse">
<stop stop-color="#FFC0AC"/>
<stop offset="1" stop-color="#FFD6C7"/>
</linearGradient>
<linearGradient id="paint20_linear" x1="549.166" y1="395.205" x2="533.416" y2="364.87" gradientUnits="userSpaceOnUse">
<stop stop-color="#DD1D80"/>
<stop offset="1" stop-color="#DD1D80" stop-opacity="0"/>
</linearGradient>
<linearGradient id="paint21_linear" x1="590.375" y1="394.819" x2="575.571" y2="366.305" gradientUnits="userSpaceOnUse">
<stop stop-color="#DD1D80"/>
<stop offset="1" stop-color="#DD1D80" stop-opacity="0"/>
</linearGradient>
<linearGradient id="paint22_linear" x1="589.562" y1="364.87" x2="589.147" y2="364.153" gradientUnits="userSpaceOnUse">
<stop stop-color="#FFC0AC"/>
<stop offset="1" stop-color="#FFD6C7"/>
</linearGradient>
<linearGradient id="paint23_linear" x1="595.103" y1="230.88" x2="598.342" y2="235.203" gradientUnits="userSpaceOnUse">
<stop stop-color="#DBE42C"/>
<stop offset="1" stop-color="#6AD419"/>
</linearGradient>
<linearGradient id="paint24_linear" x1="591.012" y1="237.644" x2="601.178" y2="247.646" gradientUnits="userSpaceOnUse">
<stop stop-color="#DBE42C"/>
<stop offset="1" stop-color="#6AD419"/>
</linearGradient>
<linearGradient id="paint25_linear" x1="593.265" y1="239.294" x2="580.711" y2="249.202" gradientUnits="userSpaceOnUse">
<stop stop-color="white"/>
<stop offset="1" stop-color="white" stop-opacity="0"/>
</linearGradient>
<linearGradient id="paint26_linear" x1="592.927" y1="235.942" x2="593.546" y2="233.967" gradientUnits="userSpaceOnUse">
<stop stop-color="#8F5138"/>
<stop offset="1" stop-color="#BA6D4D"/>
</linearGradient>
<linearGradient id="paint27_linear" x1="608.973" y1="197.32" x2="565.999" y2="206.735" gradientUnits="userSpaceOnUse">
<stop stop-color="#DD1D80"/>
<stop offset="1" stop-color="#DD1D80" stop-opacity="0"/>
</linearGradient>
<linearGradient id="paint28_linear" x1="617.456" y1="282.252" x2="606.62" y2="222.614" gradientUnits="userSpaceOnUse">
<stop stop-color="#EE8972"/>
<stop offset="1" stop-color="#F7D695"/>
</linearGradient>
<linearGradient id="paint29_linear" x1="496.682" y1="84.0174" x2="499.391" y2="59.4512" gradientUnits="userSpaceOnUse">
<stop stop-color="#C2272D"/>
<stop offset="1" stop-color="#EE6F00"/>
</linearGradient>
<linearGradient id="paint30_linear" x1="490.39" y1="85.1002" x2="501.906" y2="61.4601" gradientUnits="userSpaceOnUse">
<stop stop-color="#C2272D"/>
<stop offset="1" stop-color="#C2272D" stop-opacity="0"/>
</linearGradient>
<linearGradient id="paint31_linear" x1="475.237" y1="70.8831" x2="465.155" y2="61.8125" gradientUnits="userSpaceOnUse">
<stop stop-color="#C2272D"/>
<stop offset="1" stop-color="#EE6F00"/>
</linearGradient>
<linearGradient id="paint32_linear" x1="476.003" y1="72.3805" x2="465.246" y2="59.9211" gradientUnits="userSpaceOnUse">
<stop stop-color="#C2272D"/>
<stop offset="1" stop-color="#C2272D" stop-opacity="0"/>
</linearGradient>
<linearGradient id="paint33_linear" x1="473.011" y1="64.0035" x2="474.704" y2="68.2821" gradientUnits="userSpaceOnUse">
<stop stop-color="#D89CF6"/>
<stop offset="1" stop-color="#916DD5"/>
</linearGradient>
<linearGradient id="paint34_linear" x1="491.822" y1="72.7203" x2="494.617" y2="69.0759" gradientUnits="userSpaceOnUse">
<stop stop-color="#916DD5"/>
<stop offset="1" stop-color="#D89CF6"/>
</linearGradient>
<linearGradient id="paint35_linear" x1="489.945" y1="85.7809" x2="479.445" y2="67.7316" gradientUnits="userSpaceOnUse">
<stop stop-color="#C2272D"/>
<stop offset="1" stop-color="#EE6F00"/>
</linearGradient>
<linearGradient id="paint36_linear" x1="487.244" y1="96.3378" x2="480.386" y2="76.0047" gradientUnits="userSpaceOnUse">
<stop stop-color="#FFC0AC"/>
<stop offset="1" stop-color="#FFD6C7"/>
</linearGradient>
<linearGradient id="paint37_linear" x1="453.045" y1="157.31" x2="471.839" y2="247.784" gradientUnits="userSpaceOnUse">
<stop stop-color="#92E2F9"/>
<stop offset="1" stop-color="#7485F7"/>
</linearGradient>
<linearGradient id="paint38_linear" x1="480.532" y1="90.5652" x2="489.338" y2="108.189" gradientUnits="userSpaceOnUse">
<stop stop-color="#FF9C85"/>
<stop offset="1" stop-color="#FF9C85" stop-opacity="0"/>
</linearGradient>
<linearGradient id="paint39_linear" x1="442.163" y1="85.5545" x2="444.956" y2="59.8871" gradientUnits="userSpaceOnUse">
<stop stop-color="#FFC0AC"/>
<stop offset="1" stop-color="#FFD6C7"/>
</linearGradient>
<linearGradient id="paint40_linear" x1="428.67" y1="194.671" x2="450.874" y2="204.169" gradientUnits="userSpaceOnUse">
<stop stop-color="#7485F7"/>
<stop offset="1" stop-color="#7485F7" stop-opacity="0"/>
</linearGradient>
<linearGradient id="paint41_linear" x1="472.276" y1="178.777" x2="462.827" y2="141.165" gradientUnits="userSpaceOnUse">
<stop stop-color="#1D164D"/>
<stop offset="1" stop-color="#4A4975"/>
</linearGradient>
<linearGradient id="paint42_linear" x1="527.34" y1="102.399" x2="531.911" y2="82.3215" gradientUnits="userSpaceOnUse">
<stop stop-color="#FFC0AC"/>
<stop offset="1" stop-color="#FFD6C7"/>
</linearGradient>
<linearGradient id="paint43_linear" x1="461.166" y1="141.339" x2="485.892" y2="93.2103" gradientUnits="userSpaceOnUse">
<stop stop-color="#916DD5"/>
<stop offset="1" stop-color="#D89CF6"/>
</linearGradient>
<linearGradient id="paint44_linear" x1="504.349" y1="102.42" x2="498.647" y2="92.5424" gradientUnits="userSpaceOnUse">
<stop stop-color="#FFC0AC"/>
<stop offset="1" stop-color="#FFD6C7"/>
</linearGradient>
<linearGradient id="paint45_linear" x1="468.915" y1="333.479" x2="446.057" y2="242.493" gradientUnits="userSpaceOnUse">
<stop stop-color="#1D164D"/>
<stop offset="1" stop-color="#4A4975"/>
</linearGradient>
<linearGradient id="paint46_linear" x1="477.525" y1="147.945" x2="452.121" y2="103.204" gradientUnits="userSpaceOnUse">
<stop stop-color="#1D164D"/>
<stop offset="1" stop-color="#4A4975"/>
</linearGradient>
<linearGradient id="paint47_linear" x1="470.817" y1="109.888" x2="470.46" y2="109.259" gradientUnits="userSpaceOnUse">
<stop stop-color="#1D164D"/>
<stop offset="1" stop-color="#4A4975"/>
</linearGradient>
<linearGradient id="paint48_linear" x1="473.058" y1="151.551" x2="456.037" y2="122.062" gradientUnits="userSpaceOnUse">
<stop stop-color="#FFC0AC"/>
<stop offset="1" stop-color="#FFD6C7"/>
</linearGradient>
<linearGradient id="paint49_linear" x1="454.63" y1="137.395" x2="475.975" y2="161.17" gradientUnits="userSpaceOnUse">
<stop stop-color="#FF9C85"/>
<stop offset="1" stop-color="#FF9C85" stop-opacity="0"/>
</linearGradient>
<linearGradient id="paint50_linear" x1="419.079" y1="369.192" x2="428.223" y2="394.101" gradientUnits="userSpaceOnUse">
<stop stop-color="#92E2F9"/>
<stop offset="1" stop-color="#7485F7"/>
</linearGradient>
<linearGradient id="paint51_linear" x1="472.369" y1="369.188" x2="481.513" y2="394.096" gradientUnits="userSpaceOnUse">
<stop stop-color="#92E2F9"/>
<stop offset="1" stop-color="#7485F7"/>
</linearGradient>
<linearGradient id="paint52_linear" x1="479.58" y1="84.0729" x2="474.266" y2="77.9174" gradientUnits="userSpaceOnUse">
<stop stop-color="#C2272D"/>
<stop offset="1" stop-color="#C2272D" stop-opacity="0"/>
</linearGradient>
<linearGradient id="paint53_linear" x1="488.637" y1="65.4353" x2="488.375" y2="65.1315" gradientUnits="userSpaceOnUse">
<stop stop-color="#C2272D"/>
<stop offset="1" stop-color="#C2272D" stop-opacity="0"/>
</linearGradient>
<linearGradient id="paint54_linear" x1="472.341" y1="191.91" x2="468.659" y2="178.316" gradientUnits="userSpaceOnUse">
<stop stop-color="#FFC0AC"/>
<stop offset="1" stop-color="#FFD6C7"/>
</linearGradient>
<linearGradient id="paint55_linear" x1="442.754" y1="178.62" x2="452.538" y2="169.466" gradientUnits="userSpaceOnUse">
<stop stop-color="#FFC0AC"/>
<stop offset="1" stop-color="#FFD6C7"/>
</linearGradient>
<linearGradient id="paint56_linear" x1="483.165" y1="209.498" x2="423.667" y2="228.665" gradientUnits="userSpaceOnUse">
<stop stop-color="#7485F7"/>
<stop offset="1" stop-color="#7485F7" stop-opacity="0"/>
</linearGradient>
<linearGradient id="paint57_linear" x1="493.162" y1="209.815" x2="493.162" y2="186.181" gradientUnits="userSpaceOnUse">
<stop stop-color="#7485F7"/>
<stop offset="1" stop-color="#7485F7" stop-opacity="0"/>
</linearGradient>
<linearGradient id="paint58_linear" x1="441.964" y1="207.462" x2="416.043" y2="181.185" gradientUnits="userSpaceOnUse">
<stop stop-color="#7485F7"/>
<stop offset="1" stop-color="#7485F7" stop-opacity="0"/>
</linearGradient>
<linearGradient id="paint59_linear" x1="439.184" y1="196.933" x2="438.676" y2="188.631" gradientUnits="userSpaceOnUse">
<stop stop-color="#CECECE"/>
<stop offset="1" stop-color="white"/>
</linearGradient>
<linearGradient id="paint60_linear" x1="464.499" y1="204.09" x2="462.298" y2="195.703" gradientUnits="userSpaceOnUse">
<stop stop-color="#CECECE"/>
<stop offset="1" stop-color="white"/>
</linearGradient>
<linearGradient id="paint61_linear" x1="486.163" y1="201.065" x2="483.962" y2="176.415" gradientUnits="userSpaceOnUse">
<stop stop-color="#7485F7"/>
<stop offset="1" stop-color="#7485F7" stop-opacity="0"/>
</linearGradient>
<linearGradient id="paint62_linear" x1="360.757" y1="345.1" x2="340.283" y2="284.605" gradientUnits="userSpaceOnUse">
<stop stop-color="#1D164D"/>
<stop offset="1" stop-color="#4A4975"/>
</linearGradient>
<linearGradient id="paint63_linear" x1="304.915" y1="257.877" x2="305.084" y2="228.398" gradientUnits="userSpaceOnUse">
<stop stop-color="#FFC0AC"/>
<stop offset="1" stop-color="#FFD6C7"/>
</linearGradient>
<linearGradient id="paint64_linear" x1="389.18" y1="256.134" x2="385.794" y2="221.234" gradientUnits="userSpaceOnUse">
<stop stop-color="#FFC0AC"/>
<stop offset="1" stop-color="#FFD6C7"/>
</linearGradient>
<linearGradient id="paint65_linear" x1="329.684" y1="337.584" x2="328.886" y2="335.225" gradientUnits="userSpaceOnUse">
<stop stop-color="#1D164D"/>
<stop offset="1" stop-color="#4A4975"/>
</linearGradient>
<linearGradient id="paint66_linear" x1="329.745" y1="338.434" x2="329.343" y2="337.245" gradientUnits="userSpaceOnUse">
<stop stop-color="#1D164D"/>
<stop offset="1" stop-color="#4A4975"/>
</linearGradient>
<linearGradient id="paint67_linear" x1="371.307" y1="361.947" x2="330.117" y2="347.953" gradientUnits="userSpaceOnUse">
<stop stop-color="#FFC0AC"/>
<stop offset="1" stop-color="#FFD6C7"/>
</linearGradient>
<linearGradient id="paint68_linear" x1="415.081" y1="320.114" x2="368.307" y2="348.095" gradientUnits="userSpaceOnUse">
<stop stop-color="#FFC0AC"/>
<stop offset="1" stop-color="#FFD6C7"/>
</linearGradient>
<linearGradient id="paint69_linear" x1="344.665" y1="260.151" x2="372.103" y2="304.894" gradientUnits="userSpaceOnUse">
<stop stop-color="#FDD365"/>
<stop offset="1" stop-color="#FB8D62"/>
</linearGradient>
<linearGradient id="paint70_linear" x1="354.863" y1="239.29" x2="338.733" y2="203.831" gradientUnits="userSpaceOnUse">
<stop stop-color="#1D164D"/>
<stop offset="1" stop-color="#4A4975"/>
</linearGradient>
<linearGradient id="paint71_linear" x1="330.75" y1="243.926" x2="353.16" y2="231.78" gradientUnits="userSpaceOnUse">
<stop stop-color="#FFC0AC"/>
<stop offset="1" stop-color="#FFD6C7"/>
</linearGradient>
<linearGradient id="paint72_linear" x1="343.189" y1="241.491" x2="349.592" y2="247.249" gradientUnits="userSpaceOnUse">
<stop stop-color="#FF9C85"/>
<stop offset="1" stop-color="#FF9C85" stop-opacity="0"/>
</linearGradient>
<linearGradient id="paint73_linear" x1="334.968" y1="271.738" x2="323.158" y2="248.276" gradientUnits="userSpaceOnUse">
<stop stop-color="#FB8D62"/>
<stop offset="1" stop-color="#FB8D62" stop-opacity="0"/>
</linearGradient>
<linearGradient id="paint74_linear" x1="379.614" y1="260.091" x2="349.007" y2="280.135" gradientUnits="userSpaceOnUse">
<stop stop-color="#FB8D62"/>
<stop offset="1" stop-color="#FB8D62" stop-opacity="0"/>
</linearGradient>
<linearGradient id="paint75_linear" x1="337.695" y1="369.402" x2="356.34" y2="375.678" gradientUnits="userSpaceOnUse">
<stop stop-color="#FDD365"/>
<stop offset="1" stop-color="#FB8D62"/>
</linearGradient>
<linearGradient id="paint76_linear" x1="410.779" y1="345.885" x2="420.554" y2="331.944" gradientUnits="userSpaceOnUse">
<stop stop-color="#FDD365"/>
<stop offset="1" stop-color="#FB8D62"/>
</linearGradient>
<linearGradient id="paint77_linear" x1="409.291" y1="254.466" x2="367.991" y2="224.073" gradientUnits="userSpaceOnUse">
<stop stop-color="#FF9C85"/>
<stop offset="1" stop-color="#FF9C85" stop-opacity="0"/>
</linearGradient>
<linearGradient id="paint78_linear" x1="288.589" y1="261.48" x2="310.818" y2="225.126" gradientUnits="userSpaceOnUse">
<stop stop-color="#FF9C85"/>
<stop offset="1" stop-color="#FF9C85" stop-opacity="0"/>
</linearGradient>
<clipPath id="clip0">
<rect width="457.036" height="364.268" fill="white" transform="translate(248.02 50.0366)"/>
</clipPath>
</defs>
</svg>
