<svg width="520" height="502" viewBox="0 0 520 502" fill="none" xmlns="http://www.w3.org/2000/svg">
<path opacity="0.44" d="M93.6934 465C177.596 514.605 251.615 494.533 297.213 502C660.194 502 535.644 -28.4615 237.599 1.19904C57.2052 19.1512 -110.767 344.118 93.6934 465Z" fill="url(#paint0_linear)"/>
<g clip-path="url(#clip0)">
<path opacity="0.3" d="M208 400.5C208 400.5 158.5 404.2 158.1 413.7C157.7 424 244.3 425.7 244.3 425.7L244.7 439.9C244.7 439.9 280.7 449.8 277.4 425.9L320.3 425.4C320.3 425.4 325 429.5 334.6 435.6C351.4 436.4 402.2 431.2 402.2 423.8C402.2 413.9 306.6 403.5 306.6 403.5L208 400.5Z" fill="url(#paint1_linear)"/>
<path d="M193.5 165.1C193.5 165.1 188.1 169.3 180.3 167C174.3 165.2 172.1 160.3 172.4 160.2C172.7 160.2 175.7 161 175.7 161C175.7 161 172.1 155 172.3 150.8C172.4 149.7 177.2 153.3 177.2 153.3C177.2 153.3 177.5 144.7 181.5 137.1C181.5 137.1 195.5 141.6 191.6 154.9C191.6 154.9 196.9 151.6 197.1 152.4C197.3 153.1 197 161.1 190.2 163.3C190.1 163.2 195.5 164.2 193.5 165.1Z" fill="#589036"/>
<path d="M155.4 168.7C156.7 169.3 164.7 168.8 168.4 162C172.1 155.3 168.3 144.1 164 143.2C163 143 163.3 148 163.3 148C163.3 148 160.9 144 155.4 142.8L156.1 145.9C156.1 145.9 152.9 144.4 146.4 145.6C146.4 145.6 146.7 147 147.5 147.9C147.5 147.9 139.4 146.4 133 156C133 156 141 155.8 143.9 157L141.7 159.9C141.7 159.9 146.8 161.2 152 161.4L149.4 165.3C149.4 165.3 156.3 164.7 157.9 164.5C157.9 164.5 154.1 168.1 155.4 168.7Z" fill="#589036"/>
<path d="M162.5 189.1C162.5 189.1 150.1 189.8 142.3 188.1C142.3 188.1 147.2 178.4 157.2 176.8C157.2 176.8 154.1 175.4 153.4 174.6C153.4 174.6 156.7 171.5 163 173.5C163 173.5 162.4 171.5 162 170C162 170 175.4 170 177 180.1C178.6 190.2 171.3 195.7 171.3 195.7C171.3 195.7 171.3 191.5 171.3 190.2C171.3 190.2 165.2 195.5 159.9 194.9L162.5 189.1Z" fill="#589036"/>
<path d="M179 205.5C179 205.5 174.7 206 167.8 204C167.8 204 171.3 197.9 179.9 196.8C179.9 196.8 178.4 194.3 178.9 193.6C179.4 192.9 185.3 194.7 185.9 200.8C186.6 206.9 178.4 210.3 177.7 210C177.1 209.8 179 205.5 179 205.5Z" fill="#589036"/>
<path d="M185.7 181.5C189.7 188.1 196.9 187.5 198.2 187C199.5 186.5 195 182.8 195 182.8C195 182.8 203.5 181 203.1 179.9C202.7 178.8 198.9 176.9 198.9 176.9C198.9 176.9 204.5 171.4 204.2 167.5C204.2 167.5 196.2 165.8 188.5 173.1C188.5 173.1 187.4 168.9 186.1 170.2C184.8 171.4 183.5 177.9 185.7 181.5Z" fill="#589036"/>
<path d="M184.1 145.4C183.7 145.4 183.5 145.8 183.6 146.2C183.6 146.3 184.1 153.3 182.8 161.7C179.4 160.1 176.2 155.2 176.2 155.2C176.1 155 175.8 155 175.7 155.1C175.5 155.2 175.5 155.5 175.6 155.6C175.7 155.8 179.1 160.9 182.8 162.5C182.2 166.4 181.1 170.6 179.5 174.5C174.7 165.4 169.5 160 162.1 156.7C161.8 151.2 159.3 147.1 159.2 147C159.1 146.8 158.8 146.8 158.7 146.9C158.5 147 158.5 147.3 158.6 147.4C158.6 147.4 160.9 151.2 161.4 156.4C158 155 154.2 153.9 149.7 153.1C149.3 153 148.9 153.1 148.8 153.5C148.7 153.9 149.1 154.1 149.5 154.1C155.1 155.1 159.8 156.6 163.7 158.9C160.4 160.7 154.7 162.1 154.7 162.1C154.5 162.1 154.4 162.4 154.4 162.6C154.4 162.8 154.7 162.9 154.9 162.9C155.2 162.8 161.2 161.4 164.5 159.4C172 163.7 178.4 173.7 181.3 181.7C178.7 179.7 175.7 178.6 172.8 178.2C170 174.9 165.5 173.4 165.3 173.3C165.1 173.2 164.9 173.3 164.8 173.5C164.7 173.7 164.8 173.9 165 174C165 174 168.9 175.3 171.5 178C163 177.3 154.8 181.4 154.7 181.4C154.3 181.6 154 181.9 154.2 182.3C154.4 182.7 154.7 182.7 155.1 182.5C155.2 182.4 163.7 178.4 172.1 179.5C170.5 180.9 167.5 183.9 166.1 188C166 188.2 166.1 188.4 166.3 188.5C166.5 188.6 166.7 188.5 166.8 188.3C168.3 183.9 171.8 180.7 173.1 179.7C176.5 180.4 179.9 182 182.6 185.1C187.2 196.5 193.8 203.1 198.7 206.8C199.2 206.5 199.6 206.1 200 205.8C195.1 202.2 188.5 195.7 183.9 184.3C182.7 181.4 181.5 178.7 180.3 176.3C181.7 173.1 182.7 169.7 183.4 166.4C185.7 155.8 184.7 146.2 184.7 146C184.7 145.8 184.5 145.4 184.1 145.4Z" fill="url(#paint2_linear)"/>
<path d="M366.8 238.9C366.8 238.9 379.2 239.6 387 237.9C387 237.9 382.1 228.2 372.1 226.6C372.1 226.6 375.2 225.2 375.9 224.4C375.9 224.4 372.6 221.3 366.3 223.3C366.3 223.3 366.9 221.3 367.3 219.8C367.3 219.8 353.9 219.8 352.3 229.9C350.7 240 358 245.5 358 245.5C358 245.5 358 241.3 358 240C358 240 364.1 245.3 369.4 244.7L366.8 238.9Z" fill="#589036"/>
<path d="M374.8 231.2C374.7 231.1 366.5 227 358 227.8C360.6 225.1 364.5 223.8 364.5 223.8C364.7 223.7 364.8 223.5 364.7 223.3C364.6 223.1 364.4 223 364.2 223.1C364 223.2 359.5 224.7 356.7 228C354.8 228.3 352.8 228.8 351 229.7C351.1 230.2 351.1 230.8 351.2 231.3C352.8 230.4 354.5 229.9 356.2 229.5C357.5 230.5 361 233.7 362.5 238.1C362.6 238.3 362.8 238.4 363 238.3C363.2 238.2 363.3 238 363.2 237.8C361.8 233.7 358.8 230.7 357.2 229.3C365.6 228.1 374.1 232.2 374.2 232.3C374.6 232.5 374.9 232.5 375.1 232.1C375.5 231.7 375.2 231.4 374.8 231.2Z" fill="url(#paint3_linear)"/>
<path d="M219.1 129.8C219.1 129.8 221.9 127.7 221.5 122C221.1 116.2 219.1 110.3 221.6 108.9C224.7 107.1 226.2 114 230.2 122.7C234 131 242.9 132.2 246.4 131.1L247.5 147.6L227.4 155.6L212.4 132.1L219.1 129.8Z" fill="url(#paint4_linear)"/>
<path d="M196.7 140.5C196.7 140.5 207.3 137.3 206.8 125.8C206.2 113.5 204.3 104.2 208.2 103C215.1 101 214.4 146 243.1 143.6C243.1 143.6 243.6 173.6 228.9 174.5C214.3 175.4 200.1 161.4 196.7 140.5Z" fill="url(#paint5_linear)"/>
<path d="M191.9 160.5C191.9 160.5 189.4 151.6 190.3 141.2C191.2 130.3 197.2 119.9 200.2 119.8C202.6 119.7 202.8 124.2 202.8 127.7C202.9 137.1 202.7 144.1 207.4 151.9C211.2 158.1 218.3 164.6 226.1 163.2C233.5 161.9 237.8 157.7 240.3 150.4C242.3 144.5 240.5 137.1 237.6 131.9C235.8 128.6 232.2 122.5 234.1 120.4C237.7 116.5 272.3 129.7 259.8 177.3C259.8 177.3 246.5 197.1 222 194.5C197.5 191.9 191.9 160.5 191.9 160.5Z" fill="url(#paint6_linear)"/>
<path d="M237.5 201.8C211 208.4 198.7 191.6 193.5 182.8C188.2 174 183.5 155.9 188.2 154.7C192.9 153.5 202.6 174.7 209.1 171.6C217.6 167.6 206 143.1 213.9 140.1C221.8 137.2 226.1 174.8 234.9 173.3C241.7 172.1 236.1 161.1 242.1 159.2C247.1 157.6 247.6 168.2 253.9 165.4C258.8 163.2 254.5 142.6 263.3 145.4C268 146.9 279.5 191.4 237.5 201.8Z" fill="url(#paint7_linear)"/>
<path d="M235.3 194.5C223.9 197.3 214.8 194.8 205.3 192.1C202.6 190.9 201.5 191.6 198.8 190.4C205.7 198.5 217.5 206.8 237.5 201.8C257.7 196.8 265.6 183.9 267.7 171.6C262.8 179.8 251.5 190.5 235.3 194.5Z" fill="#CF3144"/>
<path d="M193.9 152.7C193.6 152.8 193.3 152.6 193.2 152.3C191.5 143.4 193 136.1 194.5 131.5C196.1 126.6 198.1 123.8 198.2 123.7C198.4 123.5 198.7 123.4 199 123.6C199.2 123.8 199.3 124.1 199.1 124.4C199 124.5 191.2 135.5 194.3 152.2C194.3 152.4 194.1 152.6 193.9 152.7Z" fill="#E7F0CF"/>
<path d="M244.2 149.5C244.1 149.5 244.1 149.5 244 149.5C243.7 149.5 243.5 149.2 243.5 148.9C244.5 136.3 236.7 125.3 236.6 125.2C236.4 125 236.5 124.6 236.7 124.4C236.9 124.2 237.3 124.3 237.5 124.5C237.6 124.6 245.7 135.9 244.6 149C244.6 149.2 244.4 149.4 244.2 149.5Z" fill="#E7F0CF"/>
<path d="M209.8 127.7C209.5 127.8 209.2 127.6 209.1 127.3C207.8 119.4 207.1 109.1 207.1 109C207.1 108.7 207.3 108.4 207.6 108.4C207.9 108.4 208.2 108.6 208.2 108.9C208.2 109 209 119.2 210.2 127.1C210.2 127.4 210.1 127.6 209.8 127.7Z" fill="#E7F0CF"/>
<path d="M215.8 164.1C215.5 164.2 215.2 164 215.1 163.7C213.1 152.9 212.9 145.5 212.9 145.4C212.9 145.1 213.1 144.8 213.4 144.8C213.7 144.8 214 145 214 145.3C214 145.4 214.3 152.8 216.2 163.4C216.3 163.8 216.1 164 215.8 164.1Z" fill="#E7F0CF"/>
<path d="M199.2 273.9C199.2 273.9 230.2 245.6 209.7 220.1C191.2 197.1 178.1 207.9 162.6 203.4L160.7 198.3C160.7 198.3 169.3 184.5 191.8 181.6C205.6 179.8 222.6 185.3 234.2 199.8C241.8 209.2 247.3 222.8 245.7 235.8C241.7 268.6 215.5 268.8 215.5 268.8L207.2 280.5L199.2 273.9Z" fill="url(#paint8_linear)"/>
<path d="M214.2 266.8C214.2 266.8 242.3 244.5 230.6 219.2C216.1 188 190.8 193.6 190.8 193.6C190.8 193.6 246.4 220.2 214.2 266.8Z" fill="#FFE374"/>
<path d="M162.7 203.3C178.2 207.9 191.3 197 209.8 220C230.3 245.5 199.3 273.8 199.3 273.8L203.2 277C207.5 272.3 249.5 245.8 222.1 209.8C204.5 186.6 178.1 192.8 161.9 200.7L162.7 203.3Z" fill="url(#paint9_linear)"/>
<path d="M162.7 203.3C162.7 203.3 161.1 203.2 160.2 201.4C159.3 199.5 160.7 198.2 160.7 198.2C160.7 198.2 162.9 201.1 162.7 203.3Z" fill="#8E5012"/>
<path d="M207.2 280.4C206.8 278.2 206.4 276.1 206 273.9C203.7 273.9 201.5 273.9 199.2 273.8C199.5 275.8 199.9 277.7 200.2 279.7C202.5 280 204.9 280.2 207.2 280.4Z" fill="#471B0B"/>
<path d="M197.7 284.7C197.7 284.7 219.7 252.9 196 234.2C174.6 217.4 165.1 229.8 150.3 228.9L147.5 224.7C147.5 224.7 152.5 208.9 172.2 201.6C184.2 197.2 200.4 200.2 213.8 210.8C222.6 217.7 226.9 230.9 228.2 242.9C231.4 273.2 211.3 276.7 211.3 276.7L206.2 289L197.7 284.7Z" fill="url(#paint10_linear)"/>
<path d="M204.3 279.2C204.3 279.2 224.1 254 209.2 233.1C195.3 213.7 174.4 217.5 174.4 217.5C174.4 217.5 223.6 230.7 204.3 279.2Z" fill="#FFE374"/>
<path d="M150.3 228.9C165.1 229.8 174.6 217.4 196 234.2C219.7 252.9 197.7 284.7 197.7 284.7L201.9 286.8C204.8 281.7 225.6 247.1 202.2 227.5C181.6 210.3 161.4 218.7 149.1 226.9L150.3 228.9Z" fill="url(#paint11_linear)"/>
<path d="M150.3 228.9C150.3 228.9 148.8 229.1 147.7 227.7C146.5 226.2 147.5 224.7 147.5 224.7C147.5 224.7 150.1 226.9 150.3 228.9Z" fill="#8E5012"/>
<path d="M206.2 289C205.4 287.1 204.6 285.3 203.8 283.4C201.8 283.8 199.7 284.3 197.7 284.7C198.4 286.4 199.1 288.1 199.8 289.8C201.9 289.5 204.1 289.2 206.2 289Z" fill="#471B0B"/>
<path d="M316.4 154.6C319.3 151 320.5 146.1 320 141.4C319.5 136.5 315.8 132.7 313 128.9C311.7 127.1 310.5 125.3 309.7 123.2C308.1 119 309.4 115.7 311.4 114.9C312.3 114.6 312.5 110.1 311.7 110.1C307.3 110 305 114 302.2 115.8C297.5 118.8 291.2 119.5 287.6 121.1C278.9 124.8 275.7 129.8 273.8 139.4C272.9 144 274.6 148.2 277.9 151.4C282.5 156 289.3 158.5 295.6 159.6C302.2 160.9 311.7 160.4 316.4 154.6Z" fill="url(#paint12_radial)"/>
<path d="M311.7 110.1C310.8 110 309.9 111.2 309.8 112.2C309.6 113.4 310.3 114.8 311.3 114.9C312.3 115 313.2 113.7 313.3 112.6C313.3 111.5 312.7 110.1 311.7 110.1Z" fill="#CAA374"/>
<path opacity="0.5" d="M288.2 124.2C288.2 122.3 296.6 119.6 297.6 120.7C298.6 121.9 288.2 126.3 288.2 124.2Z" fill="#D4BFCD"/>
<path opacity="0.3" d="M309.7 131.2C314.9 140.3 313.3 146.8 312 152.8C311.8 153.5 313 153.9 313.2 153.2C314.7 148.7 316.2 138.2 310 131C309.9 130.7 309.5 130.9 309.7 131.2Z" fill="#42202C"/>
<path opacity="0.3" d="M306.2 135.3C307.3 140.4 306.8 143.1 306.2 147.1C306.1 147.6 307.1 147.6 307.2 147.2C307.9 143.9 308 139.6 306.6 135.2C306.6 134.9 306.1 135 306.2 135.3Z" fill="#42202C"/>
<path d="M312.4 112.7C312.3 113.2 311.7 113.5 311.2 113.3C310.7 113.2 310.4 112.6 310.6 112.1C310.7 111.6 311.3 111.3 311.8 111.5C312.3 111.7 312.6 112.3 312.4 112.7Z" fill="#825E33"/>
<path d="M380.4 216.3C380.4 216.3 387.5 205.3 378.3 198.4C369.2 191.5 359.2 207 359.2 207L380.4 216.3Z" fill="#84B73B"/>
<path d="M280.7 149.1C280.7 149.1 285.8 138.6 297.3 142.6C308.8 146.6 304.3 163.2 304.3 163.2C304.3 163.2 293.7 149 280.7 149.1Z" fill="#84B73B"/>
<path d="M391 193.4C388.6 189.3 374.6 185.9 374.6 185.9C374.6 185.9 386.6 170.7 380 165.3C374.3 160.6 359.1 168.1 359.1 168.1C364.8 156.3 364 147.8 359.3 144.6C349.7 137.9 322.8 157 318.3 149.1C313.8 141.2 297.5 132.7 295.5 136.5C294.1 139.1 299.1 153.4 299.1 153.4C305.7 160 304.9 192.1 304.9 192.1C304.9 192.1 302.7 200.3 302.2 209.9C304.1 208.8 306 207.9 308.2 207.3C310.4 206.9 312.6 206.6 314.8 206.2C318.4 206 321.7 206.6 324.9 208.1C328.3 209.1 331.3 210.9 333.9 213.5C336.5 215.8 338.4 218.6 339.5 221.9C340 222.8 340.4 223.8 340.8 224.8C348.9 217.1 359.1 208.5 366.4 206.4C380.3 202 393.5 197.4 391 193.4Z" fill="#538416"/>
<path d="M343.1 209.7C348.1 216.4 327.8 237.8 327.8 237.8C327.8 237.8 321.6 245.7 309 234.7C296.4 223.7 304.9 192 304.9 192C304.9 192 340.8 206.6 343.1 209.7Z" fill="#71A726"/>
<path d="M350.3 213.2C365 202 384.1 189.4 400 182.2C400 182.2 392.9 164.1 381.4 168.4C377.1 170 378.1 180.8 373.6 177C371.7 175.4 363 161.8 351.1 169.1C336.7 177.9 350.3 213.2 350.3 213.2Z" fill="url(#paint13_linear)"/>
<path d="M322.8 166.3C322.8 166.3 338.2 130.2 345.2 133C352.2 135.8 347.5 152.2 351.2 154.3C355 156.3 362.8 154.3 366.5 159.2C370.4 164.5 356.9 174.7 358.7 176.2C360.6 177.7 372.8 178 356.3 190C344.6 198.5 308.2 203.4 308.2 203.4L322.8 166.3Z" fill="url(#paint14_linear)"/>
<path d="M304.5 174.1C304.5 174.1 312.3 146.6 301.5 127.7C300.1 125.3 317.5 129 318.8 138.7C318.8 138.7 326 136.9 331.6 140.6C342.2 147.6 323.9 169.6 320.2 174.1C316.5 178.7 304.5 174.1 304.5 174.1Z" fill="url(#paint15_linear)"/>
<path d="M320.8 126.7C320.8 126.7 326.9 157.5 308.8 195.8C293 229.3 328.8 207 335.8 199C342.8 191.1 353.5 175.6 349 168.4C344.5 161.2 332.2 162.1 331.9 158.1C331.6 154.1 345.7 147.3 343 139.8C340.6 133.3 329.3 128.1 320.8 126.7Z" fill="url(#paint16_linear)"/>
<path d="M349 168.4C344.5 161.2 332.2 162.1 331.9 158.1C331.6 154.1 345.7 147.3 343 139.8C342.4 138.3 341.4 136.8 340 135.4C340 135.4 343.3 140 341.4 144.1C339.1 149 329.9 153.4 330.7 158.4C331.5 163.6 342.3 162.1 349 168.4Z" fill="url(#paint17_linear)"/>
<path d="M314.4 204.8C313.8 198.6 317.2 189.9 323 187.3C328.8 184.7 332.7 195.9 334.4 195.6C336.1 195.3 342 171 350.1 172.7C356.3 174 356.8 185.7 358.3 186.4C362.2 188.3 370.2 177 380.3 186.6C357.8 198.7 344.6 209.9 332.8 228.9C332.8 228.9 331.6 236.5 324.2 239.5C319.4 241.5 315.6 239.4 315.6 239.4C315.6 239.4 323.4 235.4 321.1 228C317.6 217.2 315 210.9 314.4 204.8Z" fill="url(#paint18_linear)"/>
<path d="M317.9 212.6C317.9 212.6 309.8 219 310.1 224.4C310.5 229.8 321 234.7 323.9 231.6C326.9 228.4 323.6 220.6 323.6 220.6L332.3 232C332.3 232 325.7 244.9 311 236.3C295.7 227.4 304.5 212.9 317.9 212.6Z" fill="url(#paint19_linear)"/>
<path d="M357.4 187.8C360.4 189.4 366.6 184.5 371.2 182.8C365.4 183 360.8 187.8 358.2 186.5C356.8 185.8 356.3 174.2 350 172.8C341.9 171.1 336 195.3 334.3 195.7C333.2 195.9 331 190.9 328 188.4C329 190.8 332.5 198.5 334.8 198.2C337.5 198 341.7 174.4 348.8 174C354.9 173.5 353.6 185.7 357.4 187.8Z" fill="url(#paint20_linear)"/>
<path d="M375.5 204C369.2 200.6 365.6 203.4 362.4 202.9C359.2 202.3 363 196.1 354.8 193.4C346.6 190.7 339.9 200.2 340.3 209.1C340.3 209.1 336.9 205.1 334.1 206.3C331.3 207.5 333.4 214.4 331.5 216.1C329.6 217.8 323.4 212.6 322.5 217.4C321.7 222.1 329.8 230.3 327.2 234.2C320.7 244.2 304.4 234.6 306 224.2C307.2 216.4 328.7 210.1 326.2 201.8C323.8 193.5 315.4 194.4 315.2 190.8C315 187.2 327.9 175.9 325.1 170.4C322.3 164.8 317.9 170.5 315.9 168.9C313.9 167.2 320.3 153.1 313.7 149C308.8 146 305.6 152.1 300.6 149.6C296.9 147.7 287.8 141.2 280.5 149.2C280.5 149.2 296.4 155 298.9 169.4C301.1 182.2 288.7 210 291.9 221C293.9 227.8 300 232.8 307.8 237.1C310.9 238.8 314.1 240.6 317.7 241.2C325.2 242.5 330.8 239.3 335.4 233.9C340.7 227.7 346 222 353.2 218C365.5 211.1 380.2 216.5 380.2 216.5C380.2 216.5 382.8 207.9 375.5 204Z" fill="#8EC726"/>
<path d="M358.7 176.2C356.8 174.7 370.4 164.5 366.5 159.2C362.9 154.3 355 156.3 351.2 154.3C348.6 152.9 350.1 144.4 348.8 138.4C348.7 138.4 348.7 138.3 348.7 138.3C348.7 138.3 347.3 152.5 349.9 154.9C352.5 157.2 361.8 155.9 364.9 159C369.2 163.3 355.3 174 357.3 176.6C358.4 178 362.2 177.6 364.5 179.3C363.3 177.5 359.6 177 358.7 176.2Z" fill="url(#paint21_linear)"/>
<path d="M312.8 149.8C316.6 151.4 316.4 159.7 316.4 162.1C317.2 157.3 317.8 151.4 313.9 148.9C309 145.9 305.8 152 300.8 149.5C297.7 147.9 290.6 143 284.1 146.4C283.9 146.6 283.6 146.7 283.4 146.9C283.4 146.9 288.5 145.2 294 147.2C298.7 148.9 299.7 151.2 302 151.8C305.3 152.7 309.9 148.6 312.8 149.8Z" fill="url(#paint22_linear)"/>
<path d="M378.5 206.4C377.8 205.5 376.8 204.7 375.5 204C369.2 200.6 365.6 203.4 362.4 202.9C359.2 202.3 363 196.1 354.8 193.4C346.6 190.7 339.9 200.2 340.3 209.1C340.3 209.1 343.1 193.3 352.1 194.4C362 195.6 357.8 202.1 361.2 204C365.3 206 369.4 200 378.5 206.4Z" fill="url(#paint23_linear)"/>
<path d="M299.3 147.9C285.8 137.1 264.6 138.5 252.9 152.2C240.7 166.5 243.7 188.6 257.7 200.3C272.4 212.6 296 210.5 307.3 194.8C317.8 180 314.7 160.3 299.3 147.9Z" fill="url(#paint24_linear)"/>
<path opacity="0.5" d="M255.7 154.8C249.8 162.4 248.8 173.1 254.2 178.6C274.1 198.6 304.3 174.3 302.3 158.4C300.5 143.9 271.3 134.7 255.7 154.8Z" fill="url(#paint25_linear)"/>
<path d="M285 145.5C285 145.5 276.6 155.7 278.6 155.5C280.8 155.4 284.7 149.3 286.1 149.8C287.5 150.3 284.5 159.5 285.9 159.8C287.2 160.2 289 151.4 290.1 150.8C291.3 150.2 293.7 156.5 295.2 155.9C296.7 155.4 292.7 150.4 293.4 149.6C294.1 148.8 299 153.7 300 153.5C301 153.3 298.1 147 289.4 143.9C282 141.3 274.6 143 273.7 144.5C272.8 146 282.5 144.1 285 145.5Z" fill="#FB951B"/>
<path d="M307.3 194.7C315.2 183.7 315.4 169.9 308.6 158.5C312.2 168.4 303.9 186.1 288.2 191.8C280 194.8 254.6 195.4 245.3 173.6C245.4 183.6 249.8 193.6 257.7 200.3C272.4 212.6 296 210.5 307.3 194.7Z" fill="url(#paint26_linear)"/>
<path d="M287.3 143.7C287.3 143.7 283.1 144 283.2 145.1C283.4 146.6 292.4 149.2 292.9 147.8C293.3 146.7 290 144.4 290 144.4C290 144.4 294.2 135.9 293.6 132.8C293.1 130.5 287.4 130.8 288.5 134.2C290.1 139 287.3 143.7 287.3 143.7Z" fill="url(#paint27_linear)"/>
<path d="M283.2 145.1C283.4 146.6 292.4 149.2 292.9 147.8C293.3 146.7 290 144.4 290 144.4C290 144.4 290.6 143.1 291.4 141.4C289 141 288.9 138.4 288.9 138.4C288.6 141.4 287.2 143.7 287.2 143.7C287.2 143.7 283.1 143.9 283.2 145.1Z" fill="url(#paint28_linear)"/>
<path d="M289.1 133.1C289.1 131.8 292.6 131.4 293 132.7C293.4 134 289.1 134.1 289.1 133.1Z" fill="#84A54D"/>
<path d="M273.8 149.5C270.5 146.4 264.3 148.6 260.4 153.2C257 157.1 256 161.9 258.8 164.7C261.8 167.6 267.6 166.6 271.7 162.7C275.9 158.5 276.9 152.4 273.8 149.5Z" fill="url(#paint29_linear)"/>
<path d="M272.8 167.5C272.5 166.8 271.6 166.4 270.9 166.8C270.2 167.1 269.8 168 270.2 168.7C270.5 169.4 271.4 169.8 272.1 169.4C272.8 169 273.1 168.2 272.8 167.5Z" fill="#FB941B"/>
<path d="M277.2 161.8C277 161.3 276.3 161 275.8 161.3C275.3 161.6 275 162.1 275.3 162.7C275.5 163.2 276.2 163.5 276.7 163.2C277.2 162.9 277.5 162.4 277.2 161.8Z" fill="#FB941B"/>
<path d="M276.6 167C276.4 166.5 275.8 166.3 275.3 166.5C274.8 166.7 274.6 167.3 274.8 167.8C275 168.3 275.6 168.5 276.1 168.3C276.6 168 276.8 167.5 276.6 167Z" fill="#FB941B"/>
<path d="M302.7 188.5C302.1 188 301.1 188 300.5 188.6C300 189.2 300 190.2 300.6 190.8C301.2 191.3 302.2 191.3 302.8 190.7C303.3 190 303.3 189.1 302.7 188.5Z" fill="#E15700"/>
<path d="M297.7 191.5C297.3 191.1 296.6 191.1 296.2 191.6C295.8 192 295.9 192.7 296.3 193.1C296.7 193.5 297.4 193.5 297.8 193C298.2 192.6 298.1 191.9 297.7 191.5Z" fill="#E15700"/>
<path d="M300.9 194.3C300.6 194 300 194 299.7 194.4C299.4 194.8 299.4 195.3 299.8 195.6C300.1 195.9 300.7 195.9 301 195.5C301.3 195.1 301.3 194.6 300.9 194.3Z" fill="#E15700"/>
<path d="M254.6 189C254.1 188.6 253.2 188.6 252.8 189.2C252.4 189.8 252.4 190.5 253 191C253.5 191.4 254.4 191.4 254.8 190.8C255.2 190.3 255.2 189.5 254.6 189Z" fill="#E15700"/>
<path d="M252.2 186.4C251.9 186.1 251.4 186.2 251.1 186.5C250.9 186.8 250.9 187.3 251.2 187.6C251.5 187.9 252 187.8 252.3 187.5C252.5 187.2 252.5 186.7 252.2 186.4Z" fill="#E15700"/>
<path d="M212.1 181.2C211.9 183.6 212.1 187.2 214.9 192.1C219.3 200 231.4 200.2 240.6 195.1C250.7 189.4 255.9 180.9 251.9 172.3C249.4 167.1 245.4 164.7 243.1 163.6C232.9 169.4 222.1 175.4 212.1 181.2Z" fill="#C79F72"/>
<path d="M242.9 163.6C241.4 164.4 240 165.3 238.5 166.1C240.8 167.5 242.8 169.4 244.2 171.8C248.9 179.3 245.4 189.8 238 194C230.1 198.5 220.4 196.2 215.8 187.8C214.5 185.4 214 181.7 214.5 179.1C213.9 179.4 212.5 180.8 212 181.2C211.8 183.6 212 187.2 214.8 192.1C219.2 200 231.3 200.2 240.5 195.1C250.6 189.4 255.8 180.9 251.8 172.3C249.3 167.1 245.3 164.7 242.9 163.6Z" fill="#B48A60"/>
<path opacity="0.5" d="M242.9 163.6C240.5 165 237.4 170.6 240 173.1C247.6 180.4 246.4 187.1 244 192.9C251.8 187.3 255.3 179.9 251.8 172.3C249.3 167.1 245.3 164.7 242.9 163.6Z" fill="#8F6243"/>
<path d="M212 181.2C212.2 180.1 214.8 170.2 223.7 165.2C232.5 160.3 242 163.2 243 163.7C243.3 170.4 238.5 177.5 232.4 180.9C226.4 184.4 217.5 184.6 212 181.2Z" fill="#E3D6C2"/>
<path d="M214 182.2C219.5 184.5 227 184 232.4 180.9C234.8 179.5 237 177.6 238.8 175.4C228.3 186.8 214 182.2 214 182.2Z" fill="#EDE9D6"/>
<path d="M217.5 177.6C217.6 176.9 219.3 170.6 224.9 167.5C230.4 164.4 236.5 166.3 237.1 166.5C237.3 170.7 234.3 175.2 230.4 177.4C226.6 179.6 221 179.8 217.5 177.6Z" fill="#B79F87"/>
<path d="M219.3 176.6C218.1 174.4 216.4 170.1 215.4 167.7C216.3 165.9 227.9 159.1 229.8 159.4C231.3 161.2 235.2 166.6 235.4 167.5C235.7 170.2 232.9 174.4 229.7 176.2C226.5 178 221.5 178.1 219.3 176.6Z" fill="#E3D6C2"/>
<path d="M229.8 159.4C228.9 159.3 225.7 162.7 225.7 162.7L232.7 173.7C234.4 171.7 235.6 169.3 235.4 167.5C235.2 166.6 231.3 161.2 229.8 159.4Z" fill="#CDBAA4"/>
<path d="M215.1 167.7C215.2 167.2 216.5 162.5 220.7 160.1C224.9 157.8 229.4 159.2 229.9 159.4C230 162.6 227.8 166 224.9 167.6C222 169.2 217.7 169.3 215.1 167.7Z" fill="#F1ECDE"/>
<path d="M215.4 167.8C218 169.3 222.1 169.2 224.9 167.6C225.8 167.1 226.7 166.4 227.4 165.6C221.5 170.1 215.4 167.8 215.4 167.8Z" fill="#F8F6EA"/>
<path d="M288.8 183.7C288.8 183.7 286.1 162.7 286.8 162.4C287.4 162.1 290.7 170.5 291.2 173.5C291.2 173.5 291.8 154.5 293.7 153.8C295.6 153.1 296.1 164.5 295.5 170.9C295.5 170.9 298.6 165.7 299.8 165.8C300.4 165.9 296.9 184.3 296.9 184.3L288.8 183.7Z" fill="url(#paint30_linear)"/>
<path d="M289.6 225.3C288.7 225.2 287.8 224.9 287 224.4C286.2 226 285.4 227.9 285.9 229.6C286 229.8 286.2 229.9 286.4 229.8C287.2 229.2 287.8 228.3 288.2 227.4C288.3 228.5 288.5 231.9 289.1 233.2C289.2 233.4 289.5 233.5 289.7 233.2C290.9 231.6 291.4 229.5 291.7 227.4C292 228.3 292.5 229.1 293.2 229.7C293.4 229.9 293.7 229.8 293.8 229.5C294.6 228 294.4 225.9 293.7 224.4C292.4 225.2 291 225.5 289.6 225.3Z" fill="#AD8C70"/>
<path d="M317.1 209.7C317.6 204.2 314.8 199.2 311.1 195C306.3 189.5 301.1 184.9 299.1 177.3C298.9 176.7 293.9 180.8 292.7 182.9C291.8 179.6 287.1 176.1 287.1 176.5C285 182.2 282.2 185.3 276.6 189.2C271.7 192.5 266.9 195.6 264.7 201C260.8 210.8 267.6 220.6 280.1 224.9C286.2 226.9 293.3 228.2 299.5 226.9C308.5 224.9 316.2 218.7 317.1 209.7Z" fill="url(#paint31_linear)"/>
<path opacity="0.7" d="M287.7 179.8C287.7 179.8 286.6 185.3 274.4 193.3C267.3 197.9 265.2 204.7 267.1 211C268.6 215.9 272.3 219.4 279.2 220.7C287.2 222.2 294.4 217 296.3 209.7C299 199.3 294.3 186.2 287.7 179.8Z" fill="#B64161"/>
<path opacity="0.2" d="M292.4 187.8C280.3 187 267.7 197.5 268.8 208.3C269.7 217.7 280.6 224.3 290.2 224.7C299.8 225 311.8 219.1 313.1 209C314.3 198.4 303.3 188.5 292.4 187.8Z" fill="#C66373"/>
<path d="M300.7 187.5C300.7 187.5 314.1 205.9 301.2 219.9C301.2 219.8 310.1 207.7 300.7 187.5Z" fill="#BE4F62"/>
<path d="M298.7 194.8C298.7 194.8 300.9 205.4 298.6 212.6C298.6 212.6 304 204.3 298.7 194.8Z" fill="#BE4F62"/>
<path d="M277.7 201.3C277.7 201.3 272.5 210.2 278.5 218.4C278.4 218.4 275.7 211.7 277.7 201.3Z" fill="#CC6077"/>
<path d="M282.4 200.6C282.4 200.6 280 207 282.4 213C282.4 213 282.3 202.5 282.4 200.6Z" fill="#CC6077"/>
<path d="M280.3 192.5C277.5 193.2 274.8 196.2 275.3 198.1C275.7 199.4 277.5 199.9 279.5 199.2C281.9 198.4 284.1 196.1 284 194.3C283.9 192.7 282.2 192 280.3 192.5Z" fill="#CD8095"/>
<path opacity="0.7" d="M317.1 209.7C317.5 205.4 315.9 201.3 313.3 197.8C313.4 206.7 310.5 217.7 298.3 222.8C291.9 225.5 283 225.6 276.4 223.1C275.1 222.6 273.9 222 272.7 221.4C274.8 222.8 277.3 224 280 224.9C286.1 226.9 293.2 228.2 299.4 226.9C308.5 224.9 316.2 218.7 317.1 209.7Z" fill="#72162F"/>
<path d="M245.1 215.2C245.1 215.2 241 193 253 172.6C253 172.6 260.9 182.8 264.1 202.1C264.1 202.1 267.3 187.5 280.7 179C280.7 179 290.9 195.6 274.6 228.3C258.1 261.3 245.1 215.2 245.1 215.2Z" fill="#789844"/>
<path d="M257.8 251.1C257.8 251.1 277.5 258.1 293.9 251.9C311.7 245.1 314.3 212.8 300.2 191.5C300.2 191.4 306.4 236 257.8 251.1Z" fill="#72AA44"/>
<path d="M227.4 246.2C227.4 246.2 199.3 221.6 220.8 214.6C220.8 214.6 209.6 198.2 229.5 191.7C229.5 191.7 234.2 170.4 253.9 183.5C253.9 183.5 267.7 167.6 276.6 186.8C276.6 186.8 295.6 183.3 291.8 202.3C291.8 202.3 304.7 202.5 299.5 213.5C299.5 213.5 312.1 222.9 296.2 233.9C296.2 233.9 300.9 251.2 277.5 245.6C277.5 245.5 247 257.5 227.4 246.2Z" fill="url(#paint32_linear)"/>
<path d="M299.5 213.5C304.7 202.5 291.8 202.3 291.8 202.3C288.5 216.8 278 219.8 270.2 219C257.9 217.7 254.7 209.4 254.7 209.4C254.7 209.4 252.4 219.6 240.1 222.6C227.8 225.6 220.8 214.7 220.8 214.7C199.3 221.7 227.4 246.3 227.4 246.3C247.1 257.5 277.5 245.6 277.5 245.6C300.9 251.2 296.2 233.9 296.2 233.9C312.1 222.8 299.5 213.5 299.5 213.5Z" fill="#C0C9A1"/>
<path opacity="0.2" d="M274.6 195.5C274.8 193.7 274.7 191.9 274.2 190.2C272.3 183.1 264 181 258.4 185.3C255.6 187.5 253.9 190.7 253.3 194.2C249 191.7 243.9 190.7 238.9 192.6C234.5 194.2 230.8 197.6 229.8 202.2C228.6 207.4 231.4 212.3 235.9 214.8C235.9 214.8 236 214.8 236 214.9C235.5 215.8 235 216.7 234.7 217.8C232.9 224 236.8 230.8 243.6 231.1C248.7 231.3 252.5 228 255.3 224.1C257.9 228.7 262.4 232.2 268 232.6C272.1 232.9 275.5 231.1 277.7 228.3C277.9 228.3 278.2 228.3 278.4 228.3C282.3 228.1 285.6 225.1 285.6 221.1V221C285.6 220.4 285.5 219.7 285.3 219.1C287.7 218.4 289.7 216.7 290.2 214.2C292.3 205 284.1 195.5 274.6 195.5Z" fill="white"/>
<path opacity="0.8" d="M237.3 193.3C236.1 193.7 235.4 195 235.6 196.2C235.9 197.5 237.1 198.5 238.5 198.3C239.9 198.1 240.8 196.6 240.6 195.3C240.3 193.7 238.7 192.8 237.3 193.3Z" fill="white"/>
<path d="M212.1 198.7C212.1 198.7 199.7 223.6 212.4 242.5C225.2 261.5 249.7 254.9 249.7 254.9V260.8H270.8L269.8 254.9C269.8 254.9 293.7 250 286 217.2C286 217.2 283.7 220.5 282.5 223.8C282.5 223.8 284.6 212.8 269.4 201.8C269.4 201.8 272 216.4 266.1 228.5L262.8 221C261.1 222.5 258.2 225.5 256.2 230.1C254.1 235.2 254.1 239.6 254.3 241.9C252.3 242.1 243.7 243 235.6 237.2C228.3 232 226 224.8 225.4 222.6C224.7 224.3 224 226.5 223.6 229C223.1 231.9 223.1 234.5 223.2 236.6C223.1 236.6 213.1 229 212.1 198.7Z" fill="#789844"/>
<path opacity="0.8" d="M238.9 183.2C237.2 183.9 236 185.6 236.4 187.4C236.8 189.3 238.9 190.5 240.9 190.1C243.2 189.6 244.7 187.3 244 185.3C243.4 183.3 240.9 182.4 238.9 183.2Z" fill="white"/>
<path opacity="0.8" d="M225.4 197.2C224.5 197.5 224 198.4 224.1 199.4C224.3 200.4 225.2 201.1 226.3 200.9C227.3 200.7 228 199.7 227.8 198.7C227.6 197.5 226.5 196.9 225.4 197.2Z" fill="white"/>
<path opacity="0.8" d="M248.6 185.8C247.8 186.1 247.3 186.9 247.4 187.8C247.6 188.7 248.5 189.4 249.4 189.2C250.4 189 251 188 250.8 187.1C250.7 186.1 249.6 185.5 248.6 185.8Z" fill="white"/>
<path d="M249.7 254.9V260.8H270.8L269.8 254.9C258.5 255.4 249.7 254.9 249.7 254.9Z" fill="#789844"/>
<path d="M359.4 227.5C357.7 209.6 340.4 194 321.5 197.4C303.4 200.7 291.9 219.8 296.2 237.7C300.6 255.6 319.7 267 336.9 261.9C351.8 257.5 360.8 242.1 359.4 227.5Z" fill="#CB171E"/>
<path opacity="0.4" d="M350.4 214.8C347.8 203.2 327.4 195.4 314.7 203.3C308 207.5 302.7 216.5 304.9 223.8C308.6 235.6 331.9 241 343.6 231.3C347.9 227.7 351.8 221.1 350.4 214.8Z" fill="#E84655"/>
<path d="M335.3 202.3C335.3 201.9 335.2 201.6 335.2 201.2C328.4 199.1 320.6 199.6 314.7 203.3C310.6 205.9 307.1 210.3 305.5 215.1C314.5 202.7 326.8 201.4 335.3 202.3Z" fill="#F1737C"/>
<path d="M338.6 203.3C338.6 203.3 339.7 192 340.9 191.4C342.1 190.8 343.5 201 343.5 201C343.5 201 349.3 195.4 351.3 196.6C353.2 197.8 349 205.4 349 205.4C349 205.4 355.8 201.5 357.1 203.7C358.5 205.9 347.1 211.1 347.1 211.1C347.1 211.1 341.1 210.1 338.6 203.3Z" fill="url(#paint33_linear)"/>
<path d="M182.4 226.5L189.1 245.2C189.1 245.2 175 403.5 173.5 409.9C173.5 409.9 319.9 415.7 366.7 411.2L359.3 397.7V242C359.3 242 264.2 239.4 182.4 226.5Z" fill="url(#paint34_linear)"/>
<path opacity="0.5" d="M212.5 411.3C217 411.4 221.7 411.6 226.7 411.7L233.8 233.7L220.1 232L212.5 411.3Z" fill="white"/>
<path opacity="0.5" d="M323.6 412.9L328.1 240.8L314.4 240L308.8 412.9C313.9 412.9 318.8 412.9 323.6 412.9Z" fill="white"/>
<path opacity="0.3" d="M221.7 233.1C221.4 298.3 249.2 339.7 276.8 339.5C302.8 339.3 330.6 300.3 328.2 240.8C323.2 240.5 320.6 240.4 316.1 240C312.5 291.1 289.6 333.7 273.7 335.6C248.4 338.6 228.4 271.3 233.8 233.6C229.3 233.1 226.2 233.6 221.7 233.1Z" fill="#5C807B"/>
<path d="M220.1 232C219.8 297.2 244.2 338.6 271.8 339.9C298.6 341.1 323.2 301.3 328.1 240.8C323.1 240.5 318.9 240.4 314.4 240C306.5 295.2 287.1 333.3 271.4 332.9C255.5 332.4 237.6 291.8 233.9 233.7C229.3 233.1 224.7 232.5 220.1 232Z" fill="white"/>
<path d="M268 362.5C270.6 389.3 291.2 443.1 352.1 432.4C412.2 421.8 407.6 350.2 403.9 340.9C391.3 341.4 284.3 358.5 268 362.5Z" fill="#58A037"/>
<path d="M401.6 341C383.6 342.7 304.3 355.4 276 360.8C275.3 365.4 292.4 436.5 352.5 425.9C409.3 415.8 404.6 346.6 401.6 341Z" fill="#ADCC7A"/>
<path d="M399.2 341.301C378.1 343.701 307.5 354.901 278.5 360.401C279.1 368.501 298.2 432.701 351.1 422.701C403.6 412.701 401.9 348.101 399.2 341.301Z" fill="#F1D7D2"/>
<path d="M283.6 358.901C282 359.501 298.5 427.001 350.2 417.201C400.5 407.701 396.6 343.201 393.9 341.501C389.9 339.101 292.2 355.401 283.6 358.901Z" fill="url(#paint35_linear)"/>
<path d="M314.6 369.701C312.3 369.501 308 381.801 314.5 381.901C320.6 381.901 317.3 369.901 314.6 369.701Z" fill="#5A2C27"/>
<path d="M345.6 369.301C343.5 370.101 342.1 381.601 348 380.401C354.5 378.901 348.1 368.301 345.6 369.301Z" fill="#5A2C27"/>
<path d="M372.2 356C369.8 357 370.2 369.1 375.9 366.5C381.2 364.1 374 355.2 372.2 356Z" fill="#914028"/>
<path d="M332.6 389.8C330.5 390.2 327.5 402.7 333.8 402C341.2 401.3 335.5 389.3 332.6 389.8Z" fill="#5A2C27"/>
<path d="M363 384.5C361.7 385 361.1 396.5 366.6 394.7C371.9 392.9 365.6 383.4 363 384.5Z" fill="#5A2C27"/>
<path d="M293.7 360.5C293.4 358.1 320.9 353.4 321.9 354.5C323.8 356.9 294 363.1 293.7 360.5Z" fill="#FFDAD1"/>
<path d="M326.5 354.2C325.9 352.2 336.5 350.3 336.9 352.4C337.3 354.4 327.3 356.5 326.5 354.2Z" fill="#FFDAD1"/>
<path d="M243.8 395.7C243.8 395.7 236.2 388 245 378.5C245 378.5 246.7 382.9 246 390.4C246 390.4 248.5 384.9 257.6 386.6C257.6 386.6 258 395 251.9 396.8C251.9 396.8 257.2 396.5 260.5 400.6C260.5 400.6 250.6 403.5 243.8 395.7Z" fill="#77B33E"/>
<path d="M241.4 384.3C239.2 390.9 243.9 395.6 243.9 395.6C250.6 403.4 260.5 400.5 260.5 400.5C253.3 401.1 251.9 396.7 251.9 396.7C254.2 396 255.6 394.4 256.5 392.6C253.3 396.1 249.3 393.9 249.3 393.9C249.7 388.8 253.8 386.6 254.6 386.2C248 386.1 246.1 390.3 246.1 390.3C246.8 382.9 245.1 378.4 245.1 378.4C245.8 384.7 244.6 389 244.6 389C241.4 387.9 241.2 385.5 241.4 384.3Z" fill="#629738"/>
<path d="M248 394.401C241 386.501 231.5 382.401 222.8 388.301C214.3 394.101 205 414.501 211.2 423.101C216.6 430.501 238.2 431.501 248.8 421.801C258.5 413.001 254.9 402.101 248 394.401Z" fill="url(#paint36_linear)"/>
<path opacity="0.5" d="M209.3 417.601C209.5 419.701 210.1 421.601 211.2 423.101C216.6 430.501 238.2 431.501 248.8 421.801C250.3 420.401 251.5 419.001 252.4 417.601C244.5 424.401 218.6 430.001 209.3 417.601Z" fill="url(#paint37_linear)"/>
<path opacity="0.5" d="M215.2 414.101C210.9 409.801 219.5 390.301 229.1 389.001C238.7 387.801 248.3 397.101 246.1 404.301C243 414.601 221.7 420.601 215.2 414.101Z" fill="#F75E22"/>
<path d="M222.9 392.401C221.7 389.901 229.4 385.801 231 388.201C232.8 390.901 224.2 395.001 222.9 392.401Z" fill="#FBC099"/>
<path d="M228.6 420.2C228.2 419.6 224.7 420.4 225.8 422C226.9 423.7 228.9 420.7 228.6 420.2Z" fill="#EB561E"/>
<path d="M224.5 398C224.1 397.4 220.7 398.2 221.7 399.8C222.9 401.5 224.9 398.5 224.5 398Z" fill="url(#paint38_linear)"/>
<path d="M239.1 408.2C238.6 407.7 235.4 409.1 236.7 410.5C238.2 412 239.6 408.6 239.1 408.2Z" fill="url(#paint39_linear)"/>
<path d="M248.9 409.301C248.4 408.801 245.2 410.201 246.5 411.601C247.9 413.001 249.3 409.701 248.9 409.301Z" fill="#EB561E"/>
<path d="M217.4 417.801C216.9 417.301 213.7 418.701 215 420.101C216.4 421.601 217.8 418.301 217.4 417.801Z" fill="#EB561E"/>
<path d="M234.7 399.2C234.2 398.7 231 400.1 232.3 401.5C233.7 403 235.1 399.6 234.7 399.2Z" fill="url(#paint40_linear)"/>
<path d="M228.7 409.6C228.2 409.1 225 410.5 226.3 412C227.7 413.3 229.1 410 228.7 409.6Z" fill="url(#paint41_linear)"/>
<path d="M220.4 407.3C220 406.8 216.9 408.2 218.2 409.5C219.5 410.8 220.8 407.7 220.4 407.3Z" fill="url(#paint42_linear)"/>
<path d="M238.9 418.801C238.4 418.301 235.2 419.701 236.5 421.101C238 422.501 239.3 419.201 238.9 418.801Z" fill="#EB561E"/>
<path d="M234 439C232.7 435.9 236.5 418 252.9 415C264.7 412.8 271.5 425.2 265.7 433.2C256.9 445.4 235.3 442.3 234 439Z" fill="url(#paint43_linear)"/>
<path opacity="0.2" d="M237.4 432.799C235.9 431.299 242.5 419.699 247.7 418.199C252.8 416.699 258.4 420.999 256.6 426.799C254.8 432.399 240.7 436.199 237.4 432.799Z" fill="#FFDB65"/>
<path d="M259 417.9C259 417.9 258.9 417.9 258.7 417.9C258.5 417.9 258.3 417.8 257.9 417.8C255.8 417.6 253.6 418 251.5 418.7C250.2 419.2 248.9 419.8 247.7 420.5C247.1 420.9 246.5 421.3 245.9 421.7C244.4 422.9 243.1 424.4 242.1 426C241.8 426.5 241.6 426.9 241.4 427.3C241.2 427.7 241 428 240.9 428.3C240.8 428.6 240.7 428.8 240.6 429C240.5 429.2 240.5 429.2 240.5 429.2C240.4 429.3 240.5 429.5 240.6 429.5C240.7 429.6 240.9 429.5 240.9 429.4C240.9 429.4 240.9 429.3 241 429.2C241.1 429.1 241.2 428.8 241.3 428.6C241.4 428.3 241.6 428 241.8 427.6C242 427.2 242.3 426.8 242.6 426.4C243.3 425.5 244.1 424.5 244.9 423.7C245.4 423.3 245.9 422.8 246.4 422.4C248 421.2 250.1 420.2 252.2 419.7V419.8C252.2 419.9 252.2 419.9 252.3 420C252.3 420.1 252.3 420.1 252.3 420.2C252.3 420.3 252.4 420.5 252.4 420.7C252.4 420.9 252.4 421.1 252.4 421.3C252.4 421.5 252.3 421.7 252.3 422C252.2 422.2 252.2 422.5 252.1 422.7C252 422.9 251.9 423.2 251.8 423.4C251.7 423.6 251.5 423.9 251.4 424.1C251.3 424.3 251.1 424.5 250.9 424.7C250.7 424.9 250.6 425.1 250.4 425.3C250.2 425.5 250.1 425.6 249.9 425.8C249.3 426.4 248.9 426.8 248.9 426.8C248.8 426.9 248.8 427.1 248.9 427.2C249 427.3 249.2 427.4 249.4 427.2C249.4 427.2 249.8 426.8 250.5 426.3C250.7 426.2 250.8 426 251 425.8C251.2 425.6 251.4 425.4 251.6 425.2C251.8 425 252 424.8 252.2 424.6C252.4 424.4 252.6 424.1 252.7 423.9C252.9 423.6 253 423.4 253.2 423.1C253.3 422.8 253.4 422.5 253.5 422.2C253.6 421.9 253.7 421.6 253.7 421.3C253.7 421 253.8 420.8 253.7 420.5C253.7 420.3 253.7 420 253.6 419.8C253.6 419.6 253.5 419.4 253.5 419.3C255.1 419 256.7 419 258.2 419.3C258.4 419.3 258.4 419.3 258.4 419.3C258.8 419.4 259.2 419.1 259.3 418.7C259.7 418.4 259.4 418 259 417.9Z" fill="url(#paint44_linear)"/>
<path d="M261.4 425.9C261.1 425.7 260.6 425.9 260.4 426.2C260.4 426.2 260.4 426.3 260.3 426.5C260.2 426.7 260.1 426.9 259.9 427.2C259.6 427.8 259.1 428.5 258.4 429.4C257.9 429.1 257.1 428.9 256.7 428.8C254.5 428.2 252 428.1 249.8 428.6C247.1 429.3 244.6 430.4 242.2 431.9C242.1 432 242 432.2 242.1 432.3C242.2 432.5 242.4 432.5 242.5 432.4C243.9 431.6 245.4 430.8 246.9 430.2C250.1 429.1 253.7 428.9 256.9 430.3C257 430.4 257.1 430.4 257.2 430.4C256.6 431.1 255.8 431.8 255 432.4C252.5 434.4 249.1 435.3 246 435.7C243.6 436.1 241.2 436.2 238.8 435.5C238.1 435.3 237.7 435.2 237.7 435.2C237.6 435.2 237.5 435.2 237.4 435.3C237.4 435.4 237.4 435.5 237.5 435.6C237.5 435.6 237.9 435.7 238.6 436C242.2 437.2 246.2 436.7 249.9 435.8C251.9 435.3 254 434.4 255.6 433.3C256.9 432.3 258 431.3 258.9 430.3C259.8 429.3 260.4 428.4 260.8 427.8C261 427.5 261.2 427.2 261.3 427C261.4 426.8 261.5 426.7 261.5 426.7C261.9 426.5 261.8 426.1 261.4 425.9Z" fill="url(#paint45_linear)"/>
<path opacity="0.2" d="M258.7 415.1C261.9 417.5 263.7 421.8 262.9 425.3C259.1 441.7 238.8 439 236.5 438C235.3 437.5 234.6 435.8 234.1 434.4C233.7 436.5 233.7 438.2 234 439C235.4 442.3 256.9 445.4 265.7 433.2C270.4 426.6 266.7 417.1 258.7 415.1Z" fill="#A03F19"/>
<path d="M242.9 428.9C241.9 428.2 248.4 421.3 250 422.2C251.2 422.9 243.7 429.5 242.9 428.9Z" fill="url(#paint46_linear)"/>
<rect x="157.78" y="263.028" width="101" height="74" rx="18" transform="rotate(-9.45304 157.78 263.028)" fill="#99BCB2"/>
<rect x="154" y="258.588" width="101" height="75" rx="18" transform="rotate(-9.45304 154 258.588)" fill="white"/>
<path d="M199.677 267.615L203.55 292.516L195.155 293.822L192.267 275.253L187.998 275.917L187.014 269.585L199.677 267.615Z" fill="#99BCB2"/>
<path d="M214.276 274.344C217.762 273.802 220.437 274.138 222.302 275.354C224.187 276.543 225.314 278.323 225.683 280.694C225.926 282.259 225.736 283.77 225.113 285.228C224.509 286.657 223.418 287.92 221.84 289.016C220.258 290.087 218.198 290.821 215.661 291.215C213.906 291.488 212.121 291.571 210.308 291.465C208.517 291.355 206.913 291.033 205.494 290.501L207.377 283.869C208.513 284.3 209.674 284.58 210.86 284.712C212.07 284.839 213.221 284.818 214.312 284.649C215.284 284.497 216.041 284.21 216.582 283.785C217.143 283.334 217.376 282.8 217.28 282.183C217.188 281.59 216.847 281.194 216.257 280.994C215.664 280.771 214.656 280.77 213.233 280.991L206.011 282.114L204.905 266.802L221.446 264.23L222.431 270.562L212.791 272.061L212.995 274.543L214.276 274.344Z" fill="#99BCB2"/>
<path d="M191.14 314.686L190.445 310.331L188.94 314.245L187.251 314.508L184.686 311.136L185.378 315.583L181.767 316.144L180.254 306.415L184.505 305.754L187.522 309.93L189.432 304.988L193.202 304.401L194.751 314.125L191.14 314.686Z" fill="#99BCB2"/>
<path d="M195.105 304.105L199.106 303.483L199.79 307.876L202.468 302.96L206.168 302.385L207.681 312.114L203.679 312.736L202.993 308.325L200.335 313.256L196.618 313.834L195.105 304.105Z" fill="#99BCB2"/>
<path d="M208.045 302.093L212.047 301.471L212.578 304.885L215.317 304.459L214.786 301.045L218.788 300.422L220.301 310.151L216.299 310.774L215.806 307.608L213.067 308.034L213.56 311.2L209.558 311.822L208.045 302.093Z" fill="#99BCB2"/>
<path d="M231.664 298.42L229.206 308.967C228.893 310.315 228.397 311.303 227.718 311.931C227.038 312.558 226.147 312.958 225.044 313.13C224.499 313.214 223.934 313.217 223.351 313.138C222.782 313.069 222.317 312.928 221.956 312.717L222.861 309.753C223.087 309.876 223.331 309.965 223.595 310.021C223.871 310.076 224.127 310.084 224.364 310.047C224.803 309.979 225.115 309.797 225.299 309.501L219.676 300.284L223.803 299.642L226.623 304.541L227.858 299.012L231.664 298.42Z" fill="#99BCB2"/>
<path d="M242.392 299.957L239.422 300.419L240.448 307.018L236.446 307.64L235.42 301.042L232.449 301.503L231.963 298.373L241.905 296.827L242.392 299.957Z" fill="#99BCB2"/>
</g>
<defs>
<linearGradient id="paint0_linear" x1="452.834" y1="48.6842" x2="38.6006" y2="367.849" gradientUnits="userSpaceOnUse">
<stop stop-color="#8FFFF2"/>
<stop offset="1" stop-color="#C1F8A0"/>
</linearGradient>
<linearGradient id="paint1_linear" x1="340.873" y1="443.081" x2="118.466" y2="353.625" gradientUnits="userSpaceOnUse">
<stop stop-color="#B38A81"/>
<stop offset="1" stop-color="#E2D2CE"/>
</linearGradient>
<linearGradient id="paint2_linear" x1="153.09" y1="148.629" x2="213.014" y2="205.449" gradientUnits="userSpaceOnUse">
<stop stop-color="#669E3E"/>
<stop offset="1" stop-color="#88C053"/>
</linearGradient>
<linearGradient id="paint3_linear" x1="386.288" y1="208.972" x2="326.364" y2="265.791" gradientUnits="userSpaceOnUse">
<stop stop-color="#669E3E"/>
<stop offset="1" stop-color="#88C053"/>
</linearGradient>
<linearGradient id="paint4_linear" x1="221.72" y1="110.714" x2="236.664" y2="151.302" gradientUnits="userSpaceOnUse">
<stop offset="0.1104" stop-color="#BCC151"/>
<stop offset="0.6324" stop-color="#EE384E"/>
<stop offset="1" stop-color="#C93042"/>
</linearGradient>
<linearGradient id="paint5_linear" x1="213.737" y1="110.491" x2="224.17" y2="163.928" gradientUnits="userSpaceOnUse">
<stop offset="0.1104" stop-color="#BCC151"/>
<stop offset="0.6993" stop-color="#EE384E"/>
<stop offset="1" stop-color="#C93042"/>
</linearGradient>
<linearGradient id="paint6_linear" x1="221.562" y1="122.529" x2="232.406" y2="188.936" gradientUnits="userSpaceOnUse">
<stop offset="0.1104" stop-color="#BCC151"/>
<stop offset="0.6324" stop-color="#EE384E"/>
<stop offset="1" stop-color="#C93042"/>
</linearGradient>
<linearGradient id="paint7_linear" x1="225.525" y1="147.312" x2="233.828" y2="210.246" gradientUnits="userSpaceOnUse">
<stop offset="0.1104" stop-color="#BCC151"/>
<stop offset="0.6324" stop-color="#EE384E"/>
<stop offset="1" stop-color="#C93042"/>
</linearGradient>
<linearGradient id="paint8_linear" x1="617.014" y1="-145.733" x2="521.001" y2="-60.0024" gradientUnits="userSpaceOnUse">
<stop offset="0.016208" stop-color="#D18D14"/>
<stop offset="0.3542" stop-color="#FDBF24"/>
<stop offset="1" stop-color="#FFCE4E"/>
</linearGradient>
<linearGradient id="paint9_linear" x1="490.513" y1="-169.074" x2="557.658" y2="-258.742" gradientUnits="userSpaceOnUse">
<stop stop-color="#FDBF24"/>
<stop offset="0.8116" stop-color="#F4A81F"/>
<stop offset="0.9936" stop-color="#D5961F"/>
</linearGradient>
<linearGradient id="paint10_linear" x1="207.479" y1="293.401" x2="180.067" y2="206.946" gradientUnits="userSpaceOnUse">
<stop offset="0.016208" stop-color="#D18D14"/>
<stop offset="0.3542" stop-color="#FDBF24"/>
<stop offset="1" stop-color="#FFCE4E"/>
</linearGradient>
<linearGradient id="paint11_linear" x1="144.184" y1="233.358" x2="201.478" y2="255.616" gradientUnits="userSpaceOnUse">
<stop stop-color="#FDBF24"/>
<stop offset="0.8116" stop-color="#F4A81F"/>
<stop offset="0.9936" stop-color="#D5961F"/>
</linearGradient>
<radialGradient id="paint12_radial" cx="0" cy="0" r="1" gradientUnits="userSpaceOnUse" gradientTransform="translate(301.34 112.136) rotate(16.4578) scale(52.1952)">
<stop stop-color="#AD8A7E"/>
<stop offset="0.3367" stop-color="#9E7688"/>
<stop offset="0.5224" stop-color="#815D70"/>
<stop offset="0.7108" stop-color="#6A495D"/>
<stop offset="0.8289" stop-color="#614256"/>
</radialGradient>
<linearGradient id="paint13_linear" x1="391.559" y1="163.783" x2="332.391" y2="207.638" gradientUnits="userSpaceOnUse">
<stop stop-color="#8EC726"/>
<stop offset="1" stop-color="#6D9F3B"/>
</linearGradient>
<linearGradient id="paint14_linear" x1="363.176" y1="146.858" x2="339.432" y2="173.381" gradientUnits="userSpaceOnUse">
<stop stop-color="#8EC726"/>
<stop offset="1" stop-color="#6D9F3B"/>
</linearGradient>
<linearGradient id="paint15_linear" x1="310.391" y1="104.733" x2="319.05" y2="156.171" gradientUnits="userSpaceOnUse">
<stop stop-color="#8EC726"/>
<stop offset="1" stop-color="#6D9F3B"/>
</linearGradient>
<linearGradient id="paint16_linear" x1="339.143" y1="145.172" x2="315.611" y2="188.494" gradientUnits="userSpaceOnUse">
<stop stop-color="#8EC726"/>
<stop offset="1" stop-color="#6D9F3B"/>
</linearGradient>
<linearGradient id="paint17_linear" x1="341.864" y1="153.889" x2="324.438" y2="229.516" gradientUnits="userSpaceOnUse">
<stop stop-color="#C7E339"/>
<stop offset="0.3046" stop-color="#B9DD3E"/>
<stop offset="0.8776" stop-color="#95CE4B"/>
<stop offset="0.9975" stop-color="#8CCB4E"/>
<stop offset="1" stop-color="#8CCB4E"/>
</linearGradient>
<linearGradient id="paint18_linear" x1="353.772" y1="181.046" x2="321.002" y2="237.472" gradientUnits="userSpaceOnUse">
<stop stop-color="#8EC726"/>
<stop offset="0.9975" stop-color="#5D9734"/>
</linearGradient>
<linearGradient id="paint19_linear" x1="329.542" y1="188.954" x2="316.903" y2="230.319" gradientUnits="userSpaceOnUse">
<stop stop-color="#70A51E"/>
<stop offset="0.9975" stop-color="#588D25"/>
<stop offset="1" stop-color="#588D25"/>
</linearGradient>
<linearGradient id="paint20_linear" x1="356.126" y1="157.175" x2="338.7" y2="232.803" gradientUnits="userSpaceOnUse">
<stop stop-color="#C7E339"/>
<stop offset="0.3046" stop-color="#B9DD3E"/>
<stop offset="0.8776" stop-color="#95CE4B"/>
<stop offset="0.9975" stop-color="#8CCB4E"/>
<stop offset="1" stop-color="#8CCB4E"/>
</linearGradient>
<linearGradient id="paint21_linear" x1="357.165" y1="132.266" x2="359.79" y2="229.231" gradientUnits="userSpaceOnUse">
<stop stop-color="#C7E339"/>
<stop offset="0.3046" stop-color="#B9DD3E"/>
<stop offset="0.8776" stop-color="#95CE4B"/>
<stop offset="0.9975" stop-color="#8CCB4E"/>
<stop offset="1" stop-color="#8CCB4E"/>
</linearGradient>
<linearGradient id="paint22_linear" x1="299.739" y1="133.822" x2="302.365" y2="230.785" gradientUnits="userSpaceOnUse">
<stop stop-color="#C7E339"/>
<stop offset="0.3046" stop-color="#B9DD3E"/>
<stop offset="0.8776" stop-color="#95CE4B"/>
<stop offset="0.9975" stop-color="#8CCB4E"/>
<stop offset="1" stop-color="#8CCB4E"/>
</linearGradient>
<linearGradient id="paint23_linear" x1="370.053" y1="160.383" x2="352.627" y2="236.012" gradientUnits="userSpaceOnUse">
<stop stop-color="#C7E339"/>
<stop offset="0.3046" stop-color="#B9DD3E"/>
<stop offset="0.8776" stop-color="#95CE4B"/>
<stop offset="0.9975" stop-color="#8CCB4E"/>
<stop offset="1" stop-color="#8CCB4E"/>
</linearGradient>
<linearGradient id="paint24_linear" x1="284.255" y1="135.475" x2="276.331" y2="198.602" gradientUnits="userSpaceOnUse">
<stop stop-color="#FFAD00"/>
<stop offset="0.2526" stop-color="#FFA700"/>
<stop offset="0.5734" stop-color="#FF9800"/>
<stop offset="0.9299" stop-color="#FF7E00"/>
<stop offset="0.9755" stop-color="#FF7A00"/>
</linearGradient>
<linearGradient id="paint25_linear" x1="271.947" y1="130.721" x2="284.231" y2="221.127" gradientUnits="userSpaceOnUse">
<stop stop-color="#FFBA26"/>
<stop offset="0.3174" stop-color="#FFB426"/>
<stop offset="0.7192" stop-color="#FFA526"/>
<stop offset="0.9755" stop-color="#FF9726"/>
<stop offset="1" stop-color="#FF9726"/>
</linearGradient>
<linearGradient id="paint26_linear" x1="272.633" y1="101.628" x2="281.97" y2="202.915" gradientUnits="userSpaceOnUse">
<stop stop-color="#FB9600"/>
<stop offset="0.2778" stop-color="#FB9100"/>
<stop offset="0.6132" stop-color="#FB8200"/>
<stop offset="0.9755" stop-color="#FB6A00"/>
<stop offset="1" stop-color="#FB6A00"/>
</linearGradient>
<linearGradient id="paint27_linear" x1="291.505" y1="135.646" x2="288.054" y2="146.378" gradientUnits="userSpaceOnUse">
<stop stop-color="#6D8A3F"/>
<stop offset="0.2312" stop-color="#73873C"/>
<stop offset="0.5249" stop-color="#827F35"/>
<stop offset="0.8512" stop-color="#9C7128"/>
<stop offset="0.9755" stop-color="#A86B22"/>
</linearGradient>
<linearGradient id="paint28_linear" x1="293.989" y1="132.966" x2="288.625" y2="145.078" gradientUnits="userSpaceOnUse">
<stop stop-color="#62722E"/>
<stop offset="0.249" stop-color="#676F2C"/>
<stop offset="0.5508" stop-color="#766826"/>
<stop offset="0.8787" stop-color="#8E5C1C"/>
<stop offset="0.9755" stop-color="#975819"/>
<stop offset="1" stop-color="#975819"/>
</linearGradient>
<linearGradient id="paint29_linear" x1="273.849" y1="130.859" x2="255.194" y2="197.228" gradientUnits="userSpaceOnUse">
<stop stop-color="#FFCA52"/>
<stop offset="0.4782" stop-color="#FFC452"/>
<stop offset="0.9755" stop-color="#FFB852"/>
<stop offset="1" stop-color="#FFB852"/>
</linearGradient>
<linearGradient id="paint30_linear" x1="291.759" y1="189.905" x2="293.899" y2="155.337" gradientUnits="userSpaceOnUse">
<stop stop-color="#669E3E"/>
<stop offset="1" stop-color="#9EC251"/>
</linearGradient>
<linearGradient id="paint31_linear" x1="272.844" y1="152.72" x2="296.693" y2="227.125" gradientUnits="userSpaceOnUse">
<stop stop-color="#C64F69"/>
<stop offset="0.5954" stop-color="#962C47"/>
<stop offset="1" stop-color="#73122E"/>
</linearGradient>
<linearGradient id="paint32_linear" x1="252.626" y1="174.725" x2="261.057" y2="244.507" gradientUnits="userSpaceOnUse">
<stop stop-color="#E3E9D5"/>
<stop offset="1" stop-color="#D3D7BD"/>
</linearGradient>
<linearGradient id="paint33_linear" x1="347.572" y1="199.917" x2="340.371" y2="209.203" gradientUnits="userSpaceOnUse">
<stop stop-color="#CB171E"/>
<stop offset="1" stop-color="#A6080F"/>
</linearGradient>
<linearGradient id="paint34_linear" x1="343.992" y1="417.058" x2="209.169" y2="258.734" gradientUnits="userSpaceOnUse">
<stop stop-color="#97C6B7"/>
<stop offset="1" stop-color="#D1E6DF"/>
</linearGradient>
<linearGradient id="paint35_linear" x1="331.594" y1="309.472" x2="349.745" y2="411.96" gradientUnits="userSpaceOnUse">
<stop offset="0.0941479" stop-color="#FF877F"/>
<stop offset="0.7669" stop-color="#EA2C28"/>
<stop offset="1" stop-color="#EA2C28"/>
</linearGradient>
<linearGradient id="paint36_linear" x1="233.896" y1="386.122" x2="230.521" y2="431.805" gradientUnits="userSpaceOnUse">
<stop offset="0.0233449" stop-color="#FD481A"/>
<stop offset="1" stop-color="#C9250F"/>
</linearGradient>
<linearGradient id="paint37_linear" x1="226.946" y1="381.645" x2="232.027" y2="428.811" gradientUnits="userSpaceOnUse">
<stop stop-color="#C60F11"/>
<stop offset="1" stop-color="#A21716"/>
</linearGradient>
<linearGradient id="paint38_linear" x1="221.602" y1="398.9" x2="224.447" y2="399.252" gradientUnits="userSpaceOnUse">
<stop stop-color="#FEA056"/>
<stop offset="1" stop-color="#FDAA5B"/>
</linearGradient>
<linearGradient id="paint39_linear" x1="236.495" y1="409.296" x2="239.08" y2="409.615" gradientUnits="userSpaceOnUse">
<stop stop-color="#FEA056"/>
<stop offset="1" stop-color="#FDAA5B"/>
</linearGradient>
<linearGradient id="paint40_linear" x1="232.008" y1="400.294" x2="234.593" y2="400.614" gradientUnits="userSpaceOnUse">
<stop stop-color="#FEA056"/>
<stop offset="1" stop-color="#FDAA5B"/>
</linearGradient>
<linearGradient id="paint41_linear" x1="226.012" y1="410.679" x2="228.598" y2="410.998" gradientUnits="userSpaceOnUse">
<stop stop-color="#FEA056"/>
<stop offset="1" stop-color="#FDAA5B"/>
</linearGradient>
<linearGradient id="paint42_linear" x1="217.93" y1="408.36" x2="220.336" y2="408.657" gradientUnits="userSpaceOnUse">
<stop stop-color="#FEA056"/>
<stop offset="1" stop-color="#FDAA5B"/>
</linearGradient>
<linearGradient id="paint43_linear" x1="246.389" y1="413.897" x2="252.824" y2="440.362" gradientUnits="userSpaceOnUse">
<stop stop-color="#FAAF66"/>
<stop offset="1" stop-color="#C05A19"/>
</linearGradient>
<linearGradient id="paint44_linear" x1="243.7" y1="417.438" x2="261.325" y2="435.1" gradientUnits="userSpaceOnUse">
<stop stop-color="#E78D4A"/>
<stop offset="1" stop-color="#B24812"/>
</linearGradient>
<linearGradient id="paint45_linear" x1="246.78" y1="419.535" x2="252.583" y2="441.979" gradientUnits="userSpaceOnUse">
<stop stop-color="#E78D4A"/>
<stop offset="1" stop-color="#B24812"/>
</linearGradient>
<linearGradient id="paint46_linear" x1="237.591" y1="423.719" x2="256.954" y2="427.705" gradientUnits="userSpaceOnUse">
<stop stop-color="#FECE61"/>
<stop offset="0.2537" stop-color="#FBC053"/>
<stop offset="0.7286" stop-color="#F49C2F"/>
<stop offset="1" stop-color="#EF8518"/>
</linearGradient>
<clipPath id="clip0">
<rect width="272.9" height="339" fill="white" transform="translate(133 103)"/>
</clipPath>
</defs>
</svg>
