<svg width="280" height="72" viewBox="0 0 280 72" fill="none" xmlns="http://www.w3.org/2000/svg">
<path d="M23.2308 33.2671C18.7715 33.2671 15.1191 36.9682 15.1191 41.4871C15.1191 46.0059 18.7715 49.707 23.2308 49.707C27.69 49.707 31.3424 46.0059 31.3424 41.4871C31.3424 36.9252 27.69 33.2671 23.2308 33.2671ZM26.5434 38.5606C26.3735 39.7656 24.7597 40.5402 22.891 40.282C21.0224 40.0238 19.7058 38.8188 19.8757 37.6138C20.0456 36.4088 21.6594 35.6341 23.5281 35.8923C25.3542 36.1505 26.7133 37.3556 26.5434 38.5606Z" fill="#7B3170"/>
<path d="M49.3919 33.2671C49.3494 33.2671 49.307 33.2671 49.2645 33.2671L52.2373 41.2719L47.0561 43.2515L44.0832 35.2468C42.342 36.753 41.2378 38.9909 41.2378 41.4871C41.2378 46.0059 44.8901 49.707 49.3494 49.707C53.8087 49.707 57.4611 46.0059 57.4611 41.4871C57.5035 36.9252 53.8936 33.2671 49.3919 33.2671Z" fill="#7B3170"/>
<path d="M0 0V72H71.0511V0H0ZM26.5433 25.0042C19.2811 25.0042 18.7714 21.9916 18.7714 17.7741C26.2885 17.8171 26.5433 20.8296 26.5433 25.0042ZM49.3918 55.0867C43.0214 55.0867 37.6703 50.5678 36.3112 44.4997C34.9522 50.5678 29.6011 55.0867 23.2307 55.0867C15.7986 55.0867 9.76794 48.9755 9.76794 41.4871C9.76794 33.9988 15.7986 27.8876 23.2307 27.8876C29.6011 27.8876 34.9522 32.4065 36.3112 38.4746C37.1182 34.9456 39.2416 31.9331 42.172 30.0395L40.1759 24.746H30.7478V19.1512H43.9982L47.3108 28.0598C47.9903 27.9737 48.6698 27.8876 49.3493 27.8876C56.739 27.8876 62.7696 33.9988 62.7696 41.4871C62.8121 48.9755 56.8239 55.0867 49.3918 55.0867Z" fill="#7B3170"/>
<path d="M100.525 38.4318C101.502 37.8723 102.309 37.0546 102.903 36.0648C103.54 34.9889 103.838 33.7839 103.838 32.4067C103.838 30.1688 102.946 28.3613 101.205 27.0702C99.4634 25.7791 96.9577 25.1335 93.73 25.1335H80.9468V52.806H94.5369C98.0194 52.806 100.695 52.1604 102.479 50.8263C104.305 49.5352 105.239 47.6416 105.239 45.2316C105.239 43.5101 104.772 42.0038 103.923 40.8419C103.073 39.7659 101.927 38.9482 100.525 38.4318ZM97.2125 35.8066C96.2782 36.4521 94.9616 36.7534 93.2204 36.7534H86.213V29.3942H93.2204C94.9616 29.3942 96.2782 29.6954 97.2125 30.341C98.1044 30.9435 98.5715 31.8903 98.5715 33.0953C98.5715 34.3003 98.1044 35.2041 97.2125 35.8066ZM86.213 40.9279H94.2397C98.1044 40.9279 99.973 42.176 99.973 44.7582C99.973 47.3404 98.1044 48.5884 94.2397 48.5884H86.213V40.9279Z" fill="#7B3170"/>
<path d="M116.154 31.675H111.1V52.849H116.154V31.675Z" fill="#7B3170"/>
<path d="M115.898 23.1968C115.304 22.6374 114.539 22.3792 113.605 22.3792C112.713 22.3792 111.949 22.6804 111.312 23.2399C110.717 23.8424 110.377 24.574 110.377 25.4347C110.377 26.2955 110.675 27.0271 111.312 27.6296C111.906 28.1891 112.671 28.4903 113.605 28.4903C114.539 28.4903 115.304 28.1891 115.898 27.5866C116.493 26.9841 116.79 26.2094 116.79 25.3487C116.833 24.4449 116.535 23.7563 115.898 23.1968Z" fill="#7B3170"/>
<path d="M138.323 32.8371C136.624 31.9334 134.713 31.46 132.589 31.46C130.508 31.46 128.555 31.9334 126.898 32.8371C125.2 33.7409 123.883 35.032 122.949 36.6674C122.015 38.3028 121.505 40.1964 121.505 42.2621C121.505 44.3279 121.972 46.2215 122.949 47.8569C123.883 49.4922 125.242 50.7833 126.898 51.7301C128.597 52.6339 130.508 53.1073 132.589 53.1073C134.713 53.1073 136.624 52.6339 138.323 51.7301C140.021 50.8264 141.338 49.4922 142.272 47.8569C143.207 46.2215 143.716 44.3279 143.716 42.2621C143.716 40.1964 143.249 38.3028 142.272 36.6674C141.338 35.075 139.979 33.7839 138.323 32.8371ZM132.589 48.7176C130.848 48.7176 129.404 48.1151 128.257 46.9531C127.153 45.7911 126.559 44.1988 126.559 42.3052C126.559 40.3685 127.111 38.8192 128.257 37.6572C129.362 36.4952 130.848 35.8927 132.589 35.8927C134.331 35.8927 135.775 36.4952 136.921 37.6572C138.068 38.8192 138.62 40.4115 138.62 42.3052C138.62 44.2418 138.025 45.7911 136.921 46.9531C135.775 48.1151 134.331 48.7176 132.589 48.7176Z" fill="#7B3170"/>
<path d="M156.796 47.0391L150.468 31.7611V31.675H145.202L154.121 52.7629V52.849H159.26L168.178 31.8472L168.221 31.675H163.337L156.796 47.0391Z" fill="#7B3170"/>
<path d="M177.224 31.675H172.17V52.849H177.224V31.675Z" fill="#7B3170"/>
<path d="M176.97 23.1968C176.376 22.6374 175.611 22.3792 174.677 22.3792C173.785 22.3792 173.021 22.6804 172.384 23.2399C171.789 23.8424 171.449 24.574 171.449 25.4347C171.449 26.2955 171.746 27.0271 172.384 27.6296C172.978 28.1891 173.743 28.4903 174.677 28.4903C175.611 28.4903 176.376 28.1891 176.97 27.5866C177.565 26.9841 177.862 26.2094 177.862 25.3487C177.905 24.4449 177.607 23.7563 176.97 23.1968Z" fill="#7B3170"/>
<path d="M189.115 23.541H184.062V52.8488H189.115V23.541Z" fill="#7B3170"/>
<path d="M201.007 23.541H195.953V52.8488H201.007V23.541Z" fill="#7B3170"/>
<path d="M216.084 31.46C214.385 31.46 212.729 31.6751 211.2 32.1485C209.671 32.5789 208.355 33.2675 207.25 34.0852L207.165 34.1282L209.161 37.9154L209.246 37.8294C210.011 37.1838 210.945 36.6674 212.049 36.3231C213.154 35.9788 214.3 35.7636 215.447 35.7636C217.103 35.7636 218.377 36.1509 219.227 36.9256C220.076 37.7003 220.501 38.7762 220.501 40.1964V40.4115H215.319C212.347 40.4115 210.138 41.0141 208.737 42.133C207.335 43.295 206.613 44.8443 206.613 46.7379C206.613 47.9429 206.953 49.0619 207.59 50.0517C208.227 50.9985 209.161 51.7732 210.308 52.3326C211.497 52.8921 212.856 53.1503 214.428 53.1503C215.999 53.1503 217.316 52.8921 218.42 52.4187C219.397 51.9884 220.203 51.3428 220.798 50.5682V52.8921H225.597V40.4546C225.597 37.442 224.79 35.1611 223.134 33.6979C221.52 32.2346 219.142 31.46 216.084 31.46ZM220.543 43.8545V46.1354C220.161 47.1252 219.524 47.9429 218.59 48.4594C217.655 49.0188 216.594 49.2771 215.404 49.2771C214.215 49.2771 213.238 49.0188 212.559 48.5024C211.879 47.986 211.54 47.3404 211.54 46.4797C211.54 44.6722 212.856 43.8114 215.617 43.8114H220.543V43.8545Z" fill="#7B3170"/>
<path d="M248.36 34.3003C247.553 33.3965 246.576 32.708 245.43 32.2346C244.198 31.7181 242.797 31.5029 241.31 31.5029C239.357 31.5029 237.53 31.9333 235.959 32.751C234.345 33.6117 233.071 34.8167 232.179 36.323C231.245 37.8723 230.778 39.6368 230.778 41.6595C230.778 43.6392 231.245 45.4467 232.179 46.9961C233.114 48.5454 234.388 49.7504 235.959 50.6111C237.573 51.4718 239.357 51.9022 241.31 51.9022C242.754 51.9022 244.071 51.644 245.26 51.1706C246.364 50.7402 247.341 50.0947 248.148 49.277V50.0947C248.148 52.2035 247.638 53.7958 246.576 54.7857C245.557 55.8185 243.901 56.335 241.65 56.335C240.248 56.335 238.847 56.1198 237.488 55.6464C236.129 55.216 234.982 54.5705 234.09 53.8389L234.005 53.7958L231.712 57.6691L231.797 57.7121C232.944 58.702 234.473 59.4336 236.256 59.95C238.04 60.4665 239.951 60.7247 241.947 60.7247C249.422 60.7247 253.202 56.9805 253.202 49.5782V31.6751H248.36V34.3003ZM246.491 37.442C247.638 38.5179 248.233 39.9381 248.233 41.6165C248.233 43.338 247.638 44.8012 246.491 45.8771C245.345 46.953 243.858 47.5125 242.075 47.5125C240.248 47.5125 238.762 46.953 237.615 45.8771C236.469 44.8012 235.874 43.381 235.874 41.6165C235.874 39.895 236.469 38.4748 237.615 37.442C238.762 36.3661 240.248 35.8066 242.075 35.8066C243.858 35.8496 245.345 36.3661 246.491 37.442Z" fill="#7B3170"/>
<path d="M278.641 36.6674C277.749 35.032 276.475 33.7409 274.904 32.8371C273.29 31.9334 271.464 31.46 269.468 31.46C267.429 31.46 265.561 31.9334 263.904 32.8371C262.248 33.7409 260.974 35.075 260.04 36.7104C259.105 38.3458 258.638 40.2394 258.638 42.2621C258.638 44.3279 259.105 46.2215 260.082 47.8569C261.016 49.4922 262.375 50.7833 264.117 51.7301C265.858 52.6339 267.896 53.1073 270.147 53.1073C271.931 53.1073 273.545 52.806 274.989 52.2466C276.433 51.6871 277.622 50.7833 278.556 49.6644L278.599 49.5783L275.881 46.3936L275.796 46.4797C274.352 47.986 272.483 48.7176 270.275 48.7176C268.534 48.7176 267.047 48.2872 265.858 47.3835C264.711 46.5227 263.989 45.3607 263.692 43.9405H279.873V43.8545C279.915 43.2089 279.958 42.7355 279.958 42.3912C280 40.2394 279.533 38.3028 278.641 36.6674ZM265.561 36.9686C266.622 36.0649 267.897 35.5915 269.425 35.5915C270.954 35.5915 272.271 36.0649 273.29 36.9686C274.309 37.8724 274.904 39.0344 275.116 40.4546H263.65C263.947 39.0344 264.584 37.8294 265.561 36.9686Z" fill="#7B3170"/>
<path d="M135.987 28.6194H136.114V28.4903C136.114 24.617 135.647 22.25 129.404 22.25H129.276V22.3791C129.276 26.0372 129.786 28.6194 135.987 28.6194Z" fill="#7B3170"/>
</svg>
