<svg width="144" height="144" viewBox="0 0 144 144" fill="none" xmlns="http://www.w3.org/2000/svg">
<path d="M47.082 66.5352C38.0444 66.5352 30.6421 73.9374 30.6421 82.9751C30.6421 92.0127 38.0444 99.415 47.082 99.415C56.1197 99.415 63.5219 92.0127 63.5219 82.9751C63.5219 73.8514 56.1197 66.5352 47.082 66.5352ZM53.7957 77.1221C53.4514 79.5322 50.1806 81.0815 46.3934 80.565C42.6062 80.0486 39.938 77.6386 40.2823 75.2285C40.6265 72.8185 43.8973 71.2692 47.6845 71.7856C51.3857 72.302 54.14 74.7121 53.7957 77.1221Z" fill="white"/>
<path d="M100.103 66.5352C100.017 66.5352 99.931 66.5352 99.8449 66.5352L105.87 82.5447L95.3691 86.5041L89.344 70.4945C85.815 73.5071 83.5771 77.9829 83.5771 82.9751C83.5771 92.0127 90.9794 99.415 100.017 99.415C109.055 99.415 116.457 92.0127 116.457 82.9751C116.543 73.8514 109.227 66.5352 100.103 66.5352Z" fill="white"/>
<path d="M0 0V144H144V0H0ZM53.7956 50.0084C39.0771 50.0084 38.0442 43.9833 38.0442 35.5481C53.2791 35.6342 53.7956 41.6593 53.7956 50.0084ZM100.103 110.173C87.1919 110.173 76.3467 101.136 73.5923 88.9994C70.838 101.136 59.9928 110.173 47.0819 110.173C32.0191 110.173 19.7968 97.951 19.7968 82.9743C19.7968 67.9976 32.0191 55.7753 47.0819 55.7753C59.9928 55.7753 70.838 64.8129 73.5923 76.9492C75.2277 69.8912 79.5314 63.8661 85.4704 60.0789L81.425 49.4919H62.3168V38.3025H89.1715L95.8852 56.1195C97.2624 55.9474 98.6396 55.7753 100.017 55.7753C114.993 55.7753 127.216 67.9976 127.216 82.9743C127.302 97.951 115.166 110.173 100.103 110.173Z" fill="white"/>
</svg>
